{"glyphs":{"0":{"ha":957,"x_min":67,"x_max":890,"o":"m 171 132 q 119 206 171 132 q 67 511 67 279 q 171 890 67 743 q 478 1036 275 1036 q 709 965 614 1036 q 847 777 804 893 q 890 511 890 661 q 847 245 890 361 q 709 57 804 129 q 478 -15 614 -15 q 171 132 275 -15 m 456 893 q 289 585 289 893 q 292 511 289 550 q 499 128 310 128 q 667 439 667 128 q 665 511 667 472 q 456 893 647 893 z "},"1":{"ha":547,"x_min":39,"x_max":447,"o":"m 401 886 l 401 143 q 447 44 401 68 q 319 -15 394 -15 q 183 150 183 -15 l 183 826 q 147 869 183 869 q 69 840 107 869 q 39 889 39 853 q 103 988 39 940 q 248 1036 168 1036 q 365 996 328 1036 q 401 886 401 956 z "},"2":{"ha":811,"x_min":32,"x_max":778,"o":"m 778 139 q 553 0 778 0 l 181 0 q 56 50 96 0 q 32 116 32 81 q 42 183 32 151 q 396 469 290 340 q 468 591 439 524 q 497 736 497 658 q 465 858 497 814 q 375 903 433 903 q 315 877 336 903 q 293 819 293 851 q 315 762 293 788 q 375 725 338 736 q 218 640 332 640 q 100 680 150 640 q 50 790 50 719 q 154 965 50 893 q 405 1036 258 1036 q 645 947 551 1036 q 739 718 739 857 q 615 431 739 579 q 257 178 492 282 l 560 197 q 740 242 685 203 q 778 139 778 193 z "},"3":{"ha":803,"x_min":50,"x_max":736,"o":"m 693 814 q 648 691 693 744 q 531 614 603 638 q 677 515 618 590 q 736 331 736 439 q 615 84 736 183 q 344 -15 493 -15 q 97 75 186 -15 q 50 193 50 125 q 97 297 50 261 q 176 332 143 332 q 277 186 207 238 q 418 135 347 135 q 525 171 489 135 q 561 260 561 207 q 489 407 561 340 q 293 474 417 474 q 233 468 254 474 q 214 513 214 483 q 256 574 214 543 q 349 626 299 604 q 441 688 399 649 q 483 776 483 728 q 444 852 483 824 q 350 881 406 881 q 165 811 257 881 q 134 835 146 817 q 122 876 122 854 q 210 987 122 938 q 416 1036 297 1036 q 614 976 535 1036 q 693 814 693 915 z "},"4":{"ha":910,"x_min":67,"x_max":876,"o":"m 286 400 l 490 400 l 490 775 q 474 800 490 800 q 390 728 449 800 q 283 567 332 657 q 235 432 235 476 q 247 407 235 414 q 286 400 258 400 m 735 244 l 708 244 l 708 143 q 753 44 708 68 q 626 -15 703 -15 q 490 150 490 -15 l 490 244 l 176 244 q 67 333 67 244 q 158 606 67 438 q 378 906 250 775 q 599 1036 507 1036 q 708 869 708 1036 l 708 400 l 753 400 q 851 425 822 400 q 876 353 876 397 q 837 277 876 310 q 735 244 797 244 z "},"5":{"ha":810,"x_min":67,"x_max":751,"o":"m 251 619 q 458 674 346 674 q 660 585 569 674 q 751 353 751 496 q 637 97 751 210 q 356 -15 522 -15 q 153 40 239 -15 q 67 189 67 96 q 114 294 67 258 q 208 331 161 331 q 297 204 236 249 q 429 160 358 160 q 542 194 500 160 q 585 290 585 228 q 508 433 585 381 q 338 486 431 486 q 175 457 244 486 q 126 478 146 457 q 106 532 106 500 q 175 900 106 564 q 382 1022 200 1022 l 544 1022 q 653 1050 618 1022 q 681 958 681 1019 q 631 862 681 897 q 469 826 581 826 l 297 826 l 251 619 z "},"6":{"ha":889,"x_min":83,"x_max":822,"o":"m 83 447 q 119 660 83 556 q 215 849 154 765 q 369 985 276 933 q 567 1036 461 1036 q 635 1017 604 1036 q 665 961 665 997 q 664 947 665 951 q 404 802 500 929 q 308 486 308 675 q 369 206 308 297 q 510 115 431 115 q 596 151 560 115 q 632 243 632 186 q 565 401 632 328 q 376 482 497 475 q 424 589 378 546 q 550 632 471 632 q 697 583 629 632 q 793 467 764 533 q 822 335 822 401 q 722 81 822 176 q 469 -15 621 -15 q 186 118 289 -15 q 83 447 83 251 z "},"7":{"ha":731,"x_min":25,"x_max":697,"o":"m 235 1022 l 685 1022 q 697 968 697 1007 q 648 841 697 929 q 539 662 599 753 q 430 449 479 571 q 381 225 381 328 q 467 86 381 122 q 463 75 465 82 q 451 51 461 68 q 426 19 440 33 q 322 -15 389 -15 q 210 38 256 -15 q 164 176 164 92 q 226 379 164 261 q 385 637 289 497 q 510 832 481 776 q 432 826 478 826 l 160 826 q 51 799 88 826 q 25 878 25 835 q 42 949 25 921 q 81 992 60 978 q 136 1014 101 1006 q 235 1022 178 1022 z "},"8":{"ha":907,"x_min":83,"x_max":824,"o":"m 326 465 q 278 318 278 401 q 335 169 278 235 q 490 103 393 103 q 583 134 542 103 q 625 219 625 165 q 467 394 625 317 q 326 465 399 426 m 564 582 q 597 717 597 642 q 544 858 597 793 q 411 924 490 924 q 329 893 364 924 q 294 810 294 863 q 333 719 294 767 q 404 666 356 693 q 499 615 453 639 q 564 582 546 592 m 793 751 q 664 525 793 613 q 824 275 824 418 q 788 142 824 200 q 696 50 751 83 q 469 -15 583 -15 q 203 67 322 -15 q 83 295 83 150 q 228 528 83 440 q 111 749 111 625 q 204 954 111 872 q 444 1036 297 1036 q 603 1006 525 1036 q 737 908 681 975 q 793 751 793 840 z "},"9":{"ha":889,"x_min":67,"x_max":806,"o":"m 806 575 q 747 295 806 429 q 576 73 689 161 q 322 -15 463 -15 q 253 4 283 -15 q 224 60 224 24 q 225 75 224 69 q 484 220 388 93 q 581 536 581 347 q 519 816 581 725 q 378 907 457 907 q 292 871 328 907 q 257 778 257 835 q 324 620 257 693 q 511 540 392 547 q 464 433 510 475 q 339 390 418 390 q 192 440 260 390 q 96 554 125 489 q 67 686 67 619 q 167 940 67 844 q 418 1036 268 1036 q 702 903 599 1036 q 806 575 806 771 z "},"\u0000":{"ha":0,"x_min":0,"x_max":0,"o":""},"\r":{"ha":0,"x_min":0,"x_max":0,"o":""}," ":{"ha":389,"x_min":0,"x_max":0,"o":""},"!":{"ha":581,"x_min":86,"x_max":371,"o":"m 301 514 q 289 398 289 442 q 293 328 289 354 q 240 308 269 308 q 144 436 164 308 l 90 840 q 86 894 86 869 q 117 1010 86 963 q 228 1074 157 1074 q 342 1008 300 1074 q 371 901 371 964 q 365 840 371 872 l 301 514 m 255 225 q 280 225 255 225 q 332 197 304 225 q 360 119 360 168 q 317 26 360 69 q 225 -17 275 -17 q 147 13 175 -17 q 118 90 118 42 q 162 182 118 139 q 255 225 206 225 z "},"\"":{"ha":715,"x_min":100,"x_max":615,"o":"m 315 1128 q 278 929 315 1033 q 209 825 242 825 q 138 930 176 825 q 100 1119 100 1035 q 128 1247 100 1203 q 207 1292 157 1292 q 315 1128 315 1292 m 615 1128 q 578 929 615 1033 q 509 825 542 825 q 438 930 476 825 q 400 1119 400 1035 q 428 1247 400 1203 q 507 1292 457 1292 q 615 1128 615 1292 z "},"#":{"ha":1261,"x_min":90,"x_max":1172,"o":"m 696 386 l 774 635 l 558 635 l 481 386 l 696 386 m 986 635 l 975 635 l 897 386 l 1036 386 q 1050 335 1050 356 q 1005 272 1050 297 q 865 247 960 247 l 854 247 l 824 150 q 635 -15 772 -15 q 590 -6 608 -15 q 564 13 571 3 q 543 44 557 22 q 619 143 594 67 l 653 247 l 438 247 l 407 150 q 218 -15 356 -15 q 173 -6 192 -15 q 147 13 154 3 q 126 44 140 22 q 203 143 178 67 l 236 247 l 103 247 q 90 299 90 275 q 135 361 90 336 q 275 386 181 386 l 279 386 l 357 635 l 225 635 q 211 686 211 665 q 256 749 211 724 q 397 775 301 775 l 401 775 l 432 872 q 498 998 460 960 q 608 1036 536 1036 q 714 976 681 1036 q 636 881 660 953 l 603 775 l 818 775 l 849 872 q 915 998 876 960 q 1025 1036 953 1036 q 1131 976 1097 1036 q 1053 881 1076 953 l 1019 775 l 1158 775 q 1172 724 1172 744 q 1127 660 1172 686 q 986 635 1082 635 z "},"$":{"ha":985,"x_min":108,"x_max":917,"o":"m 626 1072 l 626 1029 q 821 958 749 1011 q 893 831 893 904 q 860 748 893 779 q 771 717 828 717 q 664 753 714 717 q 675 810 675 775 q 634 874 675 846 q 517 901 593 901 q 393 874 442 901 q 344 799 344 846 q 403 713 344 753 q 547 637 463 674 q 715 557 631 600 q 858 444 799 514 q 917 289 917 375 q 821 89 917 171 q 582 -11 725 7 l 582 -57 q 626 -156 582 -132 q 500 -215 576 -215 q 364 -50 364 -215 l 364 -1 q 178 80 249 24 q 108 203 108 136 q 149 304 108 269 q 248 339 190 339 q 361 294 306 339 q 328 221 328 264 q 378 149 328 178 q 515 119 429 119 q 649 154 600 119 q 699 247 699 189 q 640 349 699 304 q 497 431 581 394 q 328 507 413 467 q 185 609 244 547 q 126 750 126 671 q 204 931 126 858 q 408 1026 282 1003 l 408 1081 q 361 1176 408 1151 q 489 1236 414 1236 q 626 1072 626 1236 z "},"%":{"ha":1315,"x_min":83,"x_max":1232,"o":"m 581 760 q 581 702 581 760 q 503 549 581 643 q 315 456 426 456 q 144 534 204 456 q 83 730 83 613 q 156 942 83 847 q 342 1036 229 1036 q 517 957 454 1036 q 581 760 581 878 m 397 731 q 397 764 397 731 q 378 847 397 797 q 327 897 358 897 q 276 858 296 897 q 257 755 257 819 q 276 641 257 690 q 326 592 296 592 q 376 628 356 592 q 397 731 397 664 m 889 949 q 1007 1036 950 1036 q 1093 982 1064 1036 q 1017 900 1069 974 l 428 75 q 309 -17 365 -17 q 225 40 253 -17 q 262 72 238 46 q 303 124 286 99 l 889 949 m 1232 291 q 1232 232 1232 291 q 1155 79 1232 174 q 967 -15 1078 -15 q 795 63 856 -15 q 735 260 735 142 q 808 472 735 378 q 993 567 881 567 q 1169 488 1106 567 q 1232 291 1232 408 m 1049 260 q 1049 293 1049 260 q 1029 376 1049 326 q 978 426 1010 426 q 928 388 947 426 q 908 285 908 350 q 928 172 908 221 q 977 122 947 122 q 1028 158 1007 122 q 1049 260 1049 194 z "},"&":{"ha":1083,"x_min":83,"x_max":1100,"o":"m 465 667 q 489 608 489 639 q 478 551 489 576 q 432 506 468 526 q 343 486 396 486 l 338 486 q 278 359 278 436 q 349 233 278 282 q 522 185 419 185 q 696 233 625 185 q 767 361 767 282 q 635 485 767 485 q 614 548 614 519 q 638 599 614 576 q 718 622 663 622 q 849 661 818 622 q 871 723 871 690 q 867 778 871 756 q 960 799 918 799 q 1033 778 1001 799 q 1100 661 1100 739 q 1042 542 1100 583 q 869 501 985 501 l 858 501 q 893 358 893 432 q 774 93 893 201 q 481 -15 656 -15 q 194 67 306 -15 q 83 284 83 149 q 235 507 83 419 q 108 726 108 563 q 203 948 108 857 q 403 1039 299 1039 q 577 994 507 1039 q 647 887 647 949 q 589 789 647 825 q 518 767 554 767 q 450 776 482 767 q 361 918 450 918 q 299 891 324 918 q 275 818 275 864 q 328 709 275 751 q 465 667 382 667 z "},"'":{"ha":415,"x_min":100,"x_max":315,"o":"m 315 1128 q 278 929 315 1033 q 209 825 242 825 q 138 930 176 825 q 100 1119 100 1035 q 128 1247 100 1203 q 207 1292 157 1292 q 315 1128 315 1292 z "},"(":{"ha":735,"x_min":133,"x_max":685,"o":"m 685 1344 q 367 485 367 975 q 685 -374 367 -4 q 603 -415 667 -415 q 462 -342 540 -415 q 310 -151 383 -269 q 185 139 236 -33 q 133 485 133 311 q 185 831 133 658 q 310 1122 236 1004 q 462 1313 383 1239 q 603 1386 540 1386 q 685 1344 667 1386 z "},")":{"ha":735,"x_min":83,"x_max":635,"o":"m 514 1015 q 540 961 514 1015 q 601 766 567 907 q 635 468 635 625 q 583 139 635 311 q 458 -151 532 -33 q 306 -342 385 -269 q 166 -415 228 -415 q 83 -374 104 -415 q 401 485 401 -4 q 83 1344 401 975 q 172 1386 103 1386 q 276 1340 217 1386 q 399 1209 336 1294 q 514 1015 461 1124 z "},"*":{"ha":907,"x_min":133,"x_max":774,"o":"m 453 1290 q 478 1290 453 1290 q 531 1258 503 1290 q 558 1172 558 1226 q 497 1019 558 1117 q 675 1132 600 1132 q 745 1103 717 1132 q 774 1026 774 1075 q 734 947 774 976 q 646 918 694 918 q 533 932 597 918 q 646 862 599 904 q 693 776 693 819 q 658 701 693 732 q 583 669 622 669 q 490 734 521 669 q 453 882 458 799 q 319 668 433 668 q 246 703 278 668 q 214 781 214 739 q 261 864 214 822 q 372 933 308 906 q 267 922 321 922 q 173 951 213 922 q 133 1028 133 979 q 165 1105 133 1076 q 236 1133 197 1133 q 320 1102 275 1133 q 403 1028 365 1071 q 350 1176 350 1125 q 376 1259 350 1228 q 453 1290 403 1290 z "},"+":{"ha":1014,"x_min":72,"x_max":939,"o":"m 418 664 l 411 835 q 547 1010 411 1010 q 597 999 568 1010 l 592 664 l 931 668 q 939 625 939 649 q 757 485 939 485 q 592 490 744 485 q 597 310 597 369 q 565 197 597 250 q 457 143 533 143 q 418 151 429 143 l 424 490 l 83 485 q 72 535 72 504 q 251 668 72 668 q 418 664 265 668 z "},",":{"ha":499,"x_min":114,"x_max":415,"o":"m 114 -272 q 217 -76 217 -193 q 119 100 217 42 q 174 181 136 147 q 269 214 211 214 q 371 159 326 214 q 415 11 415 104 q 332 -217 415 -115 q 168 -318 249 -318 q 114 -272 125 -318 z "},"-":{"ha":817,"x_min":83,"x_max":733,"o":"m 285 578 l 725 578 q 733 528 733 563 q 717 465 733 494 q 680 422 700 436 q 628 400 660 408 q 532 392 589 392 l 94 392 q 83 449 83 418 q 100 508 83 481 q 137 549 117 536 q 189 569 157 561 q 285 578 228 578 z "},".":{"ha":550,"x_min":143,"x_max":410,"o":"m 293 250 q 320 250 293 250 q 378 218 347 250 q 410 132 410 186 q 363 31 410 78 q 262 -17 317 -17 q 175 15 207 -17 q 143 101 143 47 q 191 203 143 156 q 293 250 239 250 z "},"/":{"ha":876,"x_min":19,"x_max":769,"o":"m 686 1461 q 769 1432 735 1461 q 717 1332 742 1411 l 224 -89 q 100 -215 176 -215 q 19 -183 56 -215 q 74 -81 43 -164 l 565 1336 q 686 1461 607 1461 z "},":":{"ha":553,"x_min":143,"x_max":410,"o":"m 294 764 q 321 764 294 764 q 379 732 349 764 q 410 645 410 700 q 363 544 410 590 q 262 497 317 497 q 175 529 207 497 q 143 615 143 561 q 191 717 143 669 q 294 764 239 764 m 293 251 q 320 251 293 251 q 378 219 347 251 q 410 133 410 188 q 363 32 410 79 q 262 -15 317 -15 q 175 17 207 -15 q 143 103 143 50 q 191 204 143 157 q 293 251 239 251 z "},";":{"ha":553,"x_min":114,"x_max":410,"o":"m 294 764 q 321 764 294 764 q 379 732 349 764 q 410 645 410 700 q 363 544 410 590 q 262 497 317 497 q 175 529 207 497 q 143 615 143 561 q 191 717 143 669 q 294 764 239 764 m 217 -51 q 119 133 217 75 q 174 214 136 181 q 261 247 211 247 q 372 193 335 247 q 408 62 408 139 q 373 -103 408 -15 q 281 -255 338 -192 q 174 -318 224 -318 q 114 -272 125 -318 q 190 -174 164 -233 q 217 -51 217 -114 z "},"<":{"ha":1067,"x_min":94,"x_max":919,"o":"m 357 631 q 551 509 357 601 q 918 349 746 417 q 879 224 918 271 q 778 178 840 178 q 551 250 715 178 q 240 421 386 322 q 94 580 94 519 q 256 744 94 640 q 591 924 417 849 q 810 1000 765 1000 q 887 978 854 1000 q 919 911 919 956 q 357 631 357 682 z "},"=":{"ha":1068,"x_min":90,"x_max":976,"o":"m 292 865 l 968 865 q 976 815 976 850 q 960 751 976 781 q 923 708 943 722 q 869 686 903 694 q 775 678 832 678 l 101 678 q 90 737 90 707 q 107 794 90 767 q 144 835 124 822 q 197 856 164 849 q 292 865 235 865 m 292 475 l 968 475 q 976 426 976 461 q 960 363 976 392 q 923 319 943 333 q 869 297 903 306 q 775 289 832 289 l 101 289 q 90 347 90 315 q 107 406 90 378 q 144 446 124 433 q 197 467 164 458 q 292 475 235 475 z "},">":{"ha":1019,"x_min":94,"x_max":919,"o":"m 774 421 q 701 372 774 421 q 464 250 628 322 q 237 178 300 178 q 135 224 174 178 q 97 349 97 271 q 464 509 269 417 q 658 631 658 601 q 94 911 658 682 q 128 978 94 956 q 205 1000 161 1000 q 423 924 249 1000 q 758 744 597 849 q 919 580 919 640 q 774 421 919 519 z "},"?":{"ha":847,"x_min":92,"x_max":756,"o":"m 594 594 q 576 577 594 594 q 533 524 558 560 q 507 458 507 488 q 526 408 507 429 q 581 378 546 386 q 544 315 576 339 q 459 290 513 290 q 364 331 406 290 q 322 440 322 371 q 397 597 322 521 q 459 666 428 631 q 512 749 490 701 q 533 853 533 797 q 499 943 533 908 q 411 978 464 978 q 311 899 311 978 q 333 840 311 867 q 385 801 356 813 q 342 747 385 782 q 237 711 299 711 q 133 754 175 711 q 92 861 92 797 q 193 1026 92 963 q 431 1089 294 1089 q 662 1025 568 1089 q 756 857 756 961 q 667 664 756 753 q 594 594 631 628 m 467 222 q 494 222 467 222 q 552 194 521 222 q 583 117 583 165 q 536 26 583 68 q 434 -15 489 -15 q 348 14 379 -15 q 317 90 317 43 q 365 180 317 138 q 467 222 413 222 z "},"@":{"ha":1331,"x_min":75,"x_max":1231,"o":"m 560 276 q 628 225 560 225 q 725 269 678 225 l 732 382 q 560 276 560 371 m 743 578 q 678 644 743 644 q 631 628 650 644 q 611 586 611 613 q 628 539 611 560 q 515 497 579 497 q 423 522 451 497 q 394 586 394 547 q 486 699 394 657 q 695 742 578 742 q 876 694 813 742 q 940 553 940 647 q 940 533 940 543 l 925 269 q 925 260 925 264 q 967 211 925 211 q 1082 283 1031 211 q 1139 504 1139 363 q 1034 778 1139 675 q 736 882 929 882 q 317 723 468 882 q 167 331 167 564 q 272 48 167 146 q 578 -50 378 -50 q 876 3 732 -50 q 888 -21 888 -8 q 825 -79 888 -50 q 549 -133 713 -133 q 207 -11 339 -133 q 75 331 75 111 q 124 575 75 458 q 260 778 174 692 q 472 915 346 864 q 730 965 599 965 q 956 927 861 965 q 1108 825 1050 889 q 1231 511 1231 693 q 1127 220 1231 329 q 874 111 1024 111 q 731 190 758 111 q 525 111 649 111 q 389 149 436 111 q 342 247 342 186 q 449 399 342 344 q 736 457 556 454 l 743 567 q 743 578 743 572 z "},"A":{"ha":1031,"x_min":50,"x_max":1003,"o":"m 400 328 l 617 328 l 515 685 l 400 328 m 1003 64 q 947 6 986 28 q 853 -15 907 -15 q 764 12 799 -15 q 701 108 729 39 l 668 194 l 353 194 l 318 97 q 186 -15 279 -15 q 102 5 142 -15 q 50 56 63 25 q 90 88 74 65 q 125 160 106 111 l 410 894 q 356 969 385 949 q 489 1036 399 1036 q 590 999 558 1036 q 658 864 622 961 l 907 192 q 1003 64 943 93 z "},"B":{"ha":1090,"x_min":107,"x_max":990,"o":"m 924 751 q 872 620 924 674 q 726 547 819 567 q 903 469 825 531 q 966 390 942 438 q 990 283 990 342 q 865 69 990 153 q 538 -15 740 -15 q 240 44 335 -15 q 144 235 144 103 l 144 811 q 107 964 144 907 q 513 1036 306 1036 q 822 956 719 1036 q 924 751 924 875 m 521 593 q 651 634 603 593 q 700 740 700 675 q 651 845 700 804 q 513 886 601 886 q 364 868 425 886 l 364 594 l 515 593 q 521 593 518 593 m 364 217 q 540 135 364 135 q 706 178 646 135 q 765 292 765 221 q 706 406 765 363 q 540 450 646 450 l 364 450 l 364 217 z "},"C":{"ha":1025,"x_min":86,"x_max":933,"o":"m 931 832 q 886 740 931 769 q 779 710 842 710 q 669 739 717 710 q 675 802 675 767 q 656 868 675 838 q 557 914 625 914 q 386 810 457 914 q 315 523 315 707 q 392 260 315 339 q 606 181 469 181 q 765 220 689 181 q 885 314 840 260 q 933 228 933 293 q 819 64 933 143 q 549 -15 706 -15 q 208 120 329 -15 q 86 500 86 256 q 218 890 86 744 q 576 1036 350 1036 q 826 977 722 1036 q 931 832 931 918 z "},"D":{"ha":1115,"x_min":107,"x_max":1033,"o":"m 144 235 l 144 811 q 107 964 144 907 q 494 1036 306 1036 q 884 897 735 1036 q 1033 510 1033 758 q 884 124 1033 263 q 494 -15 735 -15 q 229 44 314 -15 q 144 235 144 103 m 364 219 q 502 133 364 133 q 724 236 640 133 q 808 510 808 339 q 724 785 808 681 q 494 889 640 889 q 364 864 431 889 l 364 219 z "},"E":{"ha":994,"x_min":117,"x_max":911,"o":"m 468 178 l 692 178 q 867 233 790 178 q 911 135 911 196 q 867 37 911 74 q 733 0 822 0 l 432 0 q 228 60 293 0 q 164 249 164 119 l 164 865 q 117 961 164 936 q 243 1022 168 1022 l 707 1022 q 864 994 817 1022 q 911 910 911 965 q 867 817 911 854 q 692 843 800 843 l 382 843 l 382 635 l 574 635 q 731 611 685 635 q 778 531 778 588 q 733 440 778 475 q 558 457 683 457 l 382 457 l 382 276 q 468 178 382 178 z "},"F":{"ha":931,"x_min":117,"x_max":911,"o":"m 243 1022 l 724 1022 q 870 997 829 1022 q 911 922 911 972 q 867 833 911 871 q 692 860 800 860 l 382 860 l 382 614 l 574 614 q 731 594 685 614 q 778 527 778 574 q 733 450 778 481 q 558 464 683 464 l 382 464 l 382 143 q 426 44 382 68 q 300 -15 376 -15 q 164 150 164 -15 l 164 865 q 117 961 164 936 q 243 1022 168 1022 z "},"G":{"ha":1097,"x_min":86,"x_max":1040,"o":"m 994 389 l 994 10 q 1040 -89 994 -65 q 915 -149 988 -149 q 810 -108 843 -149 q 776 17 776 -68 l 776 92 q 531 -15 697 -15 q 233 101 369 -15 q 127 256 168 158 q 86 474 86 353 q 231 880 86 724 q 642 1036 376 1036 q 895 975 790 1036 q 1000 828 1000 914 q 953 744 1000 778 q 847 710 907 710 q 740 739 788 710 q 742 765 742 753 q 706 871 742 828 q 597 914 669 914 q 397 806 471 914 q 319 519 319 694 q 392 248 319 344 q 594 151 464 151 q 776 319 776 151 l 776 385 l 732 385 q 601 382 660 385 q 576 466 576 418 q 625 533 576 514 q 792 551 674 551 q 952 514 910 551 q 994 389 994 476 z "},"H":{"ha":1183,"x_min":107,"x_max":1076,"o":"m 1032 872 l 1032 143 q 1076 44 1032 68 q 950 -15 1026 -15 q 814 150 814 -15 l 814 449 l 372 449 l 372 143 q 417 44 372 68 q 292 -15 364 -15 q 186 25 219 -15 q 153 150 153 65 l 153 881 q 107 976 153 953 q 233 1036 157 1036 q 372 872 372 1036 l 372 590 l 814 590 l 814 881 q 767 976 814 951 q 892 1036 819 1036 q 999 996 965 1036 q 1032 872 1032 956 z "},"I":{"ha":524,"x_min":107,"x_max":417,"o":"m 372 872 l 372 143 q 417 44 372 68 q 292 -15 364 -15 q 186 25 219 -15 q 153 150 153 65 l 153 881 q 107 976 153 953 q 233 1036 157 1036 q 372 872 372 1036 z "},"J":{"ha":650,"x_min":25,"x_max":560,"o":"m 560 872 l 560 274 q 478 58 560 132 q 278 -15 397 -15 q 92 30 158 -15 q 25 134 25 75 q 60 225 25 193 q 225 158 136 158 q 309 185 276 158 q 342 264 342 213 l 342 881 q 294 976 342 951 q 422 1036 347 1036 q 560 872 560 1036 z "},"K":{"ha":1068,"x_min":107,"x_max":1001,"o":"m 1001 147 q 956 31 1001 76 q 855 -15 911 -15 q 752 19 799 -15 q 626 142 706 54 l 372 426 l 372 143 q 417 44 372 68 q 292 -15 364 -15 q 186 25 219 -15 q 153 150 153 65 l 153 881 q 107 976 153 953 q 233 1036 157 1036 q 372 872 372 1036 l 372 601 l 636 907 q 744 1008 700 981 q 849 1036 788 1036 q 950 994 910 1036 q 993 886 990 951 q 974 888 983 888 q 886 850 929 888 l 551 543 l 857 217 q 992 147 924 147 l 1001 147 z "},"L":{"ha":818,"x_min":107,"x_max":785,"o":"m 153 232 l 153 881 q 107 976 153 953 q 233 1036 157 1036 q 372 872 372 1036 l 372 260 q 458 161 372 161 l 601 161 q 751 217 700 161 q 785 138 785 193 q 741 42 785 83 q 614 0 697 0 l 406 0 q 210 51 267 0 q 153 232 153 103 z "},"M":{"ha":1347,"x_min":42,"x_max":1268,"o":"m 1268 14 q 1156 -10 1217 -10 q 1061 22 1096 -10 q 1022 132 1026 53 l 983 835 l 740 64 q 651 0 719 0 q 597 17 613 1 q 572 65 582 32 l 321 836 l 281 136 q 249 22 275 58 q 158 -15 224 -15 q 42 39 93 -15 q 86 150 82 76 l 142 860 q 142 878 142 868 q 114 982 142 943 q 328 1036 214 1036 q 488 982 442 1036 q 569 799 535 928 l 681 400 l 789 792 q 891 987 829 938 q 1052 1036 953 1036 q 1222 1006 1151 1036 q 1197 903 1197 964 q 1199 875 1197 890 l 1240 156 q 1268 14 1243 58 z "},"N":{"ha":1189,"x_min":107,"x_max":1082,"o":"m 153 150 l 153 881 q 107 976 153 953 q 257 1036 157 1036 q 453 914 379 1036 l 836 278 l 836 881 q 790 976 836 953 q 917 1036 840 1036 q 1056 872 1056 1036 l 1056 143 q 1082 25 1056 64 q 957 -15 1039 -15 q 813 34 875 -15 q 678 201 750 83 l 372 714 l 372 143 q 417 44 372 68 q 292 -15 364 -15 q 186 25 219 -15 q 153 150 153 65 z "},"O":{"ha":1103,"x_min":92,"x_max":1011,"o":"m 575 122 q 747 231 697 122 q 786 450 786 318 q 785 511 786 479 q 713 793 775 686 q 528 900 650 900 q 317 568 317 900 q 436 176 317 289 q 575 122 493 122 m 907 883 q 933 846 907 883 q 985 717 960 810 q 1011 512 1011 625 q 985 306 1011 399 q 907 139 960 213 q 763 25 854 65 q 551 -15 672 -15 q 206 131 321 -15 q 92 511 92 278 q 206 890 92 744 q 551 1036 321 1036 q 764 996 674 1036 q 907 883 854 956 z "},"P":{"ha":875,"x_min":61,"x_max":858,"o":"m 407 893 l 328 893 l 328 492 l 407 492 q 555 547 503 492 q 607 694 607 601 q 555 840 607 786 q 407 893 503 893 m 189 1022 l 449 1022 q 457 1022 453 1022 q 797 881 686 1022 q 858 693 858 803 q 797 507 858 583 q 449 364 685 364 l 326 364 l 326 143 q 372 44 326 68 q 244 -15 319 -15 q 108 150 108 -15 l 108 865 q 61 961 108 936 q 189 1022 113 1022 z "},"Q":{"ha":1172,"x_min":97,"x_max":1068,"o":"m 1031 -24 q 1068 -119 1068 -61 q 982 -258 1068 -210 q 849 -289 929 -289 q 687 -258 769 -289 q 548 -181 604 -226 q 457 -86 492 -136 q 422 -6 422 -36 q 440 41 422 25 q 511 82 457 57 q 824 543 824 228 q 746 790 824 688 q 554 893 668 893 q 378 807 440 893 q 315 579 315 721 q 378 367 315 438 q 543 285 440 296 q 483 188 526 228 q 382 147 440 147 q 185 250 274 147 q 97 511 97 353 q 238 885 97 735 q 603 1036 378 1036 q 925 913 800 1036 q 1050 583 1050 790 q 933 217 1050 375 q 592 -3 815 60 q 874 -69 700 -69 q 1031 -24 965 -69 z "},"R":{"ha":939,"x_min":61,"x_max":914,"o":"m 328 867 l 328 540 l 407 540 q 556 583 504 540 q 607 703 607 625 q 556 824 607 782 q 407 867 504 867 l 328 867 m 914 78 q 764 -15 867 -15 q 665 13 710 -15 q 569 122 621 40 l 408 385 l 326 385 l 326 143 q 372 44 326 68 q 244 -15 319 -15 q 108 150 108 -15 l 108 865 q 61 961 108 936 q 189 1022 113 1022 l 419 1022 q 709 938 588 1022 q 831 703 831 854 q 776 534 831 604 q 631 425 722 464 l 794 182 q 914 78 844 114 z "},"S":{"ha":975,"x_min":108,"x_max":917,"o":"m 893 831 q 860 748 893 779 q 771 717 828 717 q 664 753 714 717 q 675 810 675 775 q 634 874 675 846 q 517 901 593 901 q 393 874 442 901 q 344 799 344 846 q 403 713 344 753 q 547 637 463 674 q 715 557 631 600 q 858 444 799 514 q 917 289 917 375 q 798 70 917 156 q 510 -15 679 -15 q 225 48 342 -15 q 108 211 108 111 q 149 304 108 269 q 248 339 190 339 q 361 294 306 339 q 328 221 328 264 q 378 149 328 178 q 515 119 429 119 q 649 154 600 119 q 699 247 699 189 q 640 349 699 304 q 497 431 581 394 q 328 507 413 467 q 185 609 244 547 q 126 750 126 671 q 240 958 126 881 q 519 1036 354 1036 q 789 978 685 1036 q 893 831 893 919 z "},"T":{"ha":901,"x_min":33,"x_max":868,"o":"m 232 1022 l 735 1022 q 868 915 868 1022 q 833 835 868 878 q 669 860 776 860 l 560 860 l 560 143 q 606 44 560 68 q 478 -15 553 -15 q 342 150 342 -15 l 342 860 l 167 860 q 33 967 33 860 q 68 1047 33 1004 q 232 1022 125 1022 z "},"U":{"ha":1051,"x_min":83,"x_max":968,"o":"m 131 365 l 131 881 q 83 976 131 951 q 209 1036 136 1036 q 315 996 282 1036 q 349 872 349 956 l 349 333 q 404 194 349 242 q 549 147 460 147 q 694 194 639 147 q 750 333 750 242 l 750 881 q 703 976 750 951 q 831 1036 756 1036 q 968 872 968 1036 l 968 365 q 865 85 968 186 q 549 -15 761 -15 q 233 85 336 -15 q 131 365 131 186 z "},"V":{"ha":1014,"x_min":8,"x_max":989,"o":"m 735 1000 q 856 1036 792 1036 q 954 1003 919 1036 q 989 918 989 969 q 964 807 989 867 l 697 161 q 618 19 653 54 q 507 -15 583 -15 q 442 -8 467 -15 q 398 24 418 -1 q 366 75 378 49 q 333 161 354 101 l 82 869 q 8 968 56 943 q 153 1036 74 1036 q 247 1002 210 1036 q 314 881 285 968 l 528 213 l 739 811 q 765 931 765 892 q 735 1000 765 971 z "},"W":{"ha":1456,"x_min":8,"x_max":1432,"o":"m 1222 911 q 1192 999 1222 968 q 1314 1036 1243 1036 q 1432 910 1432 1036 q 1424 840 1432 890 l 1253 167 q 1075 -15 1217 -15 q 892 167 931 -15 l 749 715 l 600 167 q 534 25 578 65 q 415 -15 490 -15 q 298 25 339 -15 q 236 167 257 65 l 75 856 q 8 978 53 950 q 138 1036 65 1036 q 249 999 210 1036 q 306 869 289 963 l 425 218 l 611 906 q 668 1007 632 978 q 765 1036 704 1036 q 922 906 892 1036 l 1085 207 l 1217 860 q 1222 911 1222 888 z "},"X":{"ha":936,"x_min":14,"x_max":924,"o":"m 924 115 q 869 19 908 54 q 776 -15 831 -15 q 685 8 722 -15 q 608 93 649 31 l 461 324 l 293 83 q 222 8 257 32 q 135 -15 186 -15 q 49 21 83 -15 q 14 122 14 57 q 68 134 47 122 q 111 175 89 146 l 347 500 l 150 810 q 14 907 89 907 q 164 1036 46 1036 q 251 1013 214 1036 q 328 928 289 989 l 501 657 l 642 856 q 674 935 674 899 q 636 1001 674 972 q 767 1036 701 1036 q 870 1003 833 1036 q 907 909 907 971 q 843 767 907 847 l 614 479 l 786 211 q 924 115 847 115 z "},"Y":{"ha":910,"x_min":8,"x_max":899,"o":"m 590 14 q 478 -10 539 -10 q 384 32 418 -10 q 350 156 350 74 l 351 443 l 94 865 q 8 925 60 921 q 149 1036 44 1036 q 240 1002 201 1036 q 318 901 278 968 l 478 639 l 633 840 q 669 928 669 888 q 636 1003 669 968 q 762 1036 703 1036 q 860 1006 821 1036 q 899 919 899 975 q 847 800 899 864 l 568 444 l 567 132 q 590 14 567 57 z "},"Z":{"ha":940,"x_min":42,"x_max":886,"o":"m 886 139 q 661 0 886 0 l 267 0 q 106 50 171 0 q 42 183 42 100 q 65 280 42 238 q 142 369 89 322 l 669 846 q 283 808 469 808 q 58 947 58 808 q 92 1042 58 999 q 276 1022 158 1022 l 657 1022 q 817 972 753 1022 q 882 839 882 921 q 858 744 882 786 q 782 651 835 701 l 250 171 l 681 200 q 851 242 786 208 q 886 139 886 200 z "},"[":{"ha":628,"x_min":56,"x_max":569,"o":"m 274 -106 l 414 -106 q 569 -211 569 -106 q 561 -250 569 -233 l 260 -250 q 110 -204 156 -250 q 72 -140 89 -183 q 56 -36 56 -97 l 56 1460 l 414 1460 q 569 1353 569 1460 q 561 1315 569 1332 l 274 1315 l 274 -106 z "},"\\":{"ha":876,"x_min":107,"x_max":857,"o":"m 190 1461 q 311 1336 269 1461 q 577 573 407 1067 q 803 -81 747 79 q 857 -183 833 -164 q 776 -215 821 -215 q 653 -89 700 -215 q 479 415 622 -1 q 160 1332 336 831 q 107 1432 133 1413 q 190 1461 142 1461 z "},"]":{"ha":628,"x_min":58,"x_max":574,"o":"m 356 1315 l 215 1315 q 58 1422 58 1315 q 67 1460 58 1435 l 368 1460 q 519 1414 474 1460 q 557 1350 540 1393 q 574 1247 574 1307 l 574 -250 l 215 -250 q 58 -143 58 -250 q 67 -106 58 -131 l 356 -106 l 356 1315 z "},"^":{"ha":1019,"x_min":125,"x_max":894,"o":"m 806 303 q 660 447 728 303 l 503 793 l 260 326 q 167 358 208 326 q 125 443 125 389 q 164 564 125 497 l 376 940 q 503 1039 433 1039 q 563 1015 539 1039 q 615 932 588 990 l 894 339 q 806 303 847 303 z "},"_":{"ha":860,"x_min":0,"x_max":860,"o":"m 201 -92 l 851 -92 q 860 -140 860 -106 q 843 -204 860 -175 q 806 -247 826 -233 q 753 -269 786 -261 q 658 -278 715 -278 l 11 -278 q 0 -220 0 -251 q 17 -161 0 -189 q 53 -121 33 -133 q 106 -100 74 -108 q 201 -92 144 -92 z "},"`":{"ha":383,"x_min":17,"x_max":368,"o":"m 350 925 q 310 931 335 931 q 247 901 285 931 l 135 815 q 75 792 108 792 q 17 826 35 792 l 93 957 q 175 1060 136 1031 q 272 1090 214 1090 q 356 1039 329 1090 q 368 987 368 1015 q 350 925 368 958 z "},"a":{"ha":790,"x_min":56,"x_max":765,"o":"m 292 190 q 369 122 292 122 q 472 175 426 122 l 472 310 q 292 190 292 300 m 690 492 l 690 176 q 765 65 690 89 q 698 8 740 31 q 608 -15 656 -15 q 481 76 506 -15 q 265 -15 394 -15 q 113 32 169 -15 q 56 165 56 79 q 166 334 56 271 q 472 400 276 397 l 472 532 q 397 625 472 625 q 347 606 367 625 q 326 556 326 588 q 349 499 326 525 q 230 449 301 449 q 124 481 158 449 q 90 564 90 513 q 185 692 90 642 q 408 742 281 742 q 613 682 535 742 q 690 492 690 622 z "},"b":{"ha":844,"x_min":61,"x_max":814,"o":"m 326 215 q 422 103 326 103 q 547 175 499 103 q 594 360 594 247 q 553 533 594 472 q 453 593 511 593 q 381 569 415 593 q 326 503 347 544 l 326 215 m 326 924 l 326 650 q 523 742 400 742 q 730 647 646 742 q 814 392 814 553 q 701 93 814 201 q 410 -15 589 -15 q 185 35 261 -15 q 108 215 108 86 l 108 932 q 61 1031 108 1001 q 189 1089 114 1089 q 326 924 326 1089 z "},"c":{"ha":726,"x_min":67,"x_max":676,"o":"m 676 576 q 644 497 676 525 q 560 468 613 468 q 465 500 507 468 q 469 544 469 517 q 453 594 469 572 q 410 617 438 617 q 316 543 356 617 q 276 360 276 469 q 324 194 276 251 q 450 136 372 136 q 643 224 565 136 q 675 165 675 211 q 597 40 675 94 q 410 -15 518 -15 q 157 78 247 -15 q 67 335 67 171 q 172 620 67 499 q 443 742 278 742 q 606 697 536 742 q 676 576 676 651 z "},"d":{"ha":835,"x_min":42,"x_max":781,"o":"m 517 586 q 422 622 485 622 q 313 553 360 622 q 267 364 267 485 q 415 122 267 122 q 517 176 481 122 l 517 586 m 735 924 l 735 143 q 781 44 735 68 q 653 -15 728 -15 q 531 60 560 -15 q 452 5 500 25 q 358 -15 404 -15 q 131 81 221 -15 q 42 344 42 176 q 143 626 42 511 q 417 742 244 742 q 517 731 465 742 l 517 932 q 469 1031 517 1001 q 597 1089 522 1089 q 735 924 735 1089 z "},"e":{"ha":742,"x_min":67,"x_max":700,"o":"m 433 460 q 471 476 458 463 q 483 526 483 489 q 462 595 483 564 q 403 626 440 626 q 332 579 365 626 q 288 442 299 532 l 433 460 m 457 136 q 650 224 572 136 q 682 165 682 210 q 603 42 682 99 q 417 -15 524 -15 q 159 75 251 -15 q 67 334 67 165 q 168 622 67 503 q 425 742 269 742 q 622 665 544 742 q 700 489 700 588 q 664 379 700 413 q 540 343 628 346 l 283 336 q 457 136 293 136 z "},"f":{"ha":567,"x_min":8,"x_max":586,"o":"m 156 674 l 156 847 q 224 1024 156 960 q 406 1089 293 1089 q 537 1050 488 1089 q 586 958 586 1011 q 543 897 586 906 q 450 944 500 944 q 374 842 374 944 l 374 674 l 543 674 q 553 644 553 663 q 515 572 553 604 q 397 540 476 540 l 374 540 l 374 -125 q 319 -312 374 -251 q 176 -372 264 -372 q 8 -247 43 -372 q 125 -211 94 -247 q 156 -89 156 -175 l 156 542 q 35 615 35 550 q 65 676 35 656 q 156 674 124 674 z "},"g":{"ha":785,"x_min":22,"x_max":818,"o":"m 393 269 q 468 418 468 269 q 467 460 468 438 q 374 649 456 649 q 297 500 297 649 q 299 460 297 482 q 393 269 310 269 m 565 -108 l 344 -108 q 158 -63 236 -108 q 81 78 81 -18 q 194 231 81 174 q 74 460 74 310 q 164 665 74 588 q 383 742 254 742 q 565 692 485 742 q 610 827 571 779 q 703 875 649 875 q 788 842 757 875 q 818 764 818 808 q 774 667 818 693 q 711 690 742 690 q 633 632 651 690 q 692 460 692 560 q 602 254 692 332 q 383 176 513 176 q 281 192 331 176 q 247 147 247 178 q 272 105 247 115 q 358 94 297 94 l 549 94 q 702 44 653 94 q 751 -93 751 -6 q 641 -294 751 -217 q 351 -372 531 -372 q 97 -322 171 -372 q 22 -203 22 -271 q 62 -119 22 -150 q 157 -89 101 -89 q 210 -187 158 -158 q 375 -217 263 -217 q 544 -195 488 -217 q 601 -139 601 -174 q 565 -108 601 -108 z "},"h":{"ha":883,"x_min":61,"x_max":828,"o":"m 783 492 l 783 143 q 828 44 783 68 q 701 -15 778 -15 q 565 150 565 -15 l 565 460 q 541 538 565 510 q 472 567 517 567 q 386 526 428 567 q 326 404 344 485 l 326 143 q 372 44 326 68 q 244 -15 319 -15 q 108 150 108 -15 l 108 932 q 61 1031 108 1001 q 189 1089 114 1089 q 326 924 326 1089 l 326 597 q 430 705 364 668 q 583 742 496 742 q 726 678 669 742 q 783 492 783 614 z "},"i":{"ha":426,"x_min":61,"x_max":372,"o":"m 226 1089 q 253 1089 226 1089 q 316 1056 281 1089 q 351 970 351 1024 q 306 872 351 917 q 203 828 261 828 q 109 862 144 828 q 74 951 74 896 q 123 1048 74 1007 q 226 1089 172 1089 m 326 576 l 326 143 q 372 44 326 68 q 244 -15 319 -15 q 108 150 108 -15 l 108 585 q 61 682 108 657 q 187 742 114 742 q 293 701 260 742 q 326 576 326 661 z "},"j":{"ha":422,"x_min":-39,"x_max":351,"o":"m 326 576 l 326 -125 q 272 -312 326 -251 q 131 -372 217 -372 q -39 -247 -1 -372 q 78 -211 47 -247 q 108 -89 108 -175 l 108 585 q 61 683 108 657 q 187 742 114 742 q 293 701 260 742 q 326 576 326 661 m 226 1089 q 253 1089 226 1089 q 316 1056 281 1089 q 351 970 351 1024 q 306 872 351 917 q 203 828 261 828 q 109 862 144 828 q 74 951 74 896 q 123 1048 74 1007 q 226 1089 172 1089 z "},"k":{"ha":885,"x_min":61,"x_max":824,"o":"m 326 924 l 326 456 q 585 742 585 576 q 735 704 678 742 q 792 599 792 667 q 716 481 792 532 q 478 381 640 429 q 678 207 613 244 q 824 169 743 169 q 782 33 824 82 q 667 -15 740 -15 q 516 59 593 -15 q 326 315 439 133 l 326 143 q 372 44 326 68 q 244 -15 319 -15 q 108 150 108 -15 l 108 932 q 61 1031 108 1001 q 189 1089 114 1089 q 326 924 326 1089 z "},"l":{"ha":433,"x_min":61,"x_max":372,"o":"m 326 924 l 326 143 q 372 44 326 68 q 244 -15 319 -15 q 108 150 108 -15 l 108 932 q 61 1031 108 1001 q 189 1089 114 1089 q 326 924 326 1089 z "},"m":{"ha":1340,"x_min":61,"x_max":1285,"o":"m 1240 492 l 1240 143 q 1285 44 1240 68 q 1158 -15 1235 -15 q 1022 150 1022 -15 l 1022 460 q 998 538 1022 510 q 929 567 974 567 q 843 527 885 567 q 783 410 801 488 l 783 143 q 828 44 783 68 q 701 -15 778 -15 q 565 150 565 -15 l 565 460 q 541 538 565 510 q 472 567 517 567 q 386 526 428 567 q 326 404 344 485 l 326 143 q 372 44 326 68 q 244 -15 319 -15 q 108 150 108 -15 l 108 585 q 61 682 108 657 q 185 742 114 742 q 289 706 256 742 q 326 597 322 671 q 430 705 364 668 q 573 742 496 742 q 703 700 650 742 q 774 579 756 658 q 879 700 810 658 q 1038 742 949 742 q 1183 678 1126 742 q 1240 492 1240 614 z "},"n":{"ha":883,"x_min":61,"x_max":828,"o":"m 783 492 l 783 143 q 828 44 783 68 q 701 -15 778 -15 q 565 150 565 -15 l 565 460 q 541 538 565 510 q 472 567 517 567 q 386 526 428 567 q 326 404 344 485 l 326 143 q 372 44 326 68 q 244 -15 319 -15 q 108 150 108 -15 l 108 585 q 61 682 108 657 q 185 742 114 742 q 289 706 256 742 q 326 597 322 671 q 430 705 364 668 q 583 742 496 742 q 726 678 669 742 q 783 492 783 614 z "},"o":{"ha":847,"x_min":67,"x_max":781,"o":"m 406 636 q 286 428 286 636 q 289 364 286 397 q 442 90 306 90 q 561 300 561 90 q 558 364 561 329 q 406 636 539 636 m 165 644 q 215 693 165 644 q 424 742 264 742 q 682 644 583 742 q 781 364 781 546 q 681 83 781 182 q 423 -15 582 -15 q 165 83 264 -15 q 67 364 67 182 q 165 644 67 546 z "},"p":{"ha":851,"x_min":61,"x_max":814,"o":"m 453 111 q 551 182 508 111 q 594 363 594 253 q 553 533 594 472 q 453 593 511 593 q 381 569 415 593 q 326 503 347 544 l 326 175 q 453 111 378 111 m 108 -207 l 108 585 q 61 683 108 657 q 189 742 114 742 q 319 642 299 742 q 521 742 394 742 q 731 642 647 742 q 814 365 814 543 q 714 86 814 188 q 483 -15 614 -15 q 326 33 397 -15 l 326 -214 q 372 -311 326 -287 q 244 -372 321 -372 q 108 -207 108 -372 z "},"q":{"ha":807,"x_min":42,"x_max":781,"o":"m 517 519 q 485 596 517 569 q 417 622 454 622 q 310 553 353 622 q 267 364 267 485 q 303 183 267 243 q 399 122 339 122 q 517 188 476 122 l 517 519 m 735 742 l 735 -214 q 781 -311 735 -287 q 653 -372 729 -372 q 517 -207 517 -372 l 517 51 q 351 -15 447 -15 q 133 82 225 -15 q 42 339 42 179 q 82 533 42 443 q 208 682 122 622 q 407 742 293 742 q 551 690 486 742 q 681 742 590 742 l 735 742 z "},"r":{"ha":685,"x_min":61,"x_max":660,"o":"m 108 150 l 108 585 q 61 682 108 657 q 189 742 114 742 q 325 608 313 742 q 510 742 381 742 q 617 703 575 742 q 660 599 660 664 q 627 495 660 533 q 528 457 594 457 q 492 460 519 457 q 497 492 497 485 q 477 547 497 526 q 428 567 457 567 q 326 453 353 567 l 326 143 q 372 44 326 68 q 244 -15 319 -15 q 108 150 108 -15 z "},"s":{"ha":731,"x_min":50,"x_max":692,"o":"m 658 585 q 632 514 658 539 q 557 489 606 489 q 464 522 508 489 q 447 608 482 579 q 387 626 425 626 q 326 610 349 626 q 303 563 303 594 q 343 502 303 531 q 440 449 383 474 q 554 397 497 425 q 651 322 611 368 q 692 218 692 276 q 596 50 692 115 q 366 -15 500 -15 q 142 33 232 -15 q 50 161 50 85 q 85 237 50 207 q 168 267 119 267 q 276 219 244 267 q 253 168 253 200 q 283 119 253 136 q 364 101 314 101 q 444 122 414 101 q 474 174 474 142 q 433 233 474 206 q 336 286 393 261 q 222 340 279 311 q 125 416 165 369 q 85 519 85 463 q 172 676 85 610 q 380 742 260 742 q 579 697 500 742 q 658 585 658 653 z "},"t":{"ha":603,"x_min":15,"x_max":586,"o":"m 333 593 l 333 218 q 401 131 333 131 q 540 199 476 131 q 573 183 560 199 q 586 140 586 167 q 517 34 586 83 q 345 -15 447 -15 q 179 36 243 -15 q 115 193 115 88 l 115 593 q 40 617 65 594 q 15 675 15 640 q 44 731 15 710 q 115 726 78 726 l 115 768 q 68 865 115 840 q 194 925 121 925 q 300 885 267 925 q 333 760 333 844 l 333 726 l 543 726 q 553 699 553 715 q 506 624 553 656 q 344 593 460 593 l 333 593 z "},"u":{"ha":883,"x_min":61,"x_max":828,"o":"m 783 576 l 783 143 q 828 44 783 68 q 701 -15 778 -15 q 569 97 589 -15 q 373 -15 499 -15 q 178 49 247 -15 q 108 235 108 113 l 108 585 q 61 682 108 657 q 187 742 114 742 q 293 701 260 742 q 326 576 326 661 l 326 257 q 435 150 326 150 q 565 256 528 150 l 565 585 q 518 682 565 657 q 644 742 571 742 q 750 701 717 742 q 783 576 783 661 z "},"v":{"ha":806,"x_min":33,"x_max":772,"o":"m 543 564 q 558 648 558 610 q 540 717 558 686 q 647 742 588 742 q 739 713 706 742 q 772 640 772 683 q 749 536 772 597 l 603 158 q 527 28 568 65 q 405 -10 486 -10 q 282 25 324 -10 q 211 158 240 60 l 92 565 q 33 661 69 636 q 88 719 50 696 q 167 742 125 742 q 317 606 290 742 l 408 135 l 543 564 z "},"w":{"ha":1268,"x_min":33,"x_max":1235,"o":"m 1026 592 q 1035 668 1035 635 q 1024 719 1035 701 q 1128 742 1067 742 q 1218 689 1189 742 q 1235 628 1235 660 q 1226 568 1235 597 l 1107 160 q 1039 23 1078 61 q 919 -15 1000 -15 q 796 26 838 -15 q 733 160 754 68 l 667 454 l 597 160 q 531 24 574 64 q 400 -15 488 -15 q 272 22 313 -15 q 203 160 231 60 l 99 547 q 71 623 85 597 q 33 661 57 649 q 176 742 85 742 q 319 585 292 742 l 399 156 l 503 597 q 563 710 522 679 q 678 742 604 742 q 794 710 751 742 q 853 597 838 678 l 940 167 l 1026 592 z "},"x":{"ha":775,"x_min":26,"x_max":747,"o":"m 608 -15 q 451 81 519 -15 l 372 192 l 297 65 q 151 -15 249 -15 q 72 11 107 -15 q 26 78 36 38 q 106 142 67 88 l 253 360 l 83 600 q 26 647 54 643 q 68 716 32 690 q 153 742 104 742 q 310 647 243 742 l 394 526 l 476 661 q 622 742 525 742 q 702 715 667 742 q 747 649 738 689 q 668 585 706 639 l 514 358 l 676 126 q 735 81 708 83 q 694 11 729 38 q 608 -15 658 -15 z "},"y":{"ha":857,"x_min":33,"x_max":825,"o":"m 607 586 q 622 661 622 628 q 607 717 622 694 q 697 742 646 742 q 807 686 771 742 q 825 621 825 658 q 807 535 825 583 l 542 -183 q 322 -372 472 -372 q 213 -337 256 -372 q 169 -255 169 -303 q 194 -167 169 -207 q 267 -197 232 -197 q 328 -177 301 -197 q 368 -119 356 -157 l 404 -14 q 397 -14 400 -14 q 297 27 344 -14 q 226 144 250 68 l 94 567 q 67 641 79 617 q 33 682 56 665 q 161 742 96 742 q 263 704 226 742 q 319 585 299 667 l 447 115 l 607 586 z "},"z":{"ha":694,"x_min":58,"x_max":644,"o":"m 611 201 q 636 118 636 172 q 598 32 636 64 q 475 0 560 0 l 243 0 q 106 42 153 0 q 58 149 58 83 q 74 217 58 188 q 131 282 90 246 l 456 569 q 246 550 339 550 q 114 583 153 550 q 75 660 75 615 q 99 736 75 706 q 232 726 161 726 l 460 726 q 597 685 550 726 q 644 578 644 643 q 628 511 644 540 q 572 444 613 482 l 242 153 l 475 165 q 611 201 564 169 z "},"{":{"ha":817,"x_min":167,"x_max":606,"o":"m 456 1268 q 474 1059 456 1219 q 493 840 493 899 q 472 731 493 782 q 419 653 450 679 q 331 601 364 606 q 419 550 364 597 q 472 473 450 524 q 493 363 493 422 q 474 144 493 304 q 456 -65 456 -17 q 496 -198 456 -146 q 606 -267 536 -250 q 546 -307 589 -292 q 469 -322 503 -322 q 310 -250 376 -322 q 243 -42 243 -178 q 264 179 243 36 q 285 381 285 322 q 266 479 285 439 q 226 535 247 519 q 185 568 204 551 q 167 601 167 585 q 185 635 167 618 q 226 669 204 653 q 266 725 247 685 q 285 823 285 765 q 264 1024 285 881 q 243 1244 243 1168 q 310 1453 243 1382 q 469 1525 376 1525 q 547 1510 504 1525 q 606 1469 589 1494 q 496 1401 536 1453 q 456 1268 456 1349 z "},"|":{"ha":524,"x_min":107,"x_max":417,"o":"m 372 1206 l 372 -157 q 417 -256 372 -232 q 292 -315 364 -315 q 186 -275 219 -315 q 153 -150 153 -235 l 153 1214 q 107 1310 153 1286 q 233 1369 157 1369 q 372 1206 372 1369 z "},"}":{"ha":817,"x_min":167,"x_max":606,"o":"m 528 1244 q 507 1024 528 1168 q 486 823 486 881 q 505 725 486 765 q 546 669 524 685 q 587 635 568 653 q 606 601 606 618 q 587 568 606 585 q 546 535 568 551 q 505 479 524 519 q 486 381 486 439 q 507 179 486 322 q 528 -42 528 36 q 461 -251 528 -179 q 301 -322 394 -322 q 226 -307 268 -322 q 167 -267 183 -292 q 276 -198 236 -250 q 317 -65 317 -146 q 297 144 317 -17 q 278 363 278 304 q 299 473 278 422 q 350 550 321 524 q 442 601 407 597 q 350 653 407 606 q 299 731 321 679 q 278 840 278 782 q 297 1059 278 899 q 317 1268 317 1219 q 276 1401 317 1349 q 167 1469 236 1453 q 226 1510 183 1494 q 301 1525 268 1525 q 462 1453 396 1525 q 528 1244 528 1382 z "},"~":{"ha":968,"x_min":100,"x_max":868,"o":"m 722 583 q 783 605 760 583 q 808 661 806 626 q 868 565 868 636 q 814 447 868 494 q 678 399 760 399 q 451 447 596 399 q 257 494 306 494 q 160 417 165 494 q 100 509 100 435 q 154 632 100 583 q 281 681 208 681 q 501 632 353 681 q 722 583 649 583 z "},"¡":{"ha":485,"x_min":99,"x_max":385,"o":"m 378 -136 q 385 -216 385 -171 q 356 -306 385 -261 q 242 -369 314 -369 q 131 -306 171 -369 q 99 -187 99 -258 q 103 -136 99 -162 l 158 267 q 253 394 175 394 q 307 375 286 394 q 303 300 303 344 q 315 190 303 256 l 378 -136 m 238 478 q 213 478 238 478 q 160 506 189 478 q 132 584 132 535 q 174 676 132 633 q 267 719 217 719 q 345 690 317 719 q 374 613 374 661 q 330 521 374 564 q 238 478 286 478 z "},"¢":{"ha":726,"x_min":67,"x_max":676,"o":"m 542 776 l 542 726 q 640 669 603 708 q 676 578 676 631 q 644 497 676 525 q 560 468 613 468 q 465 500 507 468 q 469 544 469 517 q 453 594 469 572 q 410 617 438 617 q 316 543 356 617 q 276 360 276 469 q 324 194 276 251 q 450 136 372 136 q 643 224 565 136 q 675 160 675 211 q 625 62 675 110 q 497 -4 575 14 l 497 -57 q 542 -156 497 -132 q 417 -215 489 -215 q 311 -175 344 -215 q 278 -50 278 -135 l 278 4 q 122 123 176 38 q 67 336 67 208 q 137 573 67 464 q 324 722 207 682 l 324 785 q 276 882 324 857 q 402 942 329 942 q 508 901 475 942 q 542 776 542 861 z "},"£":{"ha":928,"x_min":50,"x_max":894,"o":"m 175 586 l 225 586 q 224 682 224 611 q 335 938 224 839 q 606 1036 447 1036 q 776 994 718 1036 q 833 893 833 953 q 789 796 833 833 q 675 756 744 758 q 627 857 663 817 q 550 897 592 897 q 468 735 468 897 q 474 586 468 642 l 703 586 q 710 561 710 581 q 585 474 710 474 l 478 474 l 478 400 q 401 225 478 278 q 534 199 431 221 q 707 176 638 176 q 875 228 817 176 q 894 149 894 192 q 842 34 894 83 q 699 -15 789 -15 q 476 12 608 -15 q 292 39 343 39 q 106 -14 168 39 q 85 70 85 24 q 119 158 85 117 q 214 218 154 200 q 233 328 233 260 q 231 474 233 396 l 57 474 q 50 503 50 481 q 175 586 50 586 z "},"¤":{"ha":1000,"x_min":75,"x_max":925,"o":"m 654 474 q 485 725 654 725 q 347 550 347 725 q 349 517 347 535 q 515 308 363 308 q 654 474 654 308 m 794 682 q 833 517 833 611 q 796 353 833 424 l 925 225 q 824 143 903 143 q 706 199 760 143 l 669 236 q 500 201 599 201 q 331 236 401 201 l 294 199 q 176 143 240 143 q 75 225 97 143 l 204 353 q 167 517 167 424 q 206 682 167 611 l 75 810 q 176 892 96 892 q 294 836 240 892 l 332 799 q 500 833 403 833 q 668 799 597 833 l 706 836 q 824 892 760 892 q 925 810 904 892 l 794 682 z "},"¥":{"ha":974,"x_min":8,"x_max":899,"o":"m 633 840 q 669 928 669 888 q 636 1003 669 968 q 762 1036 703 1036 q 860 1006 821 1036 q 899 919 899 975 q 847 800 899 864 l 656 556 l 835 556 q 842 531 842 549 q 717 442 842 442 l 568 442 l 568 336 l 835 336 q 842 311 842 331 q 717 224 842 224 l 567 224 l 567 132 q 590 14 567 57 q 478 -10 539 -10 q 384 32 418 -10 q 350 156 350 74 l 350 224 l 106 224 q 99 253 99 231 q 224 336 99 336 l 351 336 l 351 442 l 106 442 q 99 472 99 451 q 224 556 99 556 l 283 556 l 94 865 q 8 925 60 921 q 149 1036 44 1036 q 240 1002 201 1036 q 318 901 278 968 l 478 639 l 633 840 z "},"¦":{"ha":524,"x_min":107,"x_max":417,"o":"m 372 306 l 372 -24 q 417 -122 372 -99 q 292 -182 364 -182 q 186 -142 219 -182 q 153 -17 153 -101 l 153 314 q 107 410 153 386 q 233 469 157 469 q 372 306 372 469 m 372 1089 l 372 760 q 417 661 372 685 q 292 601 364 601 q 186 642 219 601 q 153 767 153 682 l 153 1097 q 107 1193 153 1169 q 233 1253 157 1253 q 372 1089 372 1253 z "},"§":{"ha":975,"x_min":147,"x_max":878,"o":"m 463 78 q 563 24 508 50 q 674 -33 618 -3 q 775 -100 729 -64 q 849 -190 821 -136 q 878 -311 878 -244 q 771 -531 878 -446 q 510 -615 664 -615 q 252 -552 357 -615 q 147 -389 147 -489 q 190 -294 147 -328 q 297 -260 232 -260 q 403 -306 361 -260 q 374 -381 374 -337 q 412 -452 374 -424 q 526 -481 450 -481 q 642 -445 601 -481 q 682 -360 682 -410 q 628 -272 682 -311 q 499 -195 575 -232 q 347 -115 422 -158 q 217 -3 271 -72 q 164 162 164 67 q 224 320 164 257 q 369 383 285 383 q 449 367 408 383 q 360 223 360 308 q 463 78 360 138 m 858 831 q 828 748 858 779 q 757 717 797 717 q 631 753 675 717 q 640 814 640 782 q 603 874 640 846 q 499 901 565 901 q 360 807 360 901 q 413 736 360 772 q 542 663 467 700 q 694 581 618 626 q 824 465 771 536 q 878 293 878 393 q 813 135 878 193 q 667 78 749 78 q 593 94 625 78 q 682 240 682 153 q 579 389 682 326 q 478 444 533 417 q 368 500 424 471 q 267 563 313 529 q 164 750 164 638 q 266 959 164 882 q 518 1036 368 1036 q 763 978 668 1036 q 858 831 858 919 z "},"¨":{"ha":547,"x_min":17,"x_max":531,"o":"m 147 1049 q 170 1049 147 1049 q 220 1021 193 1049 q 247 947 247 993 q 207 859 247 900 q 119 818 167 818 q 44 846 71 818 q 17 920 17 874 q 58 1008 17 967 q 147 1049 100 1049 m 430 1049 q 453 1049 430 1049 q 503 1021 476 1049 q 531 947 531 993 q 490 859 531 900 q 402 818 450 818 q 327 846 354 818 q 300 920 300 874 q 342 1008 300 967 q 430 1049 383 1049 z "},"©":{"ha":1207,"x_min":100,"x_max":1107,"o":"m 847 706 q 819 635 847 660 q 742 610 790 610 q 661 639 694 610 q 665 678 665 654 q 651 722 665 701 q 611 742 638 742 q 529 677 564 742 q 494 516 494 613 q 537 369 494 419 q 649 318 579 318 q 818 394 751 318 q 844 343 844 386 q 776 233 844 281 q 611 185 707 185 q 389 267 468 185 q 310 492 310 349 q 403 744 310 636 q 642 851 496 851 q 785 812 724 851 q 847 706 847 772 m 294 840 q 236 773 294 840 q 178 510 178 707 q 294 181 178 313 q 603 50 410 50 q 912 181 796 50 q 1028 510 1028 313 q 913 840 1028 708 q 604 972 797 972 q 294 840 411 972 m 603 1039 q 712 1039 603 1039 q 964 891 821 1039 q 1107 510 1107 743 q 964 131 1107 278 q 603 -15 821 -15 q 242 131 385 -15 q 100 510 100 278 q 243 891 100 743 q 603 1039 386 1039 z "},"ª":{"ha":790,"x_min":56,"x_max":765,"o":"m 292 190 q 369 122 292 122 q 472 175 426 122 l 472 310 q 292 190 292 300 m 690 492 l 690 176 q 765 65 690 89 q 698 8 740 31 q 608 -15 656 -15 q 481 76 506 -15 q 265 -15 394 -15 q 113 32 169 -15 q 56 165 56 79 q 166 334 56 271 q 472 400 276 397 l 472 532 q 397 625 472 625 q 347 606 367 625 q 326 556 326 588 q 349 499 326 525 q 230 449 301 449 q 124 481 158 449 q 90 564 90 513 q 185 692 90 642 q 408 742 281 742 q 613 682 535 742 q 690 492 690 622 z "},"«":{"ha":814,"x_min":50,"x_max":764,"o":"m 431 881 q 288 676 325 740 q 251 562 251 613 q 289 446 251 511 q 431 243 326 381 q 413 224 426 233 q 383 214 400 214 q 256 278 336 214 q 113 428 175 343 q 50 562 50 513 q 113 696 50 611 q 256 845 175 781 q 383 910 336 910 q 413 900 400 910 q 431 881 426 890 m 764 881 q 622 676 658 740 q 585 562 585 613 q 622 446 585 511 q 764 243 660 381 q 747 224 760 233 q 717 214 733 214 q 589 278 669 214 q 446 428 508 343 q 383 562 383 513 q 446 696 383 611 q 589 845 508 781 q 717 910 669 910 q 747 900 733 910 q 764 881 760 890 z "},"¬":{"ha":1172,"x_min":67,"x_max":1089,"o":"m 1043 556 l 1043 431 q 1089 332 1043 356 q 963 272 1036 272 q 858 313 890 272 q 825 436 825 353 l 825 499 q 814 533 825 524 q 775 542 803 542 l 78 542 q 67 592 67 568 q 219 700 67 700 l 865 700 q 1003 667 964 700 q 1043 556 1043 633 z "},"®":{"ha":944,"x_min":83,"x_max":861,"o":"m 422 922 l 422 776 l 457 776 q 544 849 544 776 q 457 922 544 922 l 422 922 m 682 569 q 608 528 661 528 q 518 590 556 528 l 446 708 l 419 708 l 419 600 q 440 556 419 568 q 378 528 415 528 q 314 603 314 528 l 314 922 q 293 965 314 953 q 349 992 317 992 l 475 992 q 603 953 549 992 q 657 849 657 915 q 560 722 657 756 l 631 617 q 682 569 644 597 m 238 522 q 282 474 238 522 q 472 426 326 426 q 706 522 618 426 q 794 756 794 617 q 707 990 794 896 q 474 1085 619 1085 q 239 990 328 1085 q 150 756 150 894 q 238 522 150 617 m 192 1037 q 247 1091 192 1037 q 472 1144 301 1144 q 752 1037 643 1144 q 861 756 861 929 q 752 474 861 582 q 472 367 643 367 q 192 474 301 367 q 83 756 83 582 q 192 1037 83 929 z "},"¯":{"ha":586,"x_min":17,"x_max":569,"o":"m 122 964 l 558 964 q 569 922 569 950 q 541 874 569 894 q 465 853 513 853 l 28 853 q 17 897 17 871 q 46 943 17 922 q 122 964 75 964 z "},"°":{"ha":1389,"x_min":108,"x_max":622,"o":"m 180 1177 q 216 1211 180 1177 q 365 1244 251 1244 q 551 1177 479 1244 q 622 1000 622 1110 q 550 822 622 890 q 365 753 478 753 q 181 822 253 753 q 108 1000 108 890 q 180 1177 108 1110 m 264 1000 q 264 976 264 1000 q 291 921 264 951 q 365 890 318 890 q 439 921 411 890 q 467 1001 467 951 q 439 1080 467 1050 q 365 1110 411 1110 q 291 1079 318 1110 q 264 1000 264 1049 z "},"±":{"ha":1008,"x_min":50,"x_max":958,"o":"m 418 760 l 411 893 l 411 899 q 547 1074 411 1074 q 597 1061 572 1074 l 592 760 l 931 765 q 939 722 939 746 q 757 582 939 582 q 592 586 744 582 q 597 457 597 467 q 565 327 597 381 q 457 274 533 274 q 418 282 426 274 l 424 586 l 83 582 q 72 632 72 601 q 251 765 72 765 q 418 760 265 765 m 250 218 l 950 218 q 958 169 958 203 q 942 106 958 135 q 906 64 926 78 q 853 42 886 50 q 758 33 814 33 l 61 33 q 50 88 50 60 q 60 140 50 115 q 90 178 69 164 q 128 201 110 192 q 172 214 146 210 q 250 218 211 218 z "},"²":{"ha":603,"x_min":50,"x_max":536,"o":"m 393 435 l 147 435 q 67 464 92 435 q 50 502 50 482 q 57 542 50 522 q 326 761 271 661 q 353 857 353 808 q 274 958 353 958 q 233 944 247 958 q 219 910 219 929 q 274 856 219 872 q 172 807 246 807 q 94 829 128 807 q 61 893 61 851 q 130 994 61 953 q 293 1036 199 1036 q 449 984 388 1036 q 510 851 510 932 q 428 686 510 769 q 190 544 346 603 q 390 558 303 558 q 536 478 536 558 q 515 424 536 453 q 393 435 469 435 z "},"³":{"ha":531,"x_min":42,"x_max":489,"o":"m 460 907 q 430 835 460 867 q 353 790 400 804 q 450 728 411 772 q 489 626 489 683 q 403 490 489 553 q 235 426 318 426 q 97 460 153 426 q 42 540 42 493 q 72 619 42 588 q 118 650 101 650 q 261 551 156 551 q 332 570 306 551 q 358 621 358 589 q 319 681 358 653 q 200 710 279 710 q 160 707 179 710 q 149 734 149 717 q 172 768 149 751 q 224 796 196 785 q 276 827 253 807 q 300 874 300 847 q 275 916 300 900 q 206 932 250 932 q 118 901 163 932 q 89 948 89 910 q 140 1011 89 986 q 274 1036 192 1036 q 408 1001 357 1036 q 460 907 460 965 z "},"´":{"ha":383,"x_min":15,"x_max":367,"o":"m 367 826 q 312 792 349 792 q 249 815 275 792 l 136 901 q 74 931 99 931 q 33 925 49 931 q 15 987 15 958 q 28 1039 15 1015 q 112 1090 54 1090 q 208 1060 169 1090 q 290 957 247 1031 l 367 826 z "},"µ":{"ha":883,"x_min":61,"x_max":828,"o":"m 783 576 l 783 143 q 828 44 783 68 q 701 -15 778 -15 q 569 97 588 -15 q 389 -15 500 -15 q 326 -6 358 -15 l 326 -111 q 372 -210 326 -186 q 247 -269 319 -269 q 141 -229 174 -269 q 108 -106 108 -189 l 108 585 q 61 682 108 657 q 187 742 114 742 q 293 701 260 742 q 326 576 326 661 l 326 257 q 435 150 326 150 q 565 256 528 150 l 565 585 q 518 682 565 657 q 644 742 571 742 q 750 701 717 742 q 783 576 783 661 z "},"¶":{"ha":1000,"x_min":67,"x_max":835,"o":"m 351 1022 l 835 1022 q 810 811 810 940 l 810 0 q 756 -8 786 -8 q 701 15 726 -8 q 676 90 676 39 l 676 772 q 686 900 676 825 l 610 900 q 550 833 550 900 l 550 0 q 497 -8 528 -8 q 441 15 465 -8 q 417 90 417 39 l 417 383 l 351 383 q 142 474 217 383 q 67 703 67 564 q 142 932 67 842 q 351 1022 217 1022 z "},"·":{"ha":543,"x_min":143,"x_max":410,"o":"m 294 665 q 321 665 294 665 q 379 633 349 665 q 410 547 410 601 q 363 445 410 492 q 262 399 317 399 q 175 431 207 399 q 143 517 143 463 q 191 618 143 571 q 294 665 239 665 z "},"¸":{"ha":540,"x_min":18,"x_max":507,"o":"m 331 -86 q 507 -214 507 -86 q 433 -325 507 -281 q 254 -369 360 -369 q 83 -331 149 -369 q 18 -243 18 -293 q 49 -190 18 -208 q 124 -253 75 -232 q 222 -275 174 -275 q 324 -213 324 -275 q 236 -151 324 -151 l 211 -151 q 176 -126 176 -151 q 182 -100 176 -115 l 226 14 l 367 14 l 329 -86 l 331 -86 z "},"¹":{"ha":349,"x_min":33,"x_max":299,"o":"m 269 950 l 269 518 q 299 461 269 472 q 217 426 264 426 q 126 522 126 426 l 126 915 q 102 940 126 940 q 53 922 78 940 q 33 955 33 929 q 75 1008 33 981 q 169 1036 117 1036 q 269 950 269 1036 z "},"º":{"ha":564,"x_min":50,"x_max":514,"o":"m 357 782 q 272 961 357 961 q 207 849 207 961 q 208 817 207 833 q 292 672 218 672 q 357 782 357 672 m 114 979 q 146 1008 114 979 q 282 1036 178 1036 q 450 979 386 1036 q 514 817 514 922 q 450 655 514 711 q 282 599 386 599 q 114 655 178 599 q 50 817 50 711 q 114 979 50 922 z "},"»":{"ha":814,"x_min":50,"x_max":764,"o":"m 557 845 q 597 813 557 845 q 701 696 638 781 q 764 562 764 611 q 701 428 764 513 q 557 278 638 343 q 431 214 476 214 q 400 224 414 214 q 383 243 386 235 q 524 445 486 379 q 561 562 561 511 q 524 677 561 613 q 383 881 488 742 q 400 899 386 889 q 431 910 414 910 q 557 845 476 910 m 224 845 q 264 813 224 845 q 367 696 304 781 q 431 562 431 611 q 367 428 431 513 q 224 278 304 343 q 97 214 143 214 q 67 224 81 214 q 50 243 53 235 q 190 445 153 379 q 228 562 228 511 q 191 677 228 613 q 50 881 154 742 q 67 899 53 889 q 97 910 81 910 q 224 845 143 910 z "},"¼":{"ha":957,"x_min":42,"x_max":953,"o":"m 135 522 l 135 915 q 110 940 135 940 q 61 922 86 940 q 42 955 42 929 q 83 1008 42 981 q 178 1036 125 1036 q 278 950 278 1036 l 278 518 q 307 461 278 472 q 225 426 272 426 q 135 522 135 426 m 715 986 q 774 1036 746 1036 q 824 1007 803 1036 q 789 958 810 1000 l 210 42 q 191 14 203 29 q 175 -4 179 -1 q 151 -11 164 -11 q 101 19 119 -11 q 136 67 115 31 l 715 986 m 600 231 l 699 231 l 699 433 q 689 447 699 447 q 618 367 669 447 q 567 249 567 288 q 600 231 567 231 m 864 143 l 844 143 l 844 83 q 874 26 844 38 q 792 -8 839 -8 q 699 86 699 -8 l 699 143 l 533 143 q 451 206 451 143 q 503 344 451 250 q 631 520 554 439 q 764 601 707 601 q 844 506 844 601 l 844 231 l 874 231 q 936 244 918 231 q 953 204 953 228 q 928 162 953 181 q 864 143 904 143 z "},"½":{"ha":1069,"x_min":42,"x_max":1036,"o":"m 135 522 l 135 915 q 110 940 135 940 q 61 922 86 940 q 42 955 42 929 q 83 1008 42 981 q 178 1036 125 1036 q 278 950 278 1036 l 278 518 q 307 461 278 472 q 225 426 272 426 q 135 522 135 426 m 715 986 q 774 1036 746 1036 q 824 1007 803 1036 q 789 958 810 1000 l 210 42 q 191 14 203 29 q 175 -4 179 -1 q 151 -11 164 -11 q 101 19 119 -11 q 136 67 115 31 l 715 986 m 893 0 l 647 0 q 567 29 592 0 q 550 67 550 47 q 557 107 550 88 q 826 326 768 222 q 853 422 853 374 q 774 524 853 524 q 733 509 747 524 q 719 475 719 494 q 774 419 719 439 q 672 372 746 372 q 594 394 628 372 q 561 458 561 417 q 630 560 561 518 q 793 601 699 601 q 949 549 888 601 q 1010 417 1010 497 q 929 253 1010 336 q 694 110 849 171 q 890 124 806 124 q 1036 43 1036 124 q 1015 -11 1036 15 q 893 0 969 0 z "},"¾":{"ha":1015,"x_min":42,"x_max":1018,"o":"m 489 626 q 403 490 489 553 q 235 426 318 426 q 97 460 153 426 q 42 540 42 493 q 72 619 42 588 q 118 650 101 650 q 261 551 156 551 q 332 570 306 551 q 358 621 358 589 q 319 681 358 653 q 200 710 279 710 q 160 707 179 710 q 149 734 149 717 q 172 768 149 751 q 224 796 196 785 q 276 827 253 807 q 300 874 300 847 q 275 916 300 900 q 206 932 250 932 q 118 901 163 932 q 89 948 89 910 q 140 1011 89 986 q 274 1036 192 1036 q 408 1001 357 1036 q 460 907 460 965 q 430 835 460 867 q 353 790 400 804 q 450 728 411 772 q 489 626 489 683 m 826 983 q 898 1036 863 1036 q 950 1001 933 1036 q 900 958 924 993 l 274 42 q 202 -11 238 -11 q 150 24 167 -11 q 200 67 176 32 l 826 983 m 665 231 l 764 231 l 764 433 q 753 447 764 447 q 683 367 733 447 q 632 249 632 288 q 665 231 632 231 m 928 143 l 910 143 l 910 83 q 939 26 910 38 q 857 -8 904 -8 q 764 86 764 -8 l 764 143 l 599 143 q 517 206 517 143 q 568 344 517 250 q 695 520 619 439 q 828 601 771 601 q 910 506 910 601 l 910 231 l 939 231 q 1001 244 983 231 q 1018 204 1018 228 q 993 162 1018 181 q 928 143 968 143 z "},"¿":{"ha":815,"x_min":108,"x_max":772,"o":"m 269 124 q 288 141 269 124 q 331 194 306 158 q 357 260 357 231 q 337 311 357 289 q 283 340 317 333 q 319 403 288 379 q 403 428 350 428 q 499 388 457 428 q 542 278 542 347 q 467 119 542 197 q 406 53 436 88 q 331 -135 331 -32 q 365 -226 331 -192 q 451 -260 400 -260 q 551 -181 551 -260 q 530 -121 551 -147 q 478 -83 508 -94 q 522 -28 478 -64 q 627 7 565 7 q 731 -36 689 7 q 772 -143 772 -79 q 670 -307 772 -244 q 431 -369 568 -369 q 201 -306 294 -369 q 108 -139 108 -243 q 197 53 108 -35 q 269 124 233 90 m 397 497 q 370 497 397 497 q 312 525 343 497 q 281 601 281 553 q 327 692 281 650 q 428 733 374 733 q 515 705 483 733 q 547 628 547 676 q 499 539 547 581 q 397 497 451 497 z "},"À":{"ha":1031,"x_min":50,"x_max":1003,"o":"m 457 1122 l 533 1253 q 615 1356 576 1326 q 712 1386 654 1386 q 796 1333 769 1386 q 808 1282 808 1310 q 790 1221 808 1254 q 750 1226 775 1226 q 688 1197 725 1226 l 575 1111 q 512 1088 549 1088 q 457 1122 475 1088 m 400 328 l 617 328 l 515 685 l 400 328 m 1003 64 q 947 6 986 28 q 853 -15 907 -15 q 764 12 799 -15 q 701 108 729 39 l 668 194 l 353 194 l 318 97 q 186 -15 279 -15 q 102 5 142 -15 q 50 56 63 25 q 90 88 74 65 q 125 160 106 111 l 410 894 q 356 969 385 949 q 489 1036 399 1036 q 590 999 558 1036 q 658 864 622 961 l 907 192 q 1003 64 943 93 z "},"Á":{"ha":1031,"x_min":50,"x_max":1003,"o":"m 624 1122 q 569 1088 606 1088 q 506 1111 532 1088 l 393 1197 q 331 1226 356 1226 q 290 1221 306 1226 q 272 1282 272 1254 q 285 1333 272 1310 q 369 1386 311 1386 q 465 1356 426 1386 q 547 1253 504 1326 l 624 1122 m 400 328 l 617 328 l 515 685 l 400 328 m 1003 64 q 947 6 986 28 q 853 -15 907 -15 q 764 12 799 -15 q 701 108 729 39 l 668 194 l 353 194 l 318 97 q 186 -15 279 -15 q 102 5 142 -15 q 50 56 63 25 q 90 88 74 65 q 125 160 106 111 l 410 894 q 356 969 385 949 q 489 1036 399 1036 q 590 999 558 1036 q 658 864 622 961 l 907 192 q 1003 64 943 93 z "},"Â":{"ha":1031,"x_min":50,"x_max":1003,"o":"m 383 1111 q 320 1088 358 1088 q 265 1122 282 1088 l 367 1271 q 435 1349 406 1325 q 515 1374 465 1374 q 595 1349 565 1374 q 664 1271 625 1325 l 765 1122 q 710 1088 749 1088 q 647 1111 672 1088 l 515 1225 l 383 1111 m 400 328 l 617 328 l 515 685 l 400 328 m 1003 64 q 947 6 986 28 q 853 -15 907 -15 q 764 12 799 -15 q 701 108 729 39 l 668 194 l 353 194 l 318 97 q 186 -15 279 -15 q 102 5 142 -15 q 50 56 63 25 q 90 88 74 65 q 125 160 106 111 l 410 894 q 356 969 385 949 q 489 1036 399 1036 q 590 999 558 1036 q 658 864 622 961 l 907 192 q 1003 64 943 93 z "},"Ã":{"ha":1031,"x_min":50,"x_max":1003,"o":"m 326 1129 q 282 1149 301 1129 q 263 1210 263 1168 q 311 1318 263 1274 q 421 1363 360 1363 q 549 1324 482 1363 q 649 1285 615 1285 q 706 1306 683 1285 q 729 1365 729 1326 q 776 1342 758 1364 q 793 1286 793 1319 q 742 1176 793 1219 q 631 1132 692 1132 q 499 1172 571 1132 q 399 1211 426 1211 q 349 1190 371 1211 q 326 1129 326 1168 m 400 328 l 617 328 l 515 685 l 400 328 m 1003 64 q 947 6 986 28 q 853 -15 907 -15 q 764 12 799 -15 q 701 108 729 39 l 668 194 l 353 194 l 318 97 q 186 -15 279 -15 q 102 5 142 -15 q 50 56 63 25 q 90 88 74 65 q 125 160 106 111 l 410 894 q 356 969 385 949 q 489 1036 399 1036 q 590 999 558 1036 q 658 864 622 961 l 907 192 q 1003 64 943 93 z "},"Ä":{"ha":1031,"x_min":50,"x_max":1003,"o":"m 772 1242 q 772 1218 772 1242 q 732 1154 772 1194 q 644 1114 692 1114 q 569 1142 596 1114 q 542 1216 542 1169 q 583 1303 542 1263 q 672 1344 625 1344 q 745 1317 718 1344 q 772 1242 772 1289 m 489 1242 q 489 1218 489 1242 q 449 1154 489 1194 q 360 1114 408 1114 q 285 1142 313 1114 q 258 1216 258 1169 q 300 1303 258 1263 q 388 1344 342 1344 q 462 1317 435 1344 q 489 1242 489 1289 m 400 328 l 617 328 l 515 685 l 400 328 m 1003 64 q 947 6 986 28 q 853 -15 907 -15 q 764 12 799 -15 q 701 108 729 39 l 668 194 l 353 194 l 318 97 q 186 -15 279 -15 q 102 5 142 -15 q 50 56 63 25 q 90 88 74 65 q 125 160 106 111 l 410 894 q 356 969 385 949 q 489 1036 399 1036 q 590 999 558 1036 q 658 864 622 961 l 907 192 q 1003 64 943 93 z "},"Å":{"ha":1031,"x_min":50,"x_max":1003,"o":"m 457 1261 q 524 1161 457 1161 q 572 1226 572 1161 q 572 1240 572 1233 q 507 1321 564 1321 q 457 1261 457 1321 m 628 1144 q 606 1127 628 1144 q 515 1110 583 1110 q 402 1144 447 1110 q 357 1241 357 1178 q 402 1338 357 1304 q 515 1372 447 1372 q 628 1338 583 1372 q 674 1241 674 1304 q 628 1144 674 1178 m 400 328 l 617 328 l 515 685 l 400 328 m 1003 64 q 947 6 986 28 q 853 -15 907 -15 q 764 12 799 -15 q 701 108 729 39 l 668 194 l 353 194 l 318 97 q 186 -15 279 -15 q 102 5 142 -15 q 50 56 63 25 q 90 88 74 65 q 125 160 106 111 l 410 894 q 356 969 385 949 q 489 1036 399 1036 q 590 999 558 1036 q 658 864 622 961 l 907 192 q 1003 64 943 93 z "},"Æ":{"ha":1493,"x_min":17,"x_max":1410,"o":"m 661 407 l 661 842 l 451 407 l 661 407 m 944 178 l 1190 178 q 1365 233 1289 178 q 1410 135 1410 196 q 1365 37 1410 74 q 1232 0 1321 0 l 918 0 q 661 201 661 0 l 661 228 l 365 228 l 306 103 q 161 -8 251 -8 q 75 13 115 -8 q 17 65 35 33 q 58 98 42 78 q 100 167 75 118 l 465 881 q 553 990 504 957 q 689 1022 601 1022 l 1206 1022 q 1363 994 1315 1022 q 1410 910 1410 965 q 1365 817 1410 854 q 1190 843 1300 843 l 881 843 l 881 635 l 1072 635 q 1230 611 1183 635 q 1276 531 1276 588 q 1232 440 1276 475 q 1057 457 1182 457 l 881 457 l 881 240 q 944 178 881 178 z "},"Ç":{"ha":1025,"x_min":86,"x_max":933,"o":"m 86 501 q 218 890 86 744 q 576 1036 350 1036 q 826 977 722 1036 q 931 832 931 918 q 886 740 931 769 q 779 710 842 710 q 669 739 717 710 q 675 802 675 767 q 656 868 675 838 q 557 914 625 914 q 386 810 457 914 q 315 523 315 707 q 392 260 315 339 q 606 181 469 181 q 765 220 689 181 q 885 314 840 260 q 933 228 933 293 q 827 69 933 147 q 571 -15 721 -8 l 544 -86 l 546 -86 q 722 -214 722 -86 q 649 -325 722 -281 q 469 -369 575 -369 q 299 -331 364 -369 q 233 -243 233 -293 q 264 -190 233 -208 q 340 -253 290 -232 q 439 -275 389 -275 q 539 -213 539 -275 q 451 -151 539 -151 l 426 -151 q 392 -126 392 -151 q 397 -100 392 -115 l 435 -4 q 177 160 268 29 q 86 501 86 290 z "},"È":{"ha":994,"x_min":117,"x_max":911,"o":"m 474 1122 l 550 1253 q 632 1356 593 1326 q 728 1386 671 1386 q 813 1333 786 1386 q 825 1282 825 1310 q 807 1221 825 1254 q 767 1226 792 1226 q 704 1197 742 1226 l 592 1111 q 528 1088 565 1088 q 474 1122 492 1088 m 468 178 l 692 178 q 867 233 790 178 q 911 135 911 196 q 867 37 911 74 q 733 0 822 0 l 432 0 q 228 60 293 0 q 164 249 164 119 l 164 865 q 117 961 164 936 q 243 1022 168 1022 l 707 1022 q 864 994 817 1022 q 911 910 911 965 q 867 817 911 854 q 692 843 800 843 l 382 843 l 382 635 l 574 635 q 731 611 685 635 q 778 531 778 588 q 733 440 778 475 q 558 457 683 457 l 382 457 l 382 276 q 468 178 382 178 z "},"É":{"ha":994,"x_min":117,"x_max":911,"o":"m 640 1122 q 585 1088 622 1088 q 522 1111 549 1088 l 410 1197 q 347 1226 372 1226 q 307 1221 322 1226 q 289 1282 289 1254 q 301 1333 289 1310 q 385 1386 328 1386 q 482 1356 443 1386 q 564 1253 521 1326 l 640 1122 m 468 178 l 692 178 q 867 233 790 178 q 911 135 911 196 q 867 37 911 74 q 733 0 822 0 l 432 0 q 228 60 293 0 q 164 249 164 119 l 164 865 q 117 961 164 936 q 243 1022 168 1022 l 707 1022 q 864 994 817 1022 q 911 910 911 965 q 867 817 911 854 q 692 843 800 843 l 382 843 l 382 635 l 574 635 q 731 611 685 635 q 778 531 778 588 q 733 440 778 475 q 558 457 683 457 l 382 457 l 382 276 q 468 178 382 178 z "},"Ê":{"ha":994,"x_min":117,"x_max":911,"o":"m 400 1111 q 337 1088 375 1088 q 282 1122 299 1088 l 383 1271 q 452 1349 422 1325 q 532 1374 482 1374 q 612 1349 582 1374 q 681 1271 642 1325 l 782 1122 q 727 1088 765 1088 q 664 1111 689 1088 l 532 1225 l 400 1111 m 468 178 l 692 178 q 867 233 790 178 q 911 135 911 196 q 867 37 911 74 q 733 0 822 0 l 432 0 q 228 60 293 0 q 164 249 164 119 l 164 865 q 117 961 164 936 q 243 1022 168 1022 l 707 1022 q 864 994 817 1022 q 911 910 911 965 q 867 817 911 854 q 692 843 800 843 l 382 843 l 382 635 l 574 635 q 731 611 685 635 q 778 531 778 588 q 733 440 778 475 q 558 457 683 457 l 382 457 l 382 276 q 468 178 382 178 z "},"Ë":{"ha":994,"x_min":117,"x_max":911,"o":"m 789 1242 q 789 1218 789 1242 q 749 1154 789 1194 q 660 1114 708 1114 q 585 1142 613 1114 q 558 1216 558 1169 q 600 1303 558 1263 q 688 1344 642 1344 q 762 1317 735 1344 q 789 1242 789 1289 m 506 1242 q 506 1218 506 1242 q 465 1154 506 1194 q 377 1114 425 1114 q 302 1142 329 1114 q 275 1216 275 1169 q 317 1303 275 1263 q 405 1344 358 1344 q 478 1317 451 1344 q 506 1242 506 1289 m 468 178 l 692 178 q 867 233 790 178 q 911 135 911 196 q 867 37 911 74 q 733 0 822 0 l 432 0 q 228 60 293 0 q 164 249 164 119 l 164 865 q 117 961 164 936 q 243 1022 168 1022 l 707 1022 q 864 994 817 1022 q 911 910 911 965 q 867 817 911 854 q 692 843 800 843 l 382 843 l 382 635 l 574 635 q 731 611 685 635 q 778 531 778 588 q 733 440 778 475 q 558 457 683 457 l 382 457 l 382 276 q 468 178 382 178 z "},"Ì":{"ha":524,"x_min":107,"x_max":554,"o":"m 279 1253 q 361 1356 322 1326 q 458 1386 400 1386 q 542 1333 515 1386 q 554 1282 554 1310 q 536 1221 554 1254 q 496 1226 521 1226 q 433 1197 471 1226 l 321 1111 q 261 1088 294 1088 q 203 1122 221 1088 l 279 1253 m 372 872 l 372 143 q 417 44 372 68 q 292 -15 364 -15 q 186 25 219 -15 q 153 150 153 65 l 153 881 q 107 976 153 953 q 233 1036 157 1036 q 372 872 372 1036 z "},"Í":{"ha":524,"x_min":18,"x_max":417,"o":"m 369 1122 q 315 1088 351 1088 q 251 1111 278 1088 l 139 1197 q 76 1226 101 1226 q 36 1221 51 1226 q 18 1282 18 1254 q 31 1333 18 1310 q 115 1386 57 1386 q 211 1356 172 1386 q 293 1253 250 1326 l 369 1122 m 372 872 l 372 143 q 417 44 372 68 q 292 -15 364 -15 q 186 25 219 -15 q 153 150 153 65 l 153 881 q 107 976 153 953 q 233 1036 157 1036 q 372 872 372 1036 z "},"Î":{"ha":524,"x_min":11,"x_max":511,"o":"m 372 872 l 372 143 q 417 44 372 68 q 292 -15 364 -15 q 186 25 219 -15 q 153 150 153 65 l 153 881 q 107 976 153 953 q 233 1036 157 1036 q 372 872 372 1036 m 511 1122 q 456 1088 494 1088 q 393 1111 418 1088 l 261 1225 l 129 1111 q 66 1088 104 1088 q 11 1122 28 1088 l 113 1271 q 181 1349 151 1325 q 261 1374 211 1374 q 341 1349 311 1374 q 410 1271 371 1325 l 511 1122 z "},"Ï":{"ha":524,"x_min":4,"x_max":518,"o":"m 417 1344 q 441 1344 417 1344 q 491 1317 464 1344 q 518 1242 518 1289 q 477 1154 518 1194 q 389 1114 436 1114 q 315 1142 342 1114 q 288 1216 288 1169 q 329 1303 288 1263 q 417 1344 371 1344 m 134 1344 q 157 1344 134 1344 q 208 1317 181 1344 q 235 1242 235 1289 q 194 1154 235 1194 q 106 1114 153 1114 q 31 1142 58 1114 q 4 1216 4 1169 q 46 1303 4 1263 q 134 1344 88 1344 m 372 872 l 372 143 q 417 44 372 68 q 292 -15 364 -15 q 186 25 219 -15 q 153 150 153 65 l 153 881 q 107 976 153 953 q 233 1036 157 1036 q 372 872 372 1036 z "},"Ð":{"ha":1165,"x_min":-7,"x_max":1033,"o":"m 364 457 l 364 219 q 502 133 364 133 q 724 236 640 133 q 808 510 808 339 q 724 785 808 681 q 494 889 640 889 q 364 864 431 889 l 364 569 l 614 569 q 619 544 619 564 q 494 457 619 457 l 364 457 m 144 569 l 144 811 q 107 964 144 907 q 494 1036 306 1036 q 884 897 735 1036 q 1033 510 1033 758 q 884 124 1033 263 q 494 -15 735 -15 q 229 44 314 -15 q 144 235 144 103 l 144 457 l 0 457 q -7 486 -7 467 q 118 569 -7 569 l 144 569 z "},"Ñ":{"ha":1189,"x_min":107,"x_max":1082,"o":"m 500 1363 q 531 1363 500 1363 q 628 1324 561 1363 q 728 1285 694 1285 q 785 1306 763 1285 q 808 1365 808 1326 q 855 1342 838 1364 q 872 1286 872 1319 q 822 1176 872 1219 q 710 1132 771 1132 q 578 1172 650 1132 q 478 1211 506 1211 q 428 1190 450 1211 q 406 1129 406 1168 q 361 1149 381 1129 q 342 1210 342 1168 q 390 1318 342 1274 q 500 1363 439 1363 m 153 150 l 153 881 q 107 976 153 953 q 257 1036 157 1036 q 453 914 379 1036 l 836 278 l 836 881 q 790 976 836 953 q 917 1036 840 1036 q 1056 872 1056 1036 l 1056 143 q 1082 25 1056 64 q 957 -15 1039 -15 q 813 34 875 -15 q 678 201 750 83 l 372 714 l 372 143 q 417 44 372 68 q 292 -15 364 -15 q 186 25 219 -15 q 153 150 153 65 z "},"Ò":{"ha":1103,"x_min":92,"x_max":1011,"o":"m 569 1253 q 651 1356 613 1326 q 748 1386 690 1386 q 832 1333 806 1386 q 844 1282 844 1310 q 826 1221 844 1254 q 786 1226 811 1226 q 724 1197 761 1226 l 611 1111 q 551 1088 585 1088 q 493 1122 511 1088 l 569 1253 m 575 122 q 747 231 697 122 q 786 450 786 318 q 785 511 786 479 q 713 793 775 686 q 528 900 650 900 q 317 568 317 900 q 436 176 317 289 q 575 122 493 122 m 907 883 q 933 846 907 883 q 985 717 960 810 q 1011 512 1011 625 q 985 306 1011 399 q 907 139 960 213 q 763 25 854 65 q 551 -15 672 -15 q 206 131 321 -15 q 92 511 92 278 q 206 890 92 744 q 551 1036 321 1036 q 764 996 674 1036 q 907 883 854 956 z "},"Ó":{"ha":1103,"x_min":92,"x_max":1011,"o":"m 575 122 q 747 231 697 122 q 786 450 786 318 q 785 511 786 479 q 713 793 775 686 q 528 900 650 900 q 317 568 317 900 q 436 176 317 289 q 575 122 493 122 m 907 883 q 933 846 907 883 q 985 717 960 810 q 1011 512 1011 625 q 985 306 1011 399 q 907 139 960 213 q 763 25 854 65 q 551 -15 672 -15 q 206 131 321 -15 q 92 511 92 278 q 206 890 92 744 q 551 1036 321 1036 q 764 996 674 1036 q 907 883 854 956 m 660 1122 q 605 1088 642 1088 q 542 1111 568 1088 l 429 1197 q 367 1226 392 1226 q 326 1221 342 1226 q 308 1282 308 1254 q 321 1333 308 1310 q 405 1386 347 1386 q 501 1356 463 1386 q 583 1253 540 1326 l 660 1122 z "},"Ô":{"ha":1103,"x_min":92,"x_max":1011,"o":"m 419 1111 q 356 1088 394 1088 q 301 1122 318 1088 l 403 1271 q 472 1349 442 1325 q 551 1374 501 1374 q 631 1349 601 1374 q 700 1271 661 1325 l 801 1122 q 747 1088 785 1088 q 683 1111 708 1088 l 551 1225 l 419 1111 m 575 122 q 747 231 697 122 q 786 450 786 318 q 785 511 786 479 q 713 793 775 686 q 528 900 650 900 q 317 568 317 900 q 436 176 317 289 q 575 122 493 122 m 551 1036 q 764 996 674 1036 q 907 883 854 956 q 1011 511 1011 739 q 907 139 1011 285 q 763 25 854 65 q 551 -15 672 -15 q 206 131 321 -15 q 92 511 92 278 q 206 890 92 744 q 551 1036 321 1036 z "},"Õ":{"ha":1103,"x_min":92,"x_max":1011,"o":"m 457 1363 q 488 1363 457 1363 q 585 1324 518 1363 q 685 1285 651 1285 q 742 1306 719 1285 q 765 1365 765 1326 q 812 1342 794 1364 q 829 1286 829 1319 q 778 1176 829 1219 q 667 1132 728 1132 q 535 1172 607 1132 q 435 1211 463 1211 q 385 1190 407 1211 q 363 1129 363 1168 q 318 1149 338 1129 q 299 1210 299 1168 q 347 1318 299 1274 q 457 1363 396 1363 m 575 122 q 747 231 697 122 q 786 450 786 318 q 785 511 786 479 q 713 793 775 686 q 528 900 650 900 q 317 568 317 900 q 436 176 317 289 q 575 122 493 122 m 907 883 q 933 846 907 883 q 985 717 960 810 q 1011 512 1011 625 q 985 306 1011 399 q 907 139 960 213 q 763 25 854 65 q 551 -15 672 -15 q 206 131 321 -15 q 92 511 92 278 q 206 890 92 744 q 551 1036 321 1036 q 764 996 674 1036 q 907 883 854 956 z "},"Ö":{"ha":1103,"x_min":92,"x_max":1011,"o":"m 575 122 q 747 231 697 122 q 786 450 786 318 q 785 511 786 479 q 713 793 775 686 q 528 900 650 900 q 317 568 317 900 q 436 176 317 289 q 575 122 493 122 m 907 883 q 933 846 907 883 q 985 717 960 810 q 1011 512 1011 625 q 985 306 1011 399 q 907 139 960 213 q 763 25 854 65 q 551 -15 672 -15 q 206 131 321 -15 q 92 511 92 278 q 206 890 92 744 q 551 1036 321 1036 q 764 996 674 1036 q 907 883 854 956 m 708 1344 q 731 1344 708 1344 q 781 1317 754 1344 q 808 1242 808 1289 q 768 1154 808 1194 q 680 1114 728 1114 q 605 1142 632 1114 q 578 1216 578 1169 q 619 1303 578 1263 q 708 1344 661 1344 m 424 1344 q 448 1344 424 1344 q 498 1317 471 1344 q 525 1242 525 1289 q 485 1154 525 1194 q 397 1114 444 1114 q 322 1142 349 1114 q 294 1216 294 1169 q 336 1303 294 1263 q 424 1344 378 1344 z "},"×":{"ha":1064,"x_min":119,"x_max":943,"o":"m 826 178 q 675 275 756 178 l 507 469 l 303 235 q 209 176 253 176 q 143 222 165 176 l 433 556 l 119 917 q 170 972 138 953 q 233 992 203 992 q 386 894 301 992 l 557 699 l 761 933 q 768 941 763 935 q 776 950 774 947 q 786 959 779 953 q 797 969 793 965 q 809 978 801 974 q 822 986 817 983 q 851 992 839 992 q 922 949 900 992 l 631 611 l 943 250 q 891 197 926 215 q 826 178 856 178 z "},"Ø":{"ha":1156,"x_min":58,"x_max":1111,"o":"m 389 235 q 577 124 457 124 q 747 231 697 124 q 786 451 786 319 q 768 643 786 561 l 389 235 m 526 901 q 357 794 406 901 q 317 569 317 706 q 350 324 317 428 l 739 742 q 526 901 672 901 m 958 978 q 1057 1036 1011 1036 q 1111 990 1103 1036 q 1008 901 1071 967 l 942 831 q 1011 513 1011 704 q 907 140 1011 286 q 763 26 854 67 q 551 -14 672 -14 q 251 86 367 -14 l 211 43 q 114 -15 158 -15 q 79 -3 94 -15 q 58 32 64 10 q 161 119 97 53 l 192 151 q 92 518 92 290 q 206 892 92 746 q 547 1038 321 1038 q 890 904 772 1038 l 958 978 z "},"Ù":{"ha":1051,"x_min":83,"x_max":968,"o":"m 561 1253 q 643 1356 604 1326 q 740 1386 682 1386 q 824 1333 797 1386 q 836 1282 836 1310 q 818 1221 836 1254 q 778 1226 803 1226 q 715 1197 753 1226 l 603 1111 q 543 1088 576 1088 q 485 1122 503 1088 l 561 1253 m 131 365 l 131 881 q 83 976 131 951 q 209 1036 136 1036 q 315 996 282 1036 q 349 872 349 956 l 349 333 q 404 194 349 242 q 549 147 460 147 q 694 194 639 147 q 750 333 750 242 l 750 881 q 703 976 750 951 q 831 1036 756 1036 q 968 872 968 1036 l 968 365 q 865 85 968 186 q 549 -15 761 -15 q 233 85 336 -15 q 131 365 131 186 z "},"Ú":{"ha":1051,"x_min":83,"x_max":968,"o":"m 131 365 l 131 881 q 83 976 131 951 q 209 1036 136 1036 q 315 996 282 1036 q 349 872 349 956 l 349 333 q 404 194 349 242 q 549 147 460 147 q 694 194 639 147 q 750 333 750 242 l 750 881 q 703 976 750 951 q 831 1036 756 1036 q 968 872 968 1036 l 968 365 q 865 85 968 186 q 549 -15 761 -15 q 233 85 336 -15 q 131 365 131 186 m 651 1122 q 597 1088 633 1088 q 533 1111 560 1088 l 421 1197 q 358 1226 383 1226 q 318 1221 333 1226 q 300 1282 300 1254 q 313 1333 300 1310 q 397 1386 339 1386 q 493 1356 454 1386 q 575 1253 532 1326 l 651 1122 z "},"Û":{"ha":1051,"x_min":83,"x_max":968,"o":"m 411 1111 q 348 1088 386 1088 q 293 1122 310 1088 l 394 1271 q 463 1349 433 1325 q 543 1374 493 1374 q 623 1349 593 1374 q 692 1271 653 1325 l 793 1122 q 738 1088 776 1088 q 675 1111 700 1088 l 543 1225 l 411 1111 m 750 333 l 750 881 q 703 976 750 951 q 831 1036 756 1036 q 968 872 968 1036 l 968 365 q 865 85 968 186 q 549 -15 761 -15 q 233 85 336 -15 q 131 365 131 186 l 131 881 q 83 976 131 951 q 209 1036 136 1036 q 315 996 282 1036 q 349 872 349 956 l 349 333 q 404 194 349 242 q 549 147 460 147 q 694 194 639 147 q 750 333 750 242 z "},"Ü":{"ha":1051,"x_min":83,"x_max":968,"o":"m 131 365 l 131 881 q 83 976 131 951 q 209 1036 136 1036 q 315 996 282 1036 q 349 872 349 956 l 349 333 q 404 194 349 242 q 549 147 460 147 q 694 194 639 147 q 750 333 750 242 l 750 881 q 703 976 750 951 q 831 1036 756 1036 q 968 872 968 1036 l 968 365 q 865 85 968 186 q 549 -15 761 -15 q 233 85 336 -15 q 131 365 131 186 m 699 1344 q 723 1344 699 1344 q 773 1317 746 1344 q 800 1242 800 1289 q 760 1154 800 1194 q 672 1114 719 1114 q 597 1142 624 1114 q 569 1216 569 1169 q 611 1303 569 1263 q 699 1344 653 1344 m 416 1344 q 439 1344 416 1344 q 490 1317 463 1344 q 517 1242 517 1289 q 476 1154 517 1194 q 388 1114 436 1114 q 313 1142 340 1114 q 286 1216 286 1169 q 328 1303 286 1263 q 416 1344 369 1344 z "},"Ý":{"ha":910,"x_min":8,"x_max":899,"o":"m 564 1122 q 509 1088 546 1088 q 446 1111 472 1088 l 333 1197 q 271 1226 296 1226 q 231 1221 246 1226 q 213 1282 213 1254 q 225 1333 213 1310 q 309 1386 251 1386 q 406 1356 367 1386 q 488 1253 444 1326 l 564 1122 m 590 14 q 478 -10 539 -10 q 384 32 418 -10 q 350 156 350 74 l 351 443 l 94 865 q 8 925 60 921 q 149 1036 44 1036 q 240 1002 201 1036 q 318 901 278 968 l 478 639 l 633 840 q 669 928 669 888 q 636 1003 669 968 q 762 1036 703 1036 q 860 1006 821 1036 q 899 919 899 975 q 847 800 899 864 l 568 444 l 567 132 q 590 14 567 57 z "},"Þ":{"ha":943,"x_min":107,"x_max":926,"o":"m 372 413 q 519 386 439 386 q 652 432 599 386 q 706 557 706 478 q 653 681 706 636 q 519 726 600 726 q 372 700 439 726 l 372 413 m 372 872 l 372 831 q 565 867 453 867 q 822 781 717 867 q 926 557 926 694 q 822 333 926 419 q 565 247 717 247 q 372 283 453 247 l 372 143 q 417 44 372 68 q 292 -15 364 -15 q 186 25 219 -15 q 153 150 153 65 l 153 881 q 107 976 153 953 q 233 1036 157 1036 q 372 872 372 1036 z "},"ß":{"ha":917,"x_min":92,"x_max":867,"o":"m 867 265 q 793 65 867 144 q 599 -15 719 -15 q 470 24 514 -15 q 426 117 426 64 q 435 161 426 139 q 531 131 476 131 q 642 225 642 131 q 624 299 642 268 q 576 357 607 329 q 500 427 546 385 q 432 493 454 469 q 410 531 410 517 q 428 564 410 544 q 469 606 447 583 q 509 668 490 628 q 528 760 528 708 q 499 844 528 813 q 422 876 469 876 q 342 842 375 876 q 310 735 310 808 l 310 143 q 356 44 310 68 q 228 -15 303 -15 q 92 150 92 -15 l 92 735 q 184 939 92 868 q 426 1010 276 1010 q 665 936 576 1010 q 753 754 753 863 q 642 572 753 646 l 719 514 q 867 265 867 407 z "},"à":{"ha":790,"x_min":56,"x_max":765,"o":"m 353 826 l 429 957 q 511 1060 472 1031 q 608 1090 550 1090 q 692 1039 665 1090 q 704 987 704 1015 q 686 925 704 958 q 646 931 671 931 q 583 901 621 931 l 471 815 q 408 792 444 792 q 353 826 371 792 m 472 310 q 292 190 292 300 q 369 122 292 122 q 472 175 426 122 l 472 310 m 690 492 l 690 176 q 765 65 690 89 q 698 8 740 31 q 608 -15 656 -15 q 481 76 506 -15 q 265 -15 394 -15 q 113 32 169 -15 q 56 165 56 79 q 166 334 56 271 q 472 400 276 397 l 472 532 q 397 625 472 625 q 347 606 367 625 q 326 556 326 588 q 349 499 326 525 q 230 449 301 449 q 124 481 158 449 q 90 564 90 513 q 185 692 90 642 q 408 742 281 742 q 613 682 535 742 q 690 492 690 622 z "},"á":{"ha":790,"x_min":56,"x_max":765,"o":"m 519 826 q 465 792 501 792 q 401 815 428 792 l 289 901 q 226 931 251 931 q 186 925 201 931 q 168 987 168 958 q 181 1039 168 1015 q 265 1090 207 1090 q 361 1060 322 1090 q 443 957 400 1031 l 519 826 m 472 310 q 292 190 292 300 q 369 122 292 122 q 472 175 426 122 l 472 310 m 690 492 l 690 176 q 765 65 690 89 q 698 8 740 31 q 608 -15 656 -15 q 481 76 506 -15 q 265 -15 394 -15 q 113 32 169 -15 q 56 165 56 79 q 166 334 56 271 q 472 400 276 397 l 472 532 q 397 625 472 625 q 347 606 367 625 q 326 556 326 588 q 349 499 326 525 q 230 449 301 449 q 124 481 158 449 q 90 564 90 513 q 185 692 90 642 q 408 742 281 742 q 613 682 535 742 q 690 492 690 622 z "},"â":{"ha":790,"x_min":56,"x_max":765,"o":"m 279 815 q 216 792 254 792 q 161 826 178 792 l 263 975 q 331 1053 301 1029 q 411 1078 361 1078 q 491 1053 461 1078 q 560 975 521 1029 l 661 826 q 606 792 644 792 q 543 815 568 792 l 411 929 l 279 815 m 292 190 q 369 122 292 122 q 472 175 426 122 l 472 310 q 292 190 292 300 m 690 492 l 690 176 q 765 65 690 89 q 698 8 740 31 q 608 -15 656 -15 q 481 76 506 -15 q 265 -15 394 -15 q 113 32 169 -15 q 56 165 56 79 q 166 334 56 271 q 472 400 276 397 l 472 532 q 397 625 472 625 q 347 606 367 625 q 326 556 326 588 q 349 499 326 525 q 230 449 301 449 q 124 481 158 449 q 90 564 90 513 q 185 692 90 642 q 408 742 281 742 q 613 682 535 742 q 690 492 690 622 z "},"ã":{"ha":790,"x_min":56,"x_max":765,"o":"m 222 833 q 178 853 197 833 q 158 914 158 872 q 207 1022 158 978 q 317 1067 256 1067 q 444 1028 378 1067 q 545 989 511 989 q 602 1010 579 989 q 625 1069 625 1031 q 672 1046 654 1068 q 689 990 689 1024 q 638 880 689 924 q 527 836 588 836 q 394 876 467 836 q 294 915 322 915 q 244 894 267 915 q 222 833 222 872 m 292 190 q 369 122 292 122 q 472 175 426 122 l 472 310 q 292 190 292 300 m 690 492 l 690 176 q 765 65 690 89 q 698 8 740 31 q 608 -15 656 -15 q 481 76 506 -15 q 265 -15 394 -15 q 113 32 169 -15 q 56 165 56 79 q 166 334 56 271 q 472 400 276 397 l 472 532 q 397 625 472 625 q 347 606 367 625 q 326 556 326 588 q 349 499 326 525 q 230 449 301 449 q 124 481 158 449 q 90 564 90 513 q 185 692 90 642 q 408 742 281 742 q 613 682 535 742 q 690 492 690 622 z "},"ä":{"ha":790,"x_min":56,"x_max":765,"o":"m 668 947 q 668 923 668 947 q 627 859 668 900 q 539 818 586 818 q 465 846 492 818 q 438 920 438 874 q 479 1008 438 967 q 567 1049 521 1049 q 641 1021 614 1049 q 668 947 668 993 m 385 947 q 385 923 385 947 q 344 859 385 900 q 256 818 303 818 q 181 846 208 818 q 154 920 154 874 q 196 1008 154 967 q 284 1049 238 1049 q 358 1021 331 1049 q 385 947 385 993 m 292 190 q 369 122 292 122 q 472 175 426 122 l 472 310 q 292 190 292 300 m 690 492 l 690 176 q 765 65 690 89 q 698 8 740 31 q 608 -15 656 -15 q 481 76 506 -15 q 265 -15 394 -15 q 113 32 169 -15 q 56 165 56 79 q 166 334 56 271 q 472 400 276 397 l 472 532 q 397 625 472 625 q 347 606 367 625 q 326 556 326 588 q 349 499 326 525 q 230 449 301 449 q 124 481 158 449 q 90 564 90 513 q 185 692 90 642 q 408 742 281 742 q 613 682 535 742 q 690 492 690 622 z "},"å":{"ha":790,"x_min":56,"x_max":765,"o":"m 353 965 q 419 865 353 865 q 468 931 468 865 q 468 944 468 938 q 403 1025 460 1025 q 353 965 353 1025 m 524 848 q 502 831 524 848 q 411 814 479 814 q 298 848 343 814 q 253 945 253 882 q 298 1042 253 1008 q 411 1076 343 1076 q 524 1042 479 1076 q 569 945 569 1008 q 524 848 569 882 m 292 190 q 369 122 292 122 q 472 175 426 122 l 472 310 q 292 190 292 300 m 690 492 l 690 176 q 765 65 690 89 q 698 8 740 31 q 608 -15 656 -15 q 481 76 506 -15 q 265 -15 394 -15 q 113 32 169 -15 q 56 165 56 79 q 166 334 56 271 q 472 400 276 397 l 472 532 q 397 625 472 625 q 347 606 367 625 q 326 556 326 588 q 349 499 326 525 q 230 449 301 449 q 124 481 158 449 q 90 564 90 513 q 185 692 90 642 q 408 742 281 742 q 613 682 535 742 q 690 492 690 622 z "},"æ":{"ha":1147,"x_min":56,"x_max":1106,"o":"m 292 190 q 365 122 292 122 q 493 189 439 122 q 472 310 475 243 q 292 190 292 300 m 831 460 q 881 515 881 467 q 862 594 881 563 q 806 626 843 626 q 737 580 769 626 q 693 443 704 533 l 831 460 m 861 136 q 1056 224 975 136 q 1086 165 1086 211 q 1007 42 1086 99 q 822 -15 928 -15 q 546 94 639 -15 q 297 -15 443 -15 q 121 32 186 -15 q 56 165 56 79 q 166 334 56 271 q 472 400 276 397 l 472 532 q 397 625 472 625 q 347 606 367 625 q 326 556 326 588 q 349 499 326 525 q 230 449 301 449 q 124 481 158 449 q 90 564 90 513 q 183 692 90 642 q 389 742 275 742 q 613 663 533 742 q 828 742 707 742 q 1027 665 949 742 q 1106 489 1106 588 q 1069 379 1106 413 q 944 343 1032 346 l 689 336 q 861 136 699 136 z "},"ç":{"ha":726,"x_min":67,"x_max":676,"o":"m 67 333 q 172 620 67 499 q 443 742 278 742 q 606 697 536 742 q 676 576 676 651 q 644 497 676 525 q 560 468 613 468 q 465 500 507 468 q 469 544 469 517 q 453 594 469 572 q 410 617 438 617 q 316 543 356 617 q 276 360 276 469 q 324 194 276 251 q 450 136 372 136 q 643 224 565 136 q 675 165 675 211 q 600 42 675 96 q 421 -15 525 -12 l 394 -86 l 396 -86 q 572 -214 572 -86 q 499 -325 572 -281 q 319 -369 425 -369 q 149 -331 214 -369 q 83 -243 83 -293 q 114 -190 83 -208 q 190 -253 140 -232 q 289 -275 239 -275 q 389 -213 389 -275 q 301 -151 389 -151 l 276 -151 q 242 -126 242 -151 q 247 -100 242 -115 l 286 1 q 124 119 181 32 q 67 333 67 206 z "},"è":{"ha":742,"x_min":67,"x_max":707,"o":"m 356 826 l 432 957 q 514 1060 475 1031 q 610 1090 553 1090 q 694 1039 668 1090 q 707 987 707 1015 q 689 925 707 958 q 649 931 674 931 q 586 901 624 931 l 474 815 q 410 792 447 792 q 356 826 374 792 m 433 460 q 471 476 458 463 q 483 526 483 489 q 462 595 483 564 q 403 626 440 626 q 332 579 365 626 q 288 442 299 532 l 433 460 m 457 136 q 650 224 572 136 q 682 165 682 210 q 603 42 682 99 q 417 -15 524 -15 q 159 75 251 -15 q 67 334 67 165 q 168 622 67 503 q 425 742 269 742 q 622 665 544 742 q 700 489 700 588 q 664 379 700 413 q 540 343 628 346 l 283 336 q 457 136 293 136 z "},"é":{"ha":742,"x_min":67,"x_max":700,"o":"m 522 826 q 467 792 504 792 q 404 815 431 792 l 292 901 q 229 931 254 931 q 189 925 204 931 q 171 987 171 958 q 183 1039 171 1015 q 267 1090 210 1090 q 364 1060 325 1090 q 446 957 403 1031 l 522 826 m 433 460 q 471 476 458 463 q 483 526 483 489 q 462 595 483 564 q 403 626 440 626 q 332 579 365 626 q 288 442 299 532 l 433 460 m 457 136 q 650 224 572 136 q 682 165 682 210 q 603 42 682 99 q 417 -15 524 -15 q 159 75 251 -15 q 67 334 67 165 q 168 622 67 503 q 425 742 269 742 q 622 665 544 742 q 700 489 700 588 q 664 379 700 413 q 540 343 628 346 l 283 336 q 457 136 293 136 z "},"ê":{"ha":742,"x_min":67,"x_max":700,"o":"m 282 815 q 219 792 257 792 q 164 826 181 792 l 265 975 q 334 1053 304 1029 q 414 1078 364 1078 q 494 1053 464 1078 q 563 975 524 1029 l 664 826 q 609 792 647 792 q 546 815 571 792 l 414 929 l 282 815 m 433 460 q 471 476 458 463 q 483 526 483 489 q 462 595 483 564 q 403 626 440 626 q 332 579 365 626 q 288 442 299 532 l 433 460 m 457 136 q 650 224 572 136 q 682 165 682 210 q 603 42 682 99 q 417 -15 524 -15 q 159 75 251 -15 q 67 334 67 165 q 168 622 67 503 q 425 742 269 742 q 622 665 544 742 q 700 489 700 588 q 664 379 700 413 q 540 343 628 346 l 283 336 q 457 136 293 136 z "},"ë":{"ha":742,"x_min":67,"x_max":700,"o":"m 671 947 q 671 923 671 947 q 630 859 671 900 q 542 818 589 818 q 467 846 494 818 q 440 920 440 874 q 482 1008 440 967 q 570 1049 524 1049 q 644 1021 617 1049 q 671 947 671 993 m 388 947 q 388 923 388 947 q 347 859 388 900 q 258 818 306 818 q 184 846 211 818 q 157 920 157 874 q 199 1008 157 967 q 287 1049 240 1049 q 360 1021 333 1049 q 388 947 388 993 m 433 460 q 471 476 458 463 q 483 526 483 489 q 462 595 483 564 q 403 626 440 626 q 332 579 365 626 q 288 442 299 532 l 433 460 m 457 136 q 650 224 572 136 q 682 165 682 210 q 603 42 682 99 q 417 -15 524 -15 q 159 75 251 -15 q 67 334 67 165 q 168 622 67 503 q 425 742 269 742 q 622 665 544 742 q 700 489 700 588 q 664 379 700 413 q 540 343 628 346 l 283 336 q 457 136 293 136 z "},"ì":{"ha":426,"x_min":61,"x_max":507,"o":"m 232 957 q 314 1060 275 1031 q 410 1090 353 1090 q 494 1039 468 1090 q 507 987 507 1015 q 489 925 507 958 q 449 931 474 931 q 386 901 424 931 l 274 815 q 214 792 247 792 q 156 826 174 792 l 232 957 m 326 576 l 326 143 q 372 44 326 68 q 244 -15 319 -15 q 108 150 108 -15 l 108 585 q 61 682 108 657 q 187 742 114 742 q 293 701 260 742 q 326 576 326 661 z "},"í":{"ha":426,"x_min":-29,"x_max":372,"o":"m 326 576 l 326 143 q 372 44 326 68 q 244 -15 319 -15 q 108 150 108 -15 l 108 585 q 61 682 108 657 q 187 742 114 742 q 293 701 260 742 q 326 576 326 661 m 322 826 q 267 792 304 792 q 204 815 231 792 l 92 901 q 29 931 54 931 q -11 925 4 931 q -29 987 -29 958 q -17 1039 -29 1015 q 67 1090 10 1090 q 164 1060 125 1090 q 246 957 203 1031 l 322 826 z "},"î":{"ha":426,"x_min":-36,"x_max":464,"o":"m 326 576 l 326 143 q 372 44 326 68 q 244 -15 319 -15 q 108 150 108 -15 l 108 585 q 61 682 108 657 q 187 742 114 742 q 293 701 260 742 q 326 576 326 661 m 464 826 q 409 792 447 792 q 346 815 371 792 l 214 929 l 82 815 q 19 792 57 792 q -36 826 -19 792 l 65 975 q 134 1053 104 1029 q 214 1078 164 1078 q 294 1053 264 1078 q 363 975 324 1029 l 464 826 z "},"ï":{"ha":426,"x_min":-43,"x_max":471,"o":"m 326 576 l 326 143 q 372 44 326 68 q 244 -15 319 -15 q 108 150 108 -15 l 108 585 q 61 682 108 657 q 187 742 114 742 q 293 701 260 742 q 326 576 326 661 m 370 1049 q 393 1049 370 1049 q 444 1021 417 1049 q 471 947 471 993 q 430 859 471 900 q 342 818 389 818 q 267 846 294 818 q 240 920 240 874 q 282 1008 240 967 q 370 1049 324 1049 m 87 1049 q 110 1049 87 1049 q 160 1021 133 1049 q 188 947 188 993 q 147 859 188 900 q 58 818 106 818 q -16 846 11 818 q -43 920 -43 874 q -1 1008 -43 967 q 87 1049 40 1049 z "},"ð":{"ha":847,"x_min":67,"x_max":781,"o":"m 442 90 q 561 300 561 90 q 558 364 561 329 q 406 636 539 636 q 286 428 286 636 q 289 364 286 397 q 442 90 306 90 m 711 1044 q 729 1010 729 1031 q 722 974 729 989 q 689 944 714 958 q 594 908 653 924 q 728 662 676 801 q 781 397 781 522 q 747 188 781 271 q 657 64 713 106 q 424 -15 551 -15 q 165 83 264 -15 q 67 364 67 182 q 165 644 67 546 q 424 742 264 742 q 513 729 471 742 q 444 861 486 799 l 260 800 q 240 845 240 826 q 264 888 240 864 q 353 932 288 911 l 383 942 q 285 1042 329 1000 q 347 1083 306 1083 q 526 986 426 1083 l 711 1044 z "},"ñ":{"ha":883,"x_min":61,"x_max":828,"o":"m 263 833 q 218 853 238 833 q 199 914 199 872 q 247 1022 199 978 q 357 1067 296 1067 q 485 1028 418 1067 q 585 989 551 989 q 642 1010 619 989 q 665 1069 665 1031 q 712 1046 694 1068 q 729 990 729 1024 q 678 880 729 924 q 567 836 628 836 q 435 876 507 836 q 335 915 363 915 q 285 894 307 915 q 263 833 263 872 m 783 492 l 783 143 q 828 44 783 68 q 701 -15 778 -15 q 565 150 565 -15 l 565 460 q 541 538 565 510 q 472 567 517 567 q 386 526 428 567 q 326 404 344 485 l 326 143 q 372 44 326 68 q 244 -15 319 -15 q 108 150 108 -15 l 108 585 q 61 682 108 657 q 185 742 114 742 q 289 706 256 742 q 326 597 322 671 q 430 705 364 668 q 583 742 496 742 q 726 678 669 742 q 783 492 783 614 z "},"ò":{"ha":847,"x_min":67,"x_max":781,"o":"m 442 957 q 524 1060 485 1031 q 620 1090 563 1090 q 704 1039 678 1090 q 717 987 717 1015 q 699 925 717 958 q 658 931 683 931 q 596 901 633 931 l 483 815 q 424 792 457 792 q 365 826 383 792 l 442 957 m 406 636 q 286 428 286 636 q 289 364 286 397 q 442 90 306 90 q 561 300 561 90 q 558 364 561 329 q 406 636 539 636 m 165 644 q 215 693 165 644 q 424 742 264 742 q 682 644 583 742 q 781 364 781 546 q 681 83 781 182 q 423 -15 582 -15 q 165 83 264 -15 q 67 364 67 182 q 165 644 67 546 z "},"ó":{"ha":847,"x_min":67,"x_max":781,"o":"m 406 636 q 286 428 286 636 q 289 364 286 397 q 442 90 306 90 q 561 300 561 90 q 558 364 561 329 q 406 636 539 636 m 165 644 q 215 693 165 644 q 424 742 264 742 q 682 644 583 742 q 781 364 781 546 q 681 83 781 182 q 423 -15 582 -15 q 165 83 264 -15 q 67 364 67 182 q 165 644 67 546 m 532 826 q 477 792 514 792 q 414 815 440 792 l 301 901 q 239 931 264 931 q 199 925 214 931 q 181 987 181 958 q 193 1039 181 1015 q 277 1090 219 1090 q 374 1060 335 1090 q 456 957 413 1031 l 532 826 z "},"ô":{"ha":847,"x_min":67,"x_max":781,"o":"m 292 815 q 228 792 267 792 q 174 826 190 792 l 275 975 q 344 1053 314 1029 q 424 1078 374 1078 q 503 1053 474 1078 q 572 975 533 1029 l 674 826 q 619 792 657 792 q 556 815 581 792 l 424 929 l 292 815 m 442 90 q 561 300 561 90 q 558 364 561 329 q 406 636 539 636 q 286 428 286 636 q 289 364 286 397 q 442 90 306 90 m 165 644 q 215 693 165 644 q 424 742 264 742 q 682 644 583 742 q 781 364 781 546 q 681 83 781 182 q 423 -15 582 -15 q 165 83 264 -15 q 67 364 67 182 q 165 644 67 546 z "},"õ":{"ha":847,"x_min":67,"x_max":781,"o":"m 329 1067 q 360 1067 329 1067 q 457 1028 390 1067 q 558 989 524 989 q 615 1010 592 989 q 638 1069 638 1031 q 684 1046 667 1068 q 701 990 701 1024 q 651 880 701 924 q 540 836 600 836 q 407 876 479 836 q 307 915 335 915 q 257 894 279 915 q 235 833 235 872 q 190 853 210 833 q 171 914 171 872 q 219 1022 171 978 q 329 1067 268 1067 m 406 636 q 286 428 286 636 q 289 364 286 397 q 442 90 306 90 q 561 300 561 90 q 558 364 561 329 q 406 636 539 636 m 165 644 q 215 693 165 644 q 424 742 264 742 q 682 644 583 742 q 781 364 781 546 q 681 83 781 182 q 423 -15 582 -15 q 165 83 264 -15 q 67 364 67 182 q 165 644 67 546 z "},"ö":{"ha":847,"x_min":67,"x_max":781,"o":"m 406 636 q 286 428 286 636 q 289 364 286 397 q 442 90 306 90 q 561 300 561 90 q 558 364 561 329 q 406 636 539 636 m 165 644 q 215 693 165 644 q 424 742 264 742 q 682 644 583 742 q 781 364 781 546 q 681 83 781 182 q 423 -15 582 -15 q 165 83 264 -15 q 67 364 67 182 q 165 644 67 546 m 580 1049 q 603 1049 580 1049 q 653 1021 626 1049 q 681 947 681 993 q 640 859 681 900 q 552 818 600 818 q 477 846 504 818 q 450 920 450 874 q 492 1008 450 967 q 580 1049 533 1049 m 297 1049 q 320 1049 297 1049 q 370 1021 343 1049 q 397 947 397 993 q 357 859 397 900 q 269 818 317 818 q 194 846 221 818 q 167 920 167 874 q 208 1008 167 967 q 297 1049 250 1049 z "},"÷":{"ha":1036,"x_min":75,"x_max":961,"o":"m 276 667 l 953 667 q 961 617 961 651 q 944 554 961 583 q 908 511 928 525 q 856 489 888 497 q 760 481 817 481 l 86 481 q 75 538 75 507 q 92 597 75 569 q 128 638 108 625 q 181 658 149 650 q 276 667 219 667 m 540 400 q 567 400 540 400 q 626 368 594 400 q 657 282 657 336 q 610 181 657 228 q 508 133 563 133 q 422 165 453 133 q 390 251 390 197 q 438 353 390 306 q 540 400 486 400 m 540 1017 q 567 1017 540 1017 q 626 985 594 1017 q 657 899 657 953 q 610 797 657 844 q 508 750 563 750 q 422 782 453 750 q 390 868 390 814 q 438 969 390 922 q 540 1017 486 1017 z "},"ø":{"ha":1000,"x_min":40,"x_max":811,"o":"m 442 90 q 561 300 561 90 q 550 438 561 372 l 322 186 q 442 90 361 90 m 406 636 q 286 428 286 636 q 297 285 286 346 l 526 538 q 406 636 488 636 m 658 683 q 758 742 711 742 q 811 700 804 742 q 708 611 764 674 q 781 364 781 515 q 681 83 781 182 q 424 -15 582 -15 q 201 51 292 -15 l 193 43 q 95 -15 140 -15 q 40 26 50 -15 q 140 113 78 46 q 67 377 67 208 q 165 644 67 546 q 424 742 264 742 q 649 672 556 742 l 658 683 z "},"ù":{"ha":883,"x_min":61,"x_max":828,"o":"m 383 826 l 460 957 q 542 1060 503 1031 q 638 1090 581 1090 q 722 1039 696 1090 q 735 987 735 1015 q 717 925 735 958 q 676 931 701 931 q 614 901 651 931 l 501 815 q 438 792 475 792 q 383 826 401 792 m 783 576 l 783 143 q 828 44 783 68 q 701 -15 778 -15 q 569 97 589 -15 q 373 -15 499 -15 q 178 49 247 -15 q 108 235 108 113 l 108 585 q 61 682 108 657 q 187 742 114 742 q 293 701 260 742 q 326 576 326 661 l 326 257 q 435 150 326 150 q 565 256 528 150 l 565 585 q 518 682 565 657 q 644 742 571 742 q 750 701 717 742 q 783 576 783 661 z "},"ú":{"ha":883,"x_min":61,"x_max":828,"o":"m 550 826 q 495 792 532 792 q 432 815 458 792 l 319 901 q 257 931 282 931 q 217 925 232 931 q 199 987 199 958 q 211 1039 199 1015 q 295 1090 238 1090 q 392 1060 353 1090 q 474 957 431 1031 l 550 826 m 783 576 l 783 143 q 828 44 783 68 q 701 -15 778 -15 q 569 97 589 -15 q 373 -15 499 -15 q 178 49 247 -15 q 108 235 108 113 l 108 585 q 61 682 108 657 q 187 742 114 742 q 293 701 260 742 q 326 576 326 661 l 326 257 q 435 150 326 150 q 565 256 528 150 l 565 585 q 518 682 565 657 q 644 742 571 742 q 750 701 717 742 q 783 576 783 661 z "},"û":{"ha":883,"x_min":61,"x_max":828,"o":"m 310 815 q 247 792 285 792 q 192 826 208 792 l 293 975 q 362 1053 332 1029 q 442 1078 392 1078 q 522 1053 492 1078 q 590 975 551 1029 l 692 826 q 637 792 675 792 q 574 815 599 792 l 442 929 l 310 815 m 783 576 l 783 143 q 828 44 783 68 q 701 -15 778 -15 q 569 97 589 -15 q 373 -15 499 -15 q 178 49 247 -15 q 108 235 108 113 l 108 585 q 61 682 108 657 q 187 742 114 742 q 293 701 260 742 q 326 576 326 661 l 326 257 q 435 150 326 150 q 565 256 528 150 l 565 585 q 518 682 565 657 q 644 742 571 742 q 750 701 717 742 q 783 576 783 661 z "},"ü":{"ha":883,"x_min":61,"x_max":828,"o":"m 699 947 q 699 923 699 947 q 658 859 699 900 q 569 818 617 818 q 495 846 522 818 q 468 920 468 874 q 510 1008 468 967 q 598 1049 551 1049 q 672 1021 644 1049 q 699 947 699 993 m 415 947 q 415 923 415 947 q 374 859 415 900 q 286 818 333 818 q 212 846 239 818 q 185 920 185 874 q 226 1008 185 967 q 315 1049 268 1049 q 388 1021 361 1049 q 415 947 415 993 m 783 576 l 783 143 q 828 44 783 68 q 701 -15 778 -15 q 569 97 589 -15 q 373 -15 499 -15 q 178 49 247 -15 q 108 235 108 113 l 108 585 q 61 682 108 657 q 187 742 114 742 q 293 701 260 742 q 326 576 326 661 l 326 257 q 435 150 326 150 q 565 256 528 150 l 565 585 q 518 682 565 657 q 644 742 571 742 q 750 701 717 742 q 783 576 783 661 z "},"ý":{"ha":857,"x_min":33,"x_max":825,"o":"m 528 826 q 473 792 510 792 q 410 815 436 792 l 297 901 q 235 931 260 931 q 194 925 210 931 q 176 987 176 958 q 189 1039 176 1015 q 273 1090 215 1090 q 369 1060 331 1090 q 451 957 408 1031 l 528 826 m 607 586 q 622 661 622 628 q 607 717 622 694 q 697 742 646 742 q 807 686 771 742 q 825 621 825 658 q 807 535 825 583 l 542 -183 q 322 -372 472 -372 q 213 -337 256 -372 q 169 -255 169 -303 q 194 -167 169 -207 q 267 -197 232 -197 q 328 -177 301 -197 q 368 -119 356 -157 l 404 -14 q 397 -14 400 -14 q 297 27 344 -14 q 226 144 250 68 l 94 567 q 67 641 79 617 q 33 682 56 665 q 161 742 96 742 q 263 704 226 742 q 319 585 299 667 l 447 115 l 607 586 z "},"þ":{"ha":868,"x_min":61,"x_max":814,"o":"m 453 111 q 551 182 508 111 q 594 363 594 253 q 553 533 594 472 q 453 593 511 593 q 381 569 415 593 q 326 503 347 544 l 326 175 q 453 111 378 111 m 326 924 l 326 650 q 524 742 400 742 q 731 642 647 742 q 814 365 814 543 q 714 86 814 188 q 483 -15 614 -15 q 326 33 397 -15 l 326 -211 q 372 -310 326 -286 q 247 -369 319 -369 q 141 -329 174 -369 q 108 -206 108 -289 l 108 932 q 61 1028 108 1003 q 189 1089 113 1089 q 326 924 326 1089 z "},"ÿ":{"ha":857,"x_min":33,"x_max":825,"o":"m 676 947 q 676 923 676 947 q 635 859 676 900 q 547 818 594 818 q 473 846 500 818 q 446 920 446 874 q 488 1008 446 967 q 576 1049 529 1049 q 649 1021 622 1049 q 676 947 676 993 m 393 947 q 393 923 393 947 q 352 859 393 900 q 264 818 311 818 q 190 846 217 818 q 163 920 163 874 q 204 1008 163 967 q 292 1049 246 1049 q 366 1021 339 1049 q 393 947 393 993 m 607 586 q 622 661 622 628 q 607 717 622 694 q 697 742 646 742 q 807 686 771 742 q 825 621 825 658 q 807 535 825 583 l 542 -183 q 322 -372 472 -372 q 213 -337 256 -372 q 169 -255 169 -303 q 194 -167 169 -207 q 267 -197 232 -197 q 328 -177 301 -197 q 368 -119 356 -157 l 404 -14 q 397 -14 400 -14 q 297 27 344 -14 q 226 144 250 68 l 94 567 q 67 641 79 617 q 33 682 56 665 q 161 742 96 742 q 263 704 226 742 q 319 585 299 667 l 447 115 l 607 586 z "},"ı":{"ha":426,"x_min":61,"x_max":372,"o":"m 326 576 l 326 143 q 372 44 326 68 q 244 -15 319 -15 q 108 150 108 -15 l 108 585 q 61 682 108 657 q 187 742 114 742 q 293 701 260 742 q 326 576 326 661 z "},"Ł":{"ha":819,"x_min":8,"x_max":786,"o":"m 460 161 l 603 161 q 753 217 701 161 q 786 138 786 193 q 742 42 786 83 q 615 0 699 0 l 407 0 q 211 51 268 0 q 154 232 154 103 l 154 479 l 49 428 q 40 433 47 429 q 18 451 24 443 q 8 487 8 471 q 17 516 8 503 q 31 538 25 529 q 55 558 38 547 q 76 569 72 568 q 154 608 76 569 l 154 881 q 108 976 154 953 q 235 1036 158 1036 q 374 872 374 1036 l 374 713 l 543 793 q 562 772 553 792 q 571 731 571 751 q 564 698 571 711 q 542 672 557 685 q 518 656 526 660 q 494 643 510 651 l 374 585 l 374 260 q 460 161 374 161 z "},"ł":{"ha":576,"x_min":7,"x_max":568,"o":"m 542 775 q 559 753 550 774 q 568 713 568 733 q 562 680 568 693 q 540 654 556 667 q 493 625 519 638 l 386 574 l 386 143 q 432 44 386 68 q 304 -15 379 -15 q 168 150 168 -15 l 168 468 l 47 410 q 17 433 17 432 q 7 469 7 454 q 15 498 7 485 q 29 519 24 511 q 53 538 35 528 q 74 551 71 549 q 94 561 78 553 l 168 596 l 168 932 q 121 1031 168 1001 q 249 1089 174 1089 q 386 924 386 1089 l 386 700 l 542 775 z "},"Œ":{"ha":1582,"x_min":92,"x_max":1499,"o":"m 601 885 q 403 781 474 885 q 333 525 333 676 q 335 485 333 506 q 575 136 358 136 q 747 175 676 136 l 747 853 q 601 885 686 885 m 1056 178 l 1278 178 q 1453 233 1376 178 q 1499 135 1499 197 q 1453 37 1499 74 q 1319 0 1408 0 l 599 0 q 213 138 335 0 q 92 507 92 276 q 221 880 92 738 q 581 1022 350 1022 l 1293 1022 q 1451 994 1403 1022 q 1499 909 1499 965 q 1453 817 1499 853 q 1278 843 1389 843 l 968 843 l 968 635 l 1160 635 q 1319 611 1272 635 q 1365 531 1365 588 q 1319 440 1365 475 q 1144 457 1269 457 l 968 457 l 968 276 q 1056 178 968 178 z "},"œ":{"ha":1239,"x_min":67,"x_max":1197,"o":"m 931 460 q 981 515 981 467 q 958 595 981 564 q 899 626 936 626 q 828 579 861 626 q 785 442 796 532 l 931 460 m 442 90 q 561 300 561 90 q 558 364 561 329 q 406 636 539 636 q 286 428 286 636 q 289 364 286 397 q 442 90 306 90 m 953 136 q 1147 224 1067 136 q 1178 165 1178 211 q 1099 42 1178 99 q 914 -15 1019 -15 q 664 67 757 -15 q 417 -15 569 -15 q 165 83 264 -15 q 67 364 67 182 q 165 644 67 546 q 426 742 264 742 q 683 642 588 742 q 922 742 781 742 q 1119 665 1040 742 q 1197 489 1197 588 q 1160 379 1197 413 q 1036 343 1124 346 l 781 336 q 953 136 790 136 z "},"Š":{"ha":975,"x_min":108,"x_max":917,"o":"m 569 1112 q 554 1100 569 1112 q 489 1088 539 1088 q 409 1112 439 1088 q 340 1190 379 1136 l 239 1339 q 294 1374 256 1374 q 357 1351 333 1374 l 489 1238 l 621 1351 q 683 1374 644 1374 q 739 1339 722 1374 l 638 1190 q 569 1112 599 1136 m 517 901 q 480 901 517 901 q 393 874 442 901 q 344 799 344 846 q 403 713 344 753 q 547 637 463 674 q 715 557 631 600 q 858 444 799 514 q 917 289 917 375 q 798 70 917 156 q 510 -15 679 -15 q 225 48 342 -15 q 108 211 108 111 q 149 304 108 269 q 248 339 190 339 q 361 294 306 339 q 328 221 328 264 q 378 149 328 178 q 515 119 429 119 q 649 154 600 119 q 699 247 699 189 q 640 349 699 304 q 497 431 581 394 q 328 507 413 467 q 185 609 244 547 q 126 750 126 671 q 240 958 126 881 q 519 1036 354 1036 q 789 978 685 1036 q 893 831 893 919 q 860 748 893 779 q 771 717 828 717 q 664 753 714 717 q 675 810 675 775 q 634 874 675 846 q 517 901 593 901 z "},"š":{"ha":731,"x_min":50,"x_max":692,"o":"m 445 816 q 430 804 445 816 q 365 792 415 792 q 285 816 315 792 q 217 894 256 840 l 115 1043 q 171 1078 132 1078 q 233 1056 210 1078 l 365 942 l 497 1056 q 560 1078 521 1078 q 615 1043 599 1078 l 514 894 q 445 816 475 840 m 387 626 q 368 626 387 626 q 326 610 349 626 q 303 563 303 594 q 343 502 303 531 q 440 449 383 474 q 554 397 497 425 q 651 322 611 368 q 692 218 692 276 q 596 50 692 115 q 366 -15 500 -15 q 141 35 232 -15 q 50 161 50 85 q 85 237 50 207 q 168 267 119 267 q 276 219 244 267 q 253 168 253 200 q 283 119 253 136 q 364 101 314 101 q 444 122 414 101 q 474 174 474 142 q 433 233 474 206 q 336 286 393 261 q 222 340 279 311 q 125 416 165 369 q 85 519 85 463 q 172 676 85 610 q 380 742 260 742 q 579 697 500 742 q 658 585 658 653 q 632 514 658 539 q 557 489 606 489 q 464 522 508 489 q 447 608 482 579 q 387 626 425 626 z "},"Ÿ":{"ha":910,"x_min":8,"x_max":899,"o":"m 713 1242 q 713 1218 713 1242 q 672 1154 713 1194 q 583 1114 631 1114 q 509 1142 536 1114 q 482 1216 482 1169 q 524 1303 482 1263 q 612 1344 565 1344 q 685 1317 658 1344 q 713 1242 713 1289 m 429 1242 q 429 1218 429 1242 q 388 1154 429 1194 q 300 1114 347 1114 q 226 1142 253 1114 q 199 1216 199 1169 q 240 1303 199 1263 q 328 1344 282 1344 q 402 1317 375 1344 q 429 1242 429 1289 m 590 14 q 478 -10 539 -10 q 384 32 418 -10 q 350 156 350 74 l 351 443 l 94 865 q 8 925 60 921 q 149 1036 44 1036 q 240 1002 201 1036 q 318 901 278 968 l 478 639 l 633 840 q 669 928 669 888 q 636 1003 669 968 q 762 1036 703 1036 q 860 1006 821 1036 q 899 919 899 975 q 847 800 899 864 l 568 444 l 567 132 q 590 14 567 57 z "},"Ž":{"ha":940,"x_min":42,"x_max":886,"o":"m 549 1112 q 534 1100 549 1112 q 469 1088 519 1088 q 390 1112 419 1088 q 321 1190 360 1136 l 219 1339 q 275 1374 236 1374 q 338 1351 314 1374 l 469 1238 l 601 1351 q 664 1374 625 1374 q 719 1339 703 1374 l 618 1190 q 549 1112 579 1136 m 886 139 q 661 0 886 0 l 267 0 q 106 50 171 0 q 42 183 42 100 q 65 280 42 238 q 142 369 89 322 l 669 846 q 283 808 469 808 q 58 947 58 808 q 92 1042 58 999 q 276 1022 158 1022 l 657 1022 q 817 972 753 1022 q 882 839 882 921 q 858 744 882 786 q 782 651 835 701 l 250 171 l 681 200 q 851 242 786 208 q 886 139 886 200 z "},"ž":{"ha":694,"x_min":58,"x_max":644,"o":"m 428 816 q 414 804 428 816 q 349 792 399 792 q 269 816 299 792 q 200 894 239 840 l 99 1043 q 154 1078 115 1078 q 217 1056 193 1078 l 349 942 l 481 1056 q 543 1078 504 1078 q 599 1043 582 1078 l 497 894 q 428 816 458 840 m 611 201 q 636 118 636 172 q 598 32 636 64 q 475 0 560 0 l 243 0 q 106 42 153 0 q 58 149 58 83 q 74 217 58 188 q 131 282 90 246 l 456 569 q 246 550 339 550 q 114 583 153 550 q 75 660 75 615 q 99 736 75 706 q 232 726 161 726 l 460 726 q 597 685 550 726 q 644 578 644 643 q 628 511 644 540 q 572 444 613 482 l 242 153 l 475 165 q 611 201 564 169 z "},"ƒ":{"ha":735,"x_min":-140,"x_max":701,"o":"m 264 781 q 365 971 294 906 q 526 1036 436 1036 q 658 1001 615 1036 q 701 921 701 967 q 672 849 701 875 q 585 893 638 893 q 483 790 508 893 l 454 674 l 619 674 q 625 651 625 664 q 578 576 625 611 q 442 540 532 540 l 421 540 l 264 -90 q -1 -372 192 -372 q -101 -336 -65 -372 q -140 -247 -137 -300 q -15 -211 -54 -247 q 44 -89 24 -175 l 203 540 q 134 563 158 542 q 110 619 110 585 q 143 682 110 653 q 233 674 178 674 l 238 674 l 264 781 z "},"ˆ":{"ha":533,"x_min":17,"x_max":517,"o":"m 517 826 q 462 792 500 792 q 399 815 424 792 l 267 929 l 135 815 q 72 792 110 792 q 17 826 33 792 l 118 975 q 187 1053 157 1029 q 267 1078 217 1078 q 347 1053 317 1078 q 415 975 376 1029 l 517 826 z "},"ˇ":{"ha":533,"x_min":17,"x_max":517,"o":"m 399 1056 q 461 1078 422 1078 q 517 1043 500 1078 l 415 894 q 347 816 376 840 q 267 792 317 792 q 187 816 217 792 q 118 894 157 840 l 17 1043 q 72 1078 33 1078 q 135 1056 111 1078 l 267 942 l 399 1056 z "},"˘":{"ha":574,"x_min":17,"x_max":557,"o":"m 383 1022 q 460 1033 419 1033 q 528 1014 500 1033 q 557 964 557 994 q 485 872 557 911 q 287 832 414 832 q 88 872 160 832 q 17 964 17 911 q 45 1014 17 994 q 114 1033 74 1033 q 190 1022 154 1033 q 287 901 190 901 q 383 1022 383 901 z "},"˙":{"ha":257,"x_min":17,"x_max":240,"o":"m 142 1056 q 165 1056 142 1056 q 214 1028 188 1056 q 240 956 240 1001 q 201 871 240 910 q 115 832 161 832 q 43 859 69 832 q 17 931 17 886 q 57 1015 17 975 q 142 1056 97 1056 z "},"˚":{"ha":350,"x_min":17,"x_max":333,"o":"m 117 965 q 183 865 117 865 q 232 931 232 865 q 232 944 232 938 q 167 1025 224 1025 q 117 965 117 1025 m 62 1042 q 84 1059 62 1042 q 175 1076 107 1076 q 288 1042 243 1076 q 333 945 333 1008 q 288 848 333 882 q 175 814 243 814 q 62 848 107 814 q 17 945 17 882 q 62 1042 17 1008 z "},"˛":{"ha":482,"x_min":17,"x_max":465,"o":"m 243 -185 q 318 -243 243 -243 q 453 -200 393 -243 q 465 -239 465 -217 q 400 -326 465 -287 q 237 -365 335 -365 q 78 -323 139 -365 q 17 -214 17 -281 q 103 -76 17 -131 q 335 -17 190 -22 l 335 -100 q 243 -185 243 -121 z "},"˜":{"ha":564,"x_min":17,"x_max":547,"o":"m 175 1067 q 206 1067 175 1067 q 303 1028 236 1067 q 403 989 369 989 q 460 1010 438 989 q 483 1069 483 1031 q 530 1046 513 1068 q 547 990 547 1024 q 497 880 547 924 q 385 836 446 836 q 253 876 325 836 q 153 915 181 915 q 103 894 125 915 q 81 833 81 872 q 36 853 56 833 q 17 914 17 872 q 65 1022 17 978 q 175 1067 114 1067 z "},"˝":{"ha":531,"x_min":17,"x_max":514,"o":"m 244 986 q 197 953 217 986 l 108 815 q 69 790 93 790 q 17 818 44 790 l 64 975 q 110 1065 83 1039 q 177 1090 136 1090 q 239 1064 218 1090 q 260 1017 260 1038 q 257 985 260 996 q 244 986 251 986 m 492 968 q 435 935 465 968 l 324 815 q 269 790 300 790 q 222 826 239 790 l 297 975 q 362 1065 329 1039 q 439 1090 394 1090 q 504 1047 483 1090 q 514 1007 514 1028 q 503 967 514 986 q 492 968 497 968 z "},"ँ":{"ha":0,"x_min":-482,"x_max":89,"o":"m -110 1367 q -110 1344 -110 1367 q -136 1295 -110 1322 q -208 1268 -162 1268 q -293 1307 -254 1268 q -332 1392 -332 1346 q -306 1464 -332 1438 q -235 1490 -281 1490 q -149 1451 -189 1490 q -110 1367 -110 1411 m -218 1181 q -95 1212 -153 1181 q -8 1306 -37 1243 q 58 1273 28 1303 q 89 1201 89 1243 q 10 1081 89 1125 q -154 1038 -69 1038 q -383 1102 -283 1038 q -482 1235 -482 1167 q -443 1296 -482 1275 q -218 1181 -358 1181 z "},"ं":{"ha":0,"x_min":-312,"x_max":-90,"o":"m -90 1133 q -90 1111 -90 1133 q -117 1062 -90 1089 q -189 1035 -143 1035 q -274 1074 -235 1035 q -312 1158 -312 1113 q -287 1231 -312 1204 q -215 1257 -261 1257 q -130 1217 -169 1257 q -90 1133 -90 1178 z "},"ः":{"ha":515,"x_min":161,"x_max":383,"o":"m 383 618 q 383 596 383 618 q 357 547 383 574 q 285 519 331 519 q 200 558 239 519 q 161 643 161 597 q 187 715 161 689 q 258 742 213 742 q 344 702 304 742 q 383 618 383 663 m 383 168 q 383 146 383 168 q 357 97 383 124 q 285 69 331 69 q 200 108 239 69 q 161 193 161 147 q 187 265 161 239 q 258 292 213 292 q 344 252 304 292 q 383 168 383 213 z "},"अ":{"ha":1104,"x_min":42,"x_max":1192,"o":"m 992 599 l 985 146 q 1006 0 985 35 q 947 -10 981 -10 q 800 190 800 -10 q 814 342 800 254 q 751 336 792 336 q 654 358 710 336 q 664 290 664 319 q 605 149 664 206 q 452 92 546 92 q 281 131 358 92 q 153 223 203 169 q 72 329 103 276 q 42 413 42 382 q 100 481 42 463 q 222 320 147 386 q 389 254 296 254 q 481 284 443 254 q 518 368 518 314 q 503 422 518 399 q 476 451 489 446 q 376 435 433 435 q 271 464 319 435 q 222 542 222 493 q 253 613 222 590 q 328 636 283 636 q 417 617 372 636 q 494 725 494 664 q 469 775 494 758 q 400 792 443 792 q 304 773 357 792 q 217 725 251 754 q 160 821 160 763 q 213 910 160 879 q 335 940 267 940 q 540 857 454 940 q 626 656 626 774 q 568 511 626 569 q 688 478 622 478 q 806 517 754 478 q 807 639 807 547 q 783 767 807 731 l 785 768 q 651 892 651 778 q 658 929 651 915 l 1017 929 q 1192 811 1192 929 q 1182 767 1192 786 l 935 767 q 992 599 992 725 z "},"आ":{"ha":1497,"x_min":42,"x_max":1585,"o":"m 992 599 l 985 146 q 1006 0 985 35 q 947 -10 981 -10 q 800 190 800 -10 q 814 342 800 254 q 751 336 792 336 q 654 358 710 336 q 664 290 664 319 q 605 149 664 206 q 452 92 546 92 q 281 131 358 92 q 153 223 203 169 q 72 329 103 276 q 42 413 42 382 q 100 481 42 463 q 222 320 147 386 q 389 254 296 254 q 481 284 443 254 q 518 368 518 314 q 503 422 518 399 q 476 451 489 446 q 376 435 433 435 q 271 464 319 435 q 222 542 222 493 q 253 613 222 590 q 328 636 283 636 q 417 617 372 636 q 494 725 494 664 q 469 775 494 758 q 400 792 443 792 q 304 773 357 792 q 217 725 251 754 q 160 821 160 763 q 213 910 160 879 q 335 940 267 940 q 540 857 454 940 q 626 656 626 774 q 568 511 626 569 q 688 478 622 478 q 806 517 754 478 q 807 639 807 547 q 783 767 807 731 l 785 768 q 651 892 651 778 q 658 929 651 915 l 1410 929 q 1585 811 1585 929 q 1575 767 1585 786 l 1343 767 q 1397 599 1397 725 l 1390 146 q 1411 0 1390 35 q 1353 -10 1386 -10 q 1206 201 1206 -10 l 1213 622 q 1192 767 1213 735 l 935 767 q 992 599 992 725 z "},"इ":{"ha":676,"x_min":-115,"x_max":788,"o":"m 285 686 l 376 685 q 447 724 447 685 q 422 767 447 750 l 60 767 q -115 892 -115 767 q -108 929 -115 915 l 613 929 q 788 811 788 929 q 778 767 788 786 l 540 767 q 592 653 592 714 q 553 557 592 592 q 440 522 514 522 l 353 524 q 211 468 211 524 q 275 425 211 425 l 401 438 q 575 365 499 438 q 651 194 651 292 q 585 42 651 96 q 413 -12 519 -12 q 293 -1 353 -12 q 460 -115 364 -115 q 544 -86 510 -115 q 588 -173 588 -122 q 552 -253 588 -224 q 467 -282 517 -282 q 185 33 285 -282 q 46 214 46 100 q 65 266 46 244 q 122 288 85 288 q 190 253 158 288 q 233 172 221 218 q 346 149 276 149 q 471 173 415 149 q 526 233 526 197 q 478 269 526 269 l 351 260 q 167 338 246 260 q 89 524 89 417 q 140 643 89 600 q 285 686 192 686 z "},"ई":{"ha":676,"x_min":-115,"x_max":788,"o":"m 285 686 l 376 685 q 447 724 447 685 q 422 767 447 750 l 60 767 q -115 892 -115 767 q -108 929 -115 915 l 306 929 q 222 1032 257 967 q 186 1169 186 1097 q 231 1290 186 1240 q 349 1339 275 1339 q 471 1285 424 1339 q 518 1169 518 1232 q 501 1110 518 1133 q 450 1088 483 1088 q 430 1153 447 1126 q 381 1181 413 1181 q 332 1162 350 1181 q 314 1103 314 1143 q 433 929 314 1033 l 613 929 q 788 811 788 929 q 778 767 788 786 l 540 767 q 592 653 592 714 q 553 557 592 592 q 440 522 514 522 l 353 524 q 211 468 211 524 q 275 425 211 425 l 401 438 q 575 365 499 438 q 651 194 651 292 q 585 42 651 96 q 413 -12 519 -12 q 293 -1 353 -12 q 460 -115 364 -115 q 544 -86 510 -115 q 588 -173 588 -122 q 552 -253 588 -224 q 467 -282 517 -282 q 185 33 285 -282 q 46 214 46 100 q 65 266 46 244 q 122 288 85 288 q 190 253 158 288 q 233 172 221 218 q 346 149 276 149 q 471 173 415 149 q 526 233 526 197 q 478 269 526 269 l 351 260 q 167 338 246 260 q 89 524 89 417 q 140 643 89 600 q 285 686 192 686 z "},"उ":{"ha":724,"x_min":-76,"x_max":811,"o":"m 636 929 q 811 811 811 929 q 801 767 811 786 l 576 767 q 622 617 622 697 q 568 475 622 536 q 660 260 660 367 q 601 118 660 175 q 447 61 542 61 q 274 101 353 61 q 145 197 196 142 q 63 306 94 251 q 32 392 32 360 q 90 460 32 446 q 212 293 138 361 q 381 225 286 225 q 472 255 435 225 q 510 336 510 285 q 476 418 510 388 q 374 401 433 401 q 266 433 314 401 q 218 510 218 464 q 253 581 218 557 q 332 606 288 606 q 422 586 376 606 q 481 683 481 628 q 451 767 481 738 l 99 767 q -76 892 -76 767 q -69 929 -76 915 l 636 929 z "},"ऊ":{"ha":1079,"x_min":-76,"x_max":1142,"o":"m 967 929 q 1142 811 1142 929 q 1132 767 1142 786 l 576 767 q 622 616 622 697 q 567 475 622 535 q 603 422 589 449 q 782 542 667 542 q 967 450 879 542 q 1054 244 1054 358 q 1009 117 1054 172 q 885 61 964 61 q 789 98 828 61 q 750 186 750 135 q 751 201 750 196 q 783 197 767 197 q 877 231 835 197 q 919 317 919 265 q 898 369 919 347 q 839 392 876 392 q 682 251 750 392 q 644 181 660 206 q 600 125 629 157 q 435 61 543 61 q 274 101 353 61 q 145 197 196 142 q 63 306 94 251 q 32 392 32 360 q 90 460 32 446 q 212 293 138 361 q 381 225 286 225 q 472 255 435 225 q 510 336 510 285 q 476 418 510 388 q 374 401 433 401 q 266 433 314 401 q 218 510 218 464 q 253 581 218 557 q 332 606 288 606 q 422 586 376 606 q 481 683 481 628 q 451 767 481 738 l 99 767 q -76 892 -76 767 q -69 929 -76 915 l 967 929 z "},"ऋ":{"ha":1029,"x_min":-115,"x_max":1117,"o":"m 597 290 l 596 146 q 617 0 596 35 q 558 -10 593 -10 q 449 40 482 -10 q 415 153 415 89 q 432 268 415 218 q 149 156 249 156 q 52 185 92 156 q 13 283 13 215 q 350 417 125 283 q 179 489 254 489 q 126 474 150 489 q 90 433 101 458 q 33 476 57 447 q 10 550 10 506 q 45 624 10 594 q 129 654 81 654 q 220 636 178 654 q 288 599 263 618 q 355 543 313 581 q 417 490 397 506 q 418 632 418 529 q 397 767 418 735 l 60 767 q -115 892 -115 767 q -108 929 -115 915 l 942 929 q 1117 811 1117 929 q 1107 767 1117 786 l 549 767 q 603 599 603 725 q 600 424 603 540 q 688 444 647 426 q 749 483 729 463 q 719 567 719 525 q 746 636 719 608 q 817 664 772 664 q 902 617 861 664 q 943 511 943 571 q 908 401 943 451 q 999 182 999 276 q 966 86 999 128 q 874 44 933 44 q 777 88 815 44 q 739 192 739 131 q 778 188 751 188 q 831 208 804 188 q 857 264 857 228 q 839 339 857 300 q 649 288 761 288 q 597 290 631 288 z "},"ऌ":{"ha":1019,"x_min":-115,"x_max":1107,"o":"m 932 929 q 1107 811 1107 929 q 1097 767 1107 786 l 715 767 q 769 599 769 725 l 769 585 q 888 484 842 547 q 935 354 935 421 q 906 231 935 288 q 844 138 878 174 q 754 -12 754 40 q 769 -49 754 -36 q 804 -61 783 -61 q 933 44 872 -61 q 1025 -68 1025 15 q 985 -159 1025 -119 q 876 -199 944 -199 q 699 -124 782 -199 q 617 61 617 -49 q 657 189 617 126 q 738 305 697 251 q 778 398 778 358 q 753 460 778 438 q 691 482 728 482 q 619 459 654 482 q 564 390 583 436 q 571 323 571 358 q 549 252 571 288 q 478 217 526 217 q 403 260 431 217 q 376 361 376 303 q 404 475 376 419 q 336 492 374 492 q 247 451 276 492 q 217 343 217 411 q 322 40 217 197 q 267 8 304 8 q 174 72 229 8 q 76 234 118 136 q 35 428 35 332 q 96 579 35 524 q 260 635 157 635 q 460 556 363 635 q 585 619 515 610 l 585 622 q 564 767 585 735 l 60 767 q -115 892 -115 767 q -108 929 -115 915 l 932 929 z "},"ऍ":{"ha":813,"x_min":-115,"x_max":900,"o":"m 443 1038 q 215 1102 314 1038 q 115 1235 115 1167 q 154 1296 115 1275 q 379 1181 239 1181 q 502 1212 444 1181 q 589 1306 560 1243 q 656 1273 625 1303 q 686 1201 686 1243 q 607 1081 686 1125 q 443 1038 528 1038 m 90 426 l 93 611 q 72 767 93 732 l 60 767 q -115 892 -115 767 q -108 929 -115 915 l 725 929 q 900 811 900 929 q 890 767 900 786 l 650 767 q 731 536 731 661 q 692 400 731 458 q 576 342 653 342 q 451 385 499 342 q 399 497 403 428 q 447 490 424 490 q 541 524 503 490 q 579 635 579 557 q 531 767 579 713 l 224 767 q 278 599 278 725 l 275 429 q 324 319 275 368 q 442 234 372 269 q 583 163 513 199 q 701 75 653 128 q 750 -37 750 22 q 717 -133 750 -97 q 631 -169 685 -169 q 540 -142 576 -169 q 494 -89 504 -115 l 485 -61 q 547 -44 525 -61 q 569 7 569 -28 q 520 77 569 42 q 401 144 471 113 q 260 211 331 175 q 140 303 189 247 q 90 426 90 358 z "},"ऎ":{"ha":813,"x_min":-115,"x_max":900,"o":"m 90 426 l 93 611 q 72 767 93 732 l 60 767 q -115 892 -115 767 q -108 929 -115 915 l 415 929 q 514 953 474 929 q 554 1008 554 978 q 486 1068 554 1068 q 392 1043 453 1068 q 294 1018 331 1018 q 129 1100 197 1018 q 61 1281 61 1182 q 103 1398 61 1346 q 219 1450 146 1450 q 297 1419 265 1450 q 328 1346 328 1389 q 321 1310 328 1328 q 222 1285 263 1310 q 182 1225 182 1261 q 250 1171 182 1171 q 344 1196 283 1171 q 442 1221 406 1221 q 607 1139 539 1221 q 675 958 675 1057 q 672 929 675 949 l 725 929 q 900 811 900 929 q 890 767 900 786 l 650 767 q 731 536 731 661 q 692 400 731 458 q 576 342 653 342 q 451 385 499 342 q 399 497 403 428 q 447 490 424 490 q 541 524 503 490 q 579 635 579 557 q 531 767 579 713 l 224 767 q 278 599 278 725 l 275 429 q 324 319 275 368 q 442 234 372 269 q 583 163 513 199 q 701 75 653 128 q 750 -37 750 22 q 717 -133 750 -97 q 631 -169 685 -169 q 540 -142 576 -169 q 494 -89 504 -115 l 485 -61 q 547 -44 525 -61 q 569 7 569 -28 q 520 77 569 42 q 401 144 471 113 q 260 211 331 175 q 140 303 189 247 q 90 426 90 358 z "},"ए":{"ha":813,"x_min":-115,"x_max":900,"o":"m 90 426 l 93 611 q 72 767 93 732 l 60 767 q -115 892 -115 767 q -108 929 -115 915 l 725 929 q 900 811 900 929 q 890 767 900 786 l 650 767 q 731 536 731 661 q 692 400 731 458 q 576 342 653 342 q 451 385 499 342 q 399 497 403 428 q 447 490 424 490 q 541 524 503 490 q 579 635 579 557 q 531 767 579 713 l 224 767 q 278 599 278 725 l 275 429 q 324 319 275 368 q 442 234 372 269 q 583 163 513 199 q 701 75 653 128 q 750 -37 750 22 q 717 -133 750 -97 q 631 -169 685 -169 q 540 -142 576 -169 q 494 -89 504 -115 l 485 -61 q 547 -44 525 -61 q 569 7 569 -28 q 520 77 569 42 q 401 144 471 113 q 260 211 331 175 q 140 303 189 247 q 90 426 90 358 z "},"ऐ":{"ha":813,"x_min":-115,"x_max":900,"o":"m 90 426 l 93 611 q 72 767 93 732 l 60 767 q -115 892 -115 767 q -108 929 -115 915 l 567 929 q 360 1132 457 1132 q 274 1075 303 1132 q 198 1124 225 1088 q 171 1207 171 1161 q 205 1286 171 1253 q 303 1319 239 1319 q 438 1269 368 1319 q 553 1151 507 1219 q 629 1022 600 1083 q 661 929 658 960 l 725 929 q 900 811 900 929 q 890 767 900 786 l 650 767 q 731 536 731 661 q 692 400 731 458 q 576 342 653 342 q 451 385 499 342 q 399 497 403 428 q 447 490 424 490 q 541 524 503 490 q 579 635 579 557 q 531 767 579 713 l 224 767 q 278 599 278 725 l 275 429 q 324 319 275 368 q 442 234 372 269 q 583 163 513 199 q 701 75 653 128 q 750 -37 750 22 q 717 -133 750 -97 q 631 -169 685 -169 q 540 -142 576 -169 q 494 -89 504 -115 l 485 -61 q 547 -44 525 -61 q 569 7 569 -28 q 520 77 569 42 q 401 144 471 113 q 260 211 331 175 q 140 303 189 247 q 90 426 90 358 z "},"ऑ":{"ha":1497,"x_min":42,"x_max":1585,"o":"m 1104 1038 q 876 1102 975 1038 q 776 1235 776 1167 q 815 1296 776 1275 q 1040 1181 900 1181 q 1163 1212 1106 1181 q 1250 1306 1221 1243 q 1317 1273 1286 1303 q 1347 1201 1347 1243 q 1268 1081 1347 1125 q 1104 1038 1189 1038 m 992 599 l 985 146 q 1006 0 985 35 q 947 -10 981 -10 q 800 190 800 -10 q 814 342 800 254 q 751 336 792 336 q 654 358 710 336 q 664 290 664 319 q 605 149 664 206 q 452 92 546 92 q 281 131 358 92 q 153 223 203 169 q 72 329 103 276 q 42 413 42 382 q 100 481 42 463 q 222 320 147 386 q 389 254 296 254 q 481 284 443 254 q 518 368 518 314 q 503 422 518 399 q 476 451 489 446 q 376 435 433 435 q 271 464 319 435 q 222 542 222 493 q 253 613 222 590 q 328 636 283 636 q 417 617 372 636 q 494 725 494 664 q 469 775 494 758 q 400 792 443 792 q 304 773 357 792 q 217 725 251 754 q 160 821 160 763 q 213 910 160 879 q 335 940 267 940 q 540 857 454 940 q 626 656 626 774 q 568 511 626 569 q 688 478 622 478 q 806 517 754 478 q 807 639 807 547 q 783 767 807 731 l 785 768 q 651 892 651 778 q 658 929 651 915 l 1410 929 q 1585 811 1585 929 q 1575 767 1585 786 l 1343 767 q 1397 599 1397 725 l 1390 146 q 1411 0 1390 35 q 1353 -10 1386 -10 q 1206 201 1206 -10 l 1213 622 q 1192 767 1213 735 l 935 767 q 992 599 992 725 z "},"ऒ":{"ha":1497,"x_min":42,"x_max":1585,"o":"m 992 599 l 985 146 q 1006 0 985 35 q 947 -10 981 -10 q 800 190 800 -10 q 814 342 800 254 q 751 336 792 336 q 654 358 710 336 q 664 290 664 319 q 605 149 664 206 q 452 92 546 92 q 281 131 358 92 q 153 223 203 169 q 72 329 103 276 q 42 413 42 382 q 100 481 42 463 q 222 320 147 386 q 389 254 296 254 q 481 284 443 254 q 518 368 518 314 q 503 422 518 399 q 476 451 489 446 q 376 435 433 435 q 271 464 319 435 q 222 542 222 493 q 253 613 222 590 q 328 636 283 636 q 417 617 372 636 q 494 725 494 664 q 469 775 494 758 q 400 792 443 792 q 304 773 357 792 q 217 725 251 754 q 160 821 160 763 q 213 910 160 879 q 335 940 267 940 q 540 857 454 940 q 626 656 626 774 q 568 511 626 569 q 688 478 622 478 q 806 517 754 478 q 807 639 807 547 q 783 767 807 731 l 785 768 q 651 892 651 778 q 658 929 651 915 l 1138 929 q 1236 953 1196 929 q 1276 1008 1276 978 q 1208 1068 1276 1068 q 1114 1043 1175 1068 q 1017 1018 1053 1018 q 851 1100 919 1018 q 783 1281 783 1182 q 826 1398 783 1346 q 942 1450 868 1450 q 1019 1419 988 1450 q 1050 1346 1050 1389 q 1043 1310 1050 1328 q 944 1285 985 1310 q 904 1225 904 1261 q 972 1171 904 1171 q 1067 1196 1006 1171 q 1164 1221 1128 1221 q 1329 1139 1261 1221 q 1397 958 1397 1057 q 1394 929 1397 949 l 1410 929 q 1585 811 1585 929 q 1575 767 1585 786 l 1343 767 q 1397 599 1397 725 l 1390 146 q 1411 0 1390 35 q 1353 -10 1386 -10 q 1206 201 1206 -10 l 1213 622 q 1192 767 1213 735 l 935 767 q 992 599 992 725 z "},"ओ":{"ha":1497,"x_min":42,"x_max":1585,"o":"m 992 599 l 985 146 q 1006 0 985 35 q 947 -10 981 -10 q 800 190 800 -10 q 814 342 800 254 q 751 336 792 336 q 654 358 710 336 q 664 290 664 319 q 605 149 664 206 q 452 92 546 92 q 281 131 358 92 q 153 223 203 169 q 72 329 103 276 q 42 413 42 382 q 100 481 42 463 q 222 320 147 386 q 389 254 296 254 q 481 284 443 254 q 518 368 518 314 q 503 422 518 399 q 476 451 489 446 q 376 435 433 435 q 271 464 319 435 q 222 542 222 493 q 253 613 222 590 q 328 636 283 636 q 417 617 372 636 q 494 725 494 664 q 469 775 494 758 q 400 792 443 792 q 304 773 357 792 q 217 725 251 754 q 160 821 160 763 q 213 910 160 879 q 335 940 267 940 q 540 857 454 940 q 626 656 626 774 q 568 511 626 569 q 688 478 622 478 q 806 517 754 478 q 807 639 807 547 q 783 767 807 731 l 785 768 q 651 892 651 778 q 658 929 651 915 l 1256 929 q 1049 1132 1146 1132 q 963 1075 992 1132 q 887 1124 914 1088 q 860 1207 860 1161 q 894 1286 860 1253 q 992 1319 928 1319 q 1126 1269 1057 1319 q 1242 1151 1196 1219 q 1318 1022 1289 1083 q 1350 929 1347 960 l 1410 929 q 1585 811 1585 929 q 1575 767 1585 786 l 1343 767 q 1397 599 1397 725 l 1390 146 q 1411 0 1390 35 q 1353 -10 1386 -10 q 1206 201 1206 -10 l 1213 622 q 1192 767 1213 735 l 935 767 q 992 599 992 725 z "},"औ":{"ha":1497,"x_min":42,"x_max":1585,"o":"m 992 599 l 985 146 q 1006 0 985 35 q 947 -10 981 -10 q 800 190 800 -10 q 814 342 800 254 q 751 336 792 336 q 654 358 710 336 q 664 290 664 319 q 605 149 664 206 q 452 92 546 92 q 281 131 358 92 q 153 223 203 169 q 72 329 103 276 q 42 413 42 382 q 100 481 42 463 q 222 320 147 386 q 389 254 296 254 q 481 284 443 254 q 518 368 518 314 q 503 422 518 399 q 476 451 489 446 q 376 435 433 435 q 271 464 319 435 q 222 542 222 493 q 253 613 222 590 q 328 636 283 636 q 417 617 372 636 q 494 725 494 664 q 469 775 494 758 q 400 792 443 792 q 304 773 357 792 q 217 725 251 754 q 160 821 160 763 q 213 910 160 879 q 335 940 267 940 q 540 857 454 940 q 626 656 626 774 q 568 511 626 569 q 688 478 622 478 q 806 517 754 478 q 807 639 807 547 q 783 767 807 731 l 785 768 q 651 892 651 778 q 658 929 651 915 l 1244 929 q 1031 1056 1115 1056 q 966 1036 994 1056 q 929 983 938 1017 q 846 1017 882 983 q 810 1103 810 1051 q 850 1186 810 1154 q 947 1218 890 1218 q 1119 1163 1032 1218 q 1269 1033 1206 1107 q 1118 1251 1222 1251 q 1051 1231 1085 1251 q 1006 1319 1006 1267 q 1037 1402 1006 1371 q 1123 1433 1068 1433 q 1228 1386 1178 1433 q 1307 1267 1279 1339 q 1364 979 1364 1118 q 1361 929 1364 944 l 1410 929 q 1585 811 1585 929 q 1575 767 1585 786 l 1343 767 q 1397 599 1397 725 l 1390 146 q 1411 0 1390 35 q 1353 -10 1386 -10 q 1206 201 1206 -10 l 1213 622 q 1192 767 1213 735 l 935 767 q 992 599 992 725 z "},"क":{"ha":1089,"x_min":-111,"x_max":1158,"o":"m 633 396 l 629 146 q 650 0 629 35 q 592 -10 625 -10 q 489 33 521 -10 q 457 126 457 75 q 467 211 457 178 q 342 168 419 168 q 134 263 226 168 q 42 478 42 357 q 94 616 42 557 q 226 675 146 675 q 319 638 283 675 q 356 550 356 601 q 354 535 356 542 q 222 483 272 535 q 186 403 186 447 q 213 333 186 358 q 275 308 239 308 q 449 428 372 308 q 451 635 451 536 q 431 767 451 735 l 64 767 q -111 892 -111 767 q -104 929 -111 915 l 983 929 q 1158 811 1158 929 q 1149 767 1158 786 l 583 767 q 624 658 624 733 q 619 618 624 636 q 739 661 669 661 q 942 565 849 661 q 1036 350 1036 469 q 984 212 1036 271 q 851 153 932 153 q 758 190 794 153 q 722 278 722 226 q 724 293 722 286 q 857 344 807 293 q 892 426 892 381 q 865 495 892 471 q 803 519 839 519 q 633 396 710 519 z "},"ख":{"ha":1132,"x_min":-76,"x_max":1219,"o":"m 465 533 q 410 390 465 447 q 253 325 354 332 q 366 218 293 256 q 522 181 439 181 q 753 264 657 181 q 850 467 850 347 q 833 531 850 504 q 781 557 815 557 q 728 531 746 557 q 710 464 710 504 q 746 361 710 393 q 692 344 724 344 q 584 390 629 344 q 539 511 539 435 q 590 635 539 588 q 718 683 640 683 q 856 635 796 683 q 826 767 853 740 l 367 767 q 465 533 465 658 m 1032 599 l 1025 146 q 1046 0 1025 35 q 988 -10 1021 -10 q 895 25 926 -10 q 864 119 864 60 q 867 161 864 131 q 735 67 817 104 q 558 29 653 29 q 308 114 433 29 q 133 344 182 199 q 53 408 83 368 q 22 488 22 447 q 44 554 22 529 q 104 579 65 579 q 210 464 178 579 q 276 513 251 478 q 301 597 301 547 q 243 767 301 699 l 99 767 q -76 892 -76 767 q -69 929 -76 915 l 1044 929 q 1219 811 1219 929 q 1210 767 1219 786 l 978 767 q 1032 599 1032 725 z "},"ग":{"ha":850,"x_min":-115,"x_max":938,"o":"m 557 201 l 564 622 q 543 767 564 735 l 281 767 q 363 640 332 717 q 393 479 393 564 q 346 346 393 394 q 228 297 299 297 q 97 351 157 297 q 38 481 38 404 q 61 547 38 524 q 119 569 85 569 q 207 517 172 569 q 224 588 224 539 q 136 767 224 700 l 60 767 q -115 892 -115 767 q -108 929 -115 915 l 763 929 q 938 811 938 929 q 928 767 938 786 l 694 767 q 749 599 749 725 l 742 146 q 763 0 742 35 q 704 -10 739 -10 q 557 201 557 -10 z "},"घ":{"ha":876,"x_min":-115,"x_max":964,"o":"m 211 619 q 214 590 211 610 q 322 615 264 615 q 419 586 379 615 q 460 515 460 557 q 426 451 460 474 q 353 428 392 428 q 292 433 315 428 q 250 361 250 404 q 279 297 250 318 q 366 275 308 275 q 490 315 424 275 q 589 417 556 356 q 592 631 592 528 q 571 767 592 735 l 296 767 q 211 619 211 721 m 776 599 l 769 146 q 790 0 769 35 q 732 -10 767 -10 q 634 27 671 -10 q 597 131 597 64 q 610 210 597 167 q 411 144 533 144 q 192 228 289 144 q 96 407 96 311 q 132 521 96 469 q 57 688 57 596 q 74 771 57 729 q 36 768 51 768 q -72 797 -28 768 q -115 892 -115 825 q -108 929 -115 915 l 789 929 q 964 811 964 929 q 954 767 964 786 l 722 767 q 776 599 776 725 z "},"ङ":{"ha":918,"x_min":-97,"x_max":1006,"o":"m 719 476 q 719 497 719 476 q 742 540 719 517 q 803 563 764 563 q 878 528 843 563 q 914 454 914 493 q 891 392 914 415 q 828 368 868 368 q 754 402 789 368 q 719 476 719 436 m 561 269 l 367 260 q 183 338 261 260 q 104 524 104 417 q 156 643 104 600 q 301 686 207 686 q 458 685 396 686 q 521 725 521 685 q 496 767 521 747 l 78 767 q -97 892 -97 767 q -90 929 -97 915 l 831 929 q 1006 811 1006 929 q 996 767 1006 786 l 613 767 q 665 651 665 711 q 626 557 665 592 q 514 522 588 522 l 368 524 q 226 468 226 524 q 288 425 226 425 l 488 438 q 663 363 589 438 q 738 192 738 288 q 673 42 738 97 q 499 -12 608 -12 q 191 70 331 -12 q 51 228 51 153 q 89 276 51 263 q 231 183 144 217 q 408 149 317 149 q 556 173 500 149 q 613 233 613 197 q 561 269 613 269 z "},"च":{"ha":935,"x_min":-128,"x_max":1022,"o":"m 835 599 l 828 146 q 849 0 828 35 q 790 -10 825 -10 q 690 31 721 -10 q 658 121 658 72 q 667 203 658 169 q 517 150 607 150 q 292 247 389 150 q 196 442 196 343 q 204 497 196 469 q 122 483 165 483 q 37 514 78 483 q -4 607 -4 544 q 3 644 -4 631 l 342 644 q 517 526 517 644 q 507 485 517 504 l 458 485 q 369 460 406 485 q 332 392 332 435 q 364 324 332 349 q 451 300 396 300 q 563 340 506 300 q 649 456 621 379 q 650 619 650 504 q 629 767 650 735 l 47 767 q -128 892 -128 767 q -121 929 -128 915 l 847 929 q 1022 811 1022 929 q 1013 767 1022 786 l 781 767 q 835 599 835 725 z "},"छ":{"ha":968,"x_min":-97,"x_max":1051,"o":"m 733 544 q 681 505 699 544 q 663 422 663 465 q 676 356 663 378 q 649 342 668 342 q 572 396 607 342 q 536 511 536 450 q 559 618 536 572 q 622 686 582 664 q 597 767 618 740 l 314 767 q 224 617 224 718 q 232 563 224 588 q 334 578 281 578 q 426 550 388 578 q 465 480 465 522 q 431 414 465 438 q 358 390 397 390 q 281 400 319 390 q 226 306 226 365 q 281 211 226 247 q 419 175 336 175 q 665 257 554 175 q 776 476 776 339 q 733 544 776 544 m 876 929 q 1051 811 1051 929 q 1042 767 1051 786 l 731 767 q 774 676 764 739 q 870 569 835 643 q 906 410 906 496 q 794 133 906 236 q 511 31 682 31 q 210 128 340 31 q 79 368 79 226 q 135 503 79 444 q 72 675 72 583 q 92 771 72 726 q 54 768 69 768 q -53 797 -10 768 q -97 892 -97 825 q -90 929 -97 915 l 876 929 z "},"ज":{"ha":1007,"x_min":-90,"x_max":1094,"o":"m 717 201 l 722 465 l 501 465 q 575 299 575 385 q 529 171 575 214 q 407 128 483 128 q 253 181 331 128 q 126 306 175 233 q 48 447 78 378 q 18 553 18 515 q 37 607 18 590 q 82 625 56 624 q 214 377 142 457 q 346 297 286 297 q 408 321 388 297 q 429 383 429 344 q 393 468 429 422 q 271 590 271 483 q 278 628 271 614 l 724 628 q 703 767 724 732 l 85 767 q -90 892 -90 767 q -83 929 -90 915 l 919 929 q 1094 811 1094 929 q 1085 767 1094 786 l 854 767 q 908 599 908 725 l 901 146 q 922 0 901 35 q 864 -10 897 -10 q 717 201 717 -10 z "},"झ":{"ha":1058,"x_min":-115,"x_max":1146,"o":"m 775 468 l 776 622 q 756 767 776 735 l 556 767 q 607 653 607 714 q 568 557 607 592 q 456 522 529 522 l 353 524 q 211 472 211 524 q 275 431 211 431 q 401 442 275 431 q 511 426 439 442 q 625 410 583 410 q 775 468 724 410 m 285 686 l 392 685 q 463 724 463 685 q 438 767 463 750 l 60 767 q -115 892 -115 767 q -108 929 -115 915 l 971 929 q 1146 811 1146 929 q 1136 767 1146 786 l 907 767 q 961 599 961 725 l 954 146 q 975 0 954 35 q 917 -10 950 -10 q 774 168 774 -10 q 785 289 774 229 q 711 272 754 272 q 628 289 668 272 q 651 186 651 238 q 585 42 651 96 q 413 -12 519 -12 q 293 -1 353 -12 q 460 -115 367 -115 q 544 -86 510 -115 q 588 -173 588 -122 q 552 -253 588 -224 q 467 -282 517 -282 q 186 32 285 -282 q 46 214 46 97 q 65 266 46 244 q 122 288 85 288 q 190 253 158 288 q 233 172 221 218 q 345 149 276 149 q 470 174 414 149 q 526 233 526 199 q 478 275 526 275 l 351 265 q 167 342 246 265 q 89 524 89 419 q 140 643 89 600 q 285 686 192 686 z "},"ञ":{"ha":1036,"x_min":-115,"x_max":1124,"o":"m 743 321 q 635 346 690 326 q 573 199 635 253 q 426 144 511 144 q 272 178 342 144 q 155 262 203 211 q 71 369 107 313 q 0 558 0 483 q 19 611 0 594 q 64 629 39 628 q 363 313 178 313 q 465 349 426 313 q 504 423 504 385 q 485 482 504 461 q 435 503 465 503 q 379 484 404 503 q 342 439 354 465 q 277 484 304 450 q 250 561 250 518 q 282 637 250 604 q 381 669 314 669 q 515 611 447 669 q 614 464 582 553 l 628 464 q 746 494 690 464 q 747 631 747 529 q 726 767 747 732 l 60 767 q -115 892 -115 767 q -108 929 -115 915 l 949 929 q 1124 811 1124 929 q 1114 767 1124 786 l 878 767 q 932 599 932 725 l 925 146 q 946 0 925 35 q 888 -10 922 -10 q 740 201 740 -10 q 743 321 740 235 z "},"ट":{"ha":674,"x_min":-97,"x_max":764,"o":"m 589 929 q 764 811 764 929 q 754 767 764 786 l 463 767 q 525 665 525 718 q 491 575 525 611 q 409 516 457 539 q 313 469 361 493 q 231 406 265 444 q 197 317 197 367 q 233 235 197 267 q 333 203 269 203 q 456 251 396 203 q 529 367 515 299 q 617 325 582 363 q 651 229 651 288 q 589 119 651 171 q 401 67 526 67 q 156 162 276 67 q 36 378 36 257 q 69 499 36 447 q 150 578 103 550 q 244 628 197 607 q 325 673 292 650 q 358 722 358 696 q 342 767 358 747 l 78 767 q -97 892 -97 767 q -90 929 -97 915 l 589 929 z "},"ठ":{"ha":722,"x_min":-97,"x_max":813,"o":"m 325 190 q 464 241 407 190 q 521 351 521 292 q 478 449 521 410 q 368 497 435 489 q 206 371 233 431 q 192 307 192 342 q 232 219 192 249 q 325 190 272 190 m 638 929 q 813 811 813 929 q 803 767 813 786 l 474 767 q 533 660 533 719 q 467 554 533 601 q 633 476 572 549 q 694 314 694 403 q 608 124 694 194 q 394 54 521 54 q 153 153 268 54 q 38 371 38 251 q 72 494 38 442 q 154 576 106 547 q 251 628 203 606 q 333 675 299 651 q 367 724 367 699 q 353 767 367 749 l 78 767 q -97 892 -97 767 q -90 929 -97 915 l 638 929 z "},"ड":{"ha":763,"x_min":-97,"x_max":874,"o":"m 561 269 l 367 260 q 183 338 261 260 q 104 524 104 417 q 156 643 104 600 q 301 686 207 686 q 458 685 396 686 q 521 725 521 685 q 496 767 521 747 l 78 767 q -97 892 -97 767 q -90 929 -97 915 l 699 929 q 874 811 874 929 q 864 767 874 786 l 613 767 q 665 651 665 711 q 626 557 665 592 q 514 522 588 522 l 368 524 q 226 468 226 524 q 288 425 226 425 l 488 438 q 663 363 589 438 q 738 192 738 288 q 673 42 738 97 q 499 -12 608 -12 q 191 70 331 -12 q 51 228 51 153 q 89 276 51 263 q 231 183 144 217 q 408 149 317 149 q 556 173 500 149 q 613 233 613 197 q 561 269 613 269 z "},"ढ":{"ha":715,"x_min":-122,"x_max":806,"o":"m 631 929 q 806 811 806 929 q 796 767 806 786 l 517 767 q 569 669 569 722 q 530 583 569 617 q 434 526 490 549 q 322 479 378 504 q 227 410 267 454 q 188 301 188 367 q 243 190 188 235 q 377 146 299 146 q 500 188 456 146 q 544 278 544 231 q 533 313 544 300 q 504 326 521 326 q 446 267 461 326 q 440 218 440 249 q 407 213 428 213 q 328 244 363 213 q 293 331 293 276 q 335 421 293 385 q 439 457 376 457 q 610 385 533 457 q 688 217 688 314 q 615 67 688 121 q 442 13 542 13 q 250 59 342 13 q 95 189 158 106 q 32 367 32 272 q 60 486 32 433 q 130 569 88 539 q 221 624 172 599 q 311 664 269 650 q 410 738 410 699 q 396 767 410 753 l 53 767 q -122 892 -122 767 q -115 929 -122 915 l 631 929 z "},"ण":{"ha":1058,"x_min":-115,"x_max":1146,"o":"m 247 599 q 251 488 247 521 q 338 379 265 379 q 433 604 433 379 q 410 767 433 726 l 193 767 q 247 599 247 725 m 767 201 l 774 622 q 753 767 774 735 l 515 767 q 583 652 551 726 q 615 481 615 578 q 564 315 615 383 q 410 247 513 247 q 195 328 307 247 q 68 519 83 410 q 63 649 63 564 q 42 767 63 735 q -115 892 -115 771 q -108 929 -115 915 l 971 929 q 1146 811 1146 929 q 1136 767 1146 786 l 904 767 q 958 599 958 725 l 951 146 q 972 0 951 35 q 914 -10 947 -10 q 767 201 767 -10 z "},"त":{"ha":783,"x_min":-97,"x_max":871,"o":"m 689 599 l 682 146 q 703 0 682 35 q 644 -10 678 -10 q 497 201 497 -10 q 503 453 497 239 l 361 453 q 272 422 304 453 q 239 335 239 392 q 343 49 239 190 q 290 17 328 17 q 198 76 251 17 q 103 227 144 135 q 63 399 63 319 q 130 565 63 513 q 290 618 197 618 q 504 604 383 618 l 504 611 q 483 767 504 732 l 78 767 q -97 892 -97 767 q -90 929 -97 915 l 696 929 q 871 811 871 929 q 861 767 871 786 l 635 767 q 689 599 689 725 z "},"थ":{"ha":889,"x_min":56,"x_max":976,"o":"m 603 463 l 604 621 q 595 735 604 708 q 547 799 586 761 q 508 892 508 838 q 515 929 508 915 l 801 929 q 976 811 976 929 q 967 767 976 786 l 733 767 q 789 599 789 726 l 782 146 q 803 0 782 35 q 744 -10 778 -10 q 644 36 675 -10 q 613 137 613 82 q 622 238 613 192 q 409 174 533 174 q 170 268 285 174 q 56 443 56 363 q 102 511 56 478 q 203 569 149 544 q 305 637 258 593 q 351 732 351 681 q 337 776 351 757 q 290 794 322 794 q 233 762 257 794 q 210 690 210 729 q 224 628 210 651 q 194 622 213 622 q 101 669 138 622 q 65 781 65 715 q 114 894 65 847 q 236 940 163 940 q 407 856 329 940 q 485 654 485 771 q 459 549 485 596 q 397 476 433 503 q 324 428 361 449 q 262 390 288 407 q 236 360 236 374 q 311 328 236 328 q 474 363 386 328 q 603 463 561 397 z "},"द":{"ha":685,"x_min":-99,"x_max":747,"o":"m 572 929 q 747 811 747 929 q 738 767 747 786 l 529 767 q 581 663 581 715 q 542 574 581 611 q 447 514 503 536 q 335 469 392 492 q 240 408 279 446 q 201 315 201 369 q 244 230 201 261 q 338 199 288 199 q 425 211 388 199 q 413 273 413 236 q 442 340 413 310 q 520 369 472 369 q 606 324 568 369 q 644 222 644 279 q 571 89 644 135 q 635 -57 635 21 q 602 -149 635 -112 q 517 -186 569 -186 q 429 -156 464 -186 q 386 -79 394 -126 q 461 -44 432 -71 q 490 15 490 -18 q 485 60 490 47 q 428 56 458 56 q 165 158 286 56 q 44 385 44 260 q 83 511 44 458 q 176 592 121 564 q 285 640 231 619 q 378 683 340 660 q 417 728 417 706 q 407 767 417 750 l 76 767 q -99 892 -99 767 q -92 929 -99 915 l 572 929 z "},"ध":{"ha":876,"x_min":-115,"x_max":964,"o":"m 776 599 l 769 146 q 790 0 769 35 q 732 -10 767 -10 q 629 31 661 -10 q 597 135 597 72 q 607 208 597 167 q 410 144 532 144 q 192 228 289 144 q 96 407 96 311 q 132 521 96 469 q 57 688 57 596 q 74 771 57 729 q 36 768 51 768 q -72 797 -28 768 q -115 892 -115 825 q -108 929 -115 915 l 199 929 q 374 811 374 929 q 364 767 374 786 l 350 767 q 249 728 286 767 q 211 624 211 689 q 215 590 211 607 q 322 615 264 615 q 419 586 379 615 q 460 515 460 557 q 426 451 460 474 q 353 428 392 428 q 292 433 315 428 q 250 361 250 404 q 279 297 250 318 q 365 275 308 275 q 488 314 422 275 q 589 413 554 353 q 592 617 592 524 q 583 735 592 710 q 535 799 574 761 q 496 892 496 838 q 503 929 496 915 l 789 929 q 964 811 964 929 q 954 767 964 786 l 721 767 q 776 599 776 726 z "},"न":{"ha":818,"x_min":-97,"x_max":906,"o":"m 718 599 l 711 146 q 732 0 711 35 q 674 -10 708 -10 q 526 201 526 -10 q 532 453 526 239 l 307 453 q 214 426 246 453 q 182 371 182 399 q 197 326 182 343 q 246 310 213 310 q 306 332 279 310 q 339 372 332 354 q 403 321 379 357 q 426 245 426 285 q 401 179 426 206 q 324 153 375 153 q 128 246 222 153 q 33 439 33 339 q 290 617 33 617 q 533 604 406 617 l 533 611 q 513 767 533 732 l 78 767 q -97 892 -97 767 q -90 929 -97 915 l 731 929 q 906 811 906 929 q 896 767 906 786 l 664 767 q 718 599 718 725 z "},"ऩ":{"ha":818,"x_min":-97,"x_max":906,"o":"m 154 13 q 154 33 154 13 q 176 76 154 53 q 238 99 199 99 q 313 64 278 99 q 349 -10 349 29 q 326 -72 349 -49 q 263 -96 303 -96 q 188 -62 222 -96 q 154 13 154 -28 m 718 599 l 711 146 q 732 0 711 35 q 674 -10 708 -10 q 526 201 526 -10 q 532 453 526 239 l 307 453 q 214 426 246 453 q 182 371 182 399 q 197 326 182 343 q 246 310 213 310 q 306 332 279 310 q 339 372 332 354 q 403 321 379 357 q 426 245 426 285 q 401 179 426 206 q 324 153 375 153 q 128 246 222 153 q 33 439 33 339 q 290 617 33 617 q 533 604 406 617 l 533 611 q 513 767 533 732 l 78 767 q -97 892 -97 767 q -90 929 -97 915 l 731 929 q 906 811 906 929 q 896 767 906 786 l 664 767 q 718 599 718 725 z "},"प":{"ha":794,"x_min":-104,"x_max":882,"o":"m 256 599 l 253 486 q 272 391 253 422 q 342 360 292 360 q 438 395 392 360 q 508 479 483 431 l 508 622 q 488 767 508 735 l 203 767 q 256 599 256 726 m 693 599 l 686 146 q 707 0 686 35 q 649 -10 683 -10 q 539 40 574 -10 q 504 149 504 90 q 515 249 504 208 q 413 224 465 224 q 184 325 294 224 q 74 526 74 426 q 70 708 74 671 q 53 767 67 744 q -104 892 -104 771 q -97 929 -104 915 l 707 929 q 882 811 882 929 q 872 767 882 786 l 639 767 q 693 599 693 725 z "},"फ":{"ha":1096,"x_min":-104,"x_max":1165,"o":"m 457 446 l 458 622 q 438 767 458 735 l 196 767 q 249 599 249 726 l 246 514 q 265 419 246 450 q 342 388 285 388 q 457 446 399 388 m 640 396 l 636 146 q 657 0 636 35 q 599 -10 633 -10 q 488 42 524 -10 q 453 155 453 94 q 464 260 453 215 q 406 251 436 251 q 173 347 279 251 q 67 547 67 443 q 65 696 67 650 q 46 767 64 742 q -104 892 -104 774 q -97 929 -104 915 l 990 929 q 1165 811 1165 929 q 1156 767 1165 786 l 589 767 q 629 657 629 731 q 626 617 629 644 q 746 661 674 661 q 951 566 860 661 q 1043 350 1043 471 q 991 212 1043 271 q 858 153 939 153 q 765 190 801 153 q 729 278 729 226 q 731 293 729 286 q 867 347 817 293 q 899 427 899 383 q 872 495 899 471 q 810 519 846 519 q 640 396 717 519 z "},"ब":{"ha":839,"x_min":-111,"x_max":926,"o":"m 224 479 q 186 402 186 449 q 224 324 186 356 q 301 292 261 292 q 371 299 340 292 l 224 479 m 553 450 l 554 622 q 533 767 554 735 l 64 767 q -111 892 -111 767 q -104 929 -111 915 l 751 929 q 926 811 926 929 q 917 767 926 786 l 685 767 q 739 599 739 725 l 732 146 q 753 0 732 35 q 694 -10 728 -10 q 590 34 624 -10 q 556 142 556 78 q 565 197 556 165 q 397 143 496 143 q 215 198 297 143 q 86 330 132 253 q 40 475 40 407 q 111 628 40 574 q 267 682 182 682 q 406 648 353 682 q 460 562 460 614 q 439 485 460 510 q 329 513 393 513 q 310 511 315 513 l 454 335 q 553 450 515 378 z "},"भ":{"ha":932,"x_min":14,"x_max":1019,"o":"m 832 599 l 825 146 q 846 0 825 35 q 788 -10 822 -10 q 640 201 640 -10 q 644 372 640 275 l 421 372 q 325 238 400 238 q 192 308 256 238 q 129 443 129 379 q 254 540 129 533 q 256 677 256 576 q 213 778 256 778 q 172 751 185 778 q 158 683 158 724 q 172 618 158 643 q 143 613 161 613 q 50 663 86 613 q 14 777 14 714 q 53 885 14 840 q 160 929 92 929 q 338 812 256 929 q 428 539 419 694 q 647 526 554 535 l 647 622 q 626 767 647 735 l 604 767 q 429 892 429 767 q 436 929 429 915 l 844 929 q 1019 811 1019 929 q 1010 767 1019 786 l 778 767 q 832 599 832 725 z "},"म":{"ha":864,"x_min":-115,"x_max":951,"o":"m 347 599 l 347 539 q 579 526 486 533 l 579 622 q 558 767 579 735 l 293 767 q 347 599 347 725 m 764 599 l 757 146 q 778 0 757 35 q 719 -10 753 -10 q 572 201 572 -10 q 576 372 572 275 l 336 372 q 303 269 325 301 q 239 238 281 238 q 106 308 169 238 q 43 443 43 379 q 163 540 43 531 q 164 601 164 561 q 140 767 164 731 l 60 767 q -115 892 -115 767 q -108 929 -115 915 l 776 929 q 951 811 951 929 q 942 767 951 786 l 710 767 q 764 599 764 725 z "},"य":{"ha":846,"x_min":-69,"x_max":933,"o":"m 556 463 l 557 622 q 552 721 557 693 q 532 767 547 749 l 364 767 q 406 642 406 707 q 376 534 406 576 q 313 472 347 492 q 219 392 219 419 q 313 344 219 344 q 451 375 381 344 q 556 463 521 406 m 742 599 l 735 146 q 756 0 735 35 q 697 -10 731 -10 q 597 36 628 -10 q 565 137 565 82 q 575 238 565 192 q 403 188 504 188 q 161 288 276 188 q 46 483 46 389 q 153 589 46 533 q 228 648 194 611 q 261 718 261 685 q 250 767 261 751 l 106 767 q -69 892 -69 767 q -62 929 -69 915 l 758 929 q 933 811 933 929 q 924 767 933 786 l 688 767 q 742 599 742 725 z "},"र":{"ha":578,"x_min":-103,"x_max":657,"o":"m 482 929 q 657 811 657 929 q 647 767 657 786 l 414 767 q 506 547 506 658 q 440 369 506 435 q 271 300 375 303 q 343 187 299 228 q 464 146 388 146 q 508 151 490 146 q 522 83 522 121 q 496 16 522 46 q 417 -14 469 -14 q 157 324 256 -14 q 60 396 99 350 q 22 491 22 442 q 45 569 22 540 q 110 599 68 599 q 178 568 153 599 q 221 481 203 538 q 316 525 283 482 q 349 628 349 568 q 288 767 349 721 l 72 767 q -103 892 -103 767 q -96 929 -103 915 l 482 929 z "},"ऱ":{"ha":578,"x_min":-103,"x_max":657,"o":"m 33 -43 q 33 -26 33 -43 q 53 12 33 -8 q 107 32 72 32 q 172 1 142 32 q 203 -63 203 -29 q 183 -117 203 -97 q 128 -137 164 -137 q 63 -108 93 -137 q 33 -43 33 -78 m 482 929 q 657 811 657 929 q 647 767 657 786 l 414 767 q 506 547 506 658 q 440 369 506 435 q 271 300 375 303 q 343 187 299 228 q 464 146 388 146 q 508 151 490 146 q 522 83 522 121 q 496 16 522 46 q 417 -14 469 -14 q 157 324 256 -14 q 60 396 99 350 q 22 491 22 442 q 45 569 22 540 q 110 599 68 599 q 178 568 153 599 q 221 481 203 538 q 316 525 283 482 q 349 628 349 568 q 288 767 349 721 l 72 767 q -103 892 -103 767 q -96 929 -103 915 l 482 929 z "},"ल":{"ha":1038,"x_min":-97,"x_max":1125,"o":"m 940 599 l 933 146 q 954 0 933 35 q 896 -10 931 -10 q 749 201 749 -10 q 754 457 749 238 q 693 464 724 464 q 633 445 663 464 q 590 394 603 426 q 600 310 600 350 q 576 229 600 269 q 501 189 553 189 q 419 237 450 189 q 388 347 388 285 q 422 475 388 408 q 345 492 392 492 q 267 453 299 492 q 235 350 235 414 q 379 40 235 192 q 321 8 363 8 q 216 65 279 8 q 103 216 153 121 q 54 411 54 311 q 115 576 54 511 q 281 640 176 640 q 479 561 386 640 q 643 629 550 629 q 756 597 704 629 l 756 622 q 735 767 756 735 l 78 767 q -97 892 -97 767 q -90 929 -97 915 l 950 929 q 1125 811 1125 929 q 1115 767 1125 786 l 886 767 q 940 599 940 725 z "},"ळ":{"ha":963,"x_min":-111,"x_max":1032,"o":"m 782 417 q 754 481 782 458 q 699 504 726 504 q 652 494 671 504 q 621 474 633 485 q 593 438 608 464 q 572 397 578 411 q 550 347 565 383 q 529 297 535 310 q 610 288 571 288 q 731 322 681 288 q 782 417 782 357 m 168 353 q 196 288 168 311 q 251 265 224 265 q 298 275 279 265 q 329 295 317 285 q 357 332 342 306 q 378 372 372 358 q 400 423 385 386 q 421 472 415 460 q 340 482 379 482 q 219 447 269 482 q 168 353 168 413 m 857 929 q 1032 811 1032 929 q 1022 767 1032 786 l 682 767 q 732 624 729 728 q 863 505 811 588 q 915 336 915 422 q 858 186 915 250 q 704 122 801 122 q 585 157 639 122 q 510 256 532 192 q 322 122 440 122 q 119 221 204 122 q 35 419 35 319 q 92 583 35 519 q 246 647 149 647 q 365 613 311 647 q 440 514 418 578 q 578 640 496 619 q 547 767 575 735 l 64 767 q -111 892 -111 767 q -104 929 -111 915 l 857 929 z "},"ऴ":{"ha":963,"x_min":-111,"x_max":1032,"o":"m 114 -29 q 114 -12 114 -29 q 133 26 114 6 q 188 46 153 46 q 253 15 222 46 q 283 -49 283 -15 q 264 -103 283 -83 q 209 -124 244 -124 q 144 -94 174 -124 q 114 -29 114 -64 m 782 417 q 754 481 782 458 q 699 504 726 504 q 652 494 671 504 q 621 474 633 485 q 593 438 608 464 q 572 397 578 411 q 550 347 565 383 q 529 297 535 310 q 610 288 571 288 q 731 322 681 288 q 782 417 782 357 m 168 353 q 196 288 168 311 q 251 265 224 265 q 298 275 279 265 q 329 295 317 285 q 357 332 342 306 q 378 372 372 358 q 400 423 385 386 q 421 472 415 460 q 340 482 379 482 q 219 447 269 482 q 168 353 168 413 m 857 929 q 1032 811 1032 929 q 1022 767 1032 786 l 682 767 q 732 624 729 728 q 863 505 811 588 q 915 336 915 422 q 858 186 915 250 q 704 122 801 122 q 585 157 639 122 q 510 256 532 192 q 322 122 440 122 q 119 221 204 122 q 35 419 35 319 q 92 583 35 519 q 246 647 149 647 q 365 613 311 647 q 440 514 418 578 q 578 640 496 619 q 547 767 575 735 l 64 767 q -111 892 -111 767 q -104 929 -111 915 l 857 929 z "},"व":{"ha":789,"x_min":-111,"x_max":876,"o":"m 503 465 l 504 622 q 483 767 504 735 l 64 767 q -111 892 -111 767 q -104 929 -111 915 l 701 929 q 876 811 876 929 q 867 767 876 786 l 635 767 q 689 599 689 725 l 682 146 q 703 0 682 35 q 644 -10 678 -10 q 540 34 574 -10 q 506 128 506 78 q 517 214 506 178 q 371 164 458 164 q 142 272 243 164 q 40 479 40 379 q 101 629 40 579 q 236 679 161 679 q 360 645 311 679 q 410 561 410 611 q 389 485 410 511 q 300 510 349 510 q 219 483 251 510 q 186 413 186 457 q 219 340 186 368 q 308 313 251 313 q 419 355 365 313 q 503 465 472 397 z "},"श":{"ha":1007,"x_min":42,"x_max":1094,"o":"m 604 581 q 522 364 604 438 q 317 288 439 290 q 522 147 386 147 q 588 154 558 147 q 603 85 603 124 q 576 16 603 46 q 497 -14 550 -14 q 197 307 317 -14 q 85 380 129 332 q 42 488 42 428 q 65 546 42 521 q 125 571 88 571 q 260 442 210 571 q 401 504 344 443 q 458 667 458 565 q 440 746 458 711 q 391 781 421 781 q 346 758 361 781 q 331 702 331 736 q 349 630 331 668 q 396 572 368 592 q 342 547 378 547 q 226 609 282 547 q 169 750 169 671 q 211 878 169 829 q 330 928 253 928 q 474 867 407 928 q 572 729 540 807 q 604 581 604 651 m 715 201 l 722 621 q 713 735 722 708 q 665 799 704 761 q 626 892 626 838 q 633 929 626 915 l 919 929 q 1094 811 1094 929 q 1085 767 1094 786 l 851 767 q 907 599 907 726 l 900 146 q 921 0 900 35 q 863 -10 896 -10 q 715 201 715 -10 z "},"ष":{"ha":800,"x_min":-104,"x_max":888,"o":"m 514 622 q 493 767 514 735 l 207 767 q 306 710 263 746 q 372 655 349 675 q 440 592 394 635 q 514 525 486 550 l 514 622 m 254 576 l 253 486 q 272 391 253 422 q 347 360 292 360 q 497 431 431 360 q 240 657 390 532 q 254 576 254 622 m 699 599 l 692 146 q 713 0 692 35 q 654 -10 689 -10 q 544 40 579 -10 q 510 151 510 90 q 522 253 510 211 q 413 224 469 224 q 183 326 293 224 q 74 526 74 428 q 71 695 74 649 q 53 767 68 742 q -104 892 -104 771 q -97 929 -104 915 l 713 929 q 888 811 888 929 q 878 767 888 786 l 644 767 q 699 599 699 725 z "},"स":{"ha":1033,"x_min":-103,"x_max":1121,"o":"m 506 538 q 499 476 506 508 q 561 471 526 471 q 749 518 664 471 l 749 622 q 728 767 749 735 l 414 767 q 506 538 506 658 m 933 599 l 926 146 q 947 0 926 35 q 889 -10 922 -10 q 742 201 742 -10 q 744 328 742 236 q 685 325 726 325 q 456 386 551 325 q 271 300 389 304 q 343 187 299 228 q 464 146 388 146 q 508 151 490 146 q 522 83 522 121 q 496 16 522 46 q 417 -14 469 -14 q 157 324 256 -14 q 60 396 99 350 q 22 491 22 442 q 45 569 22 540 q 110 599 68 599 q 178 568 153 599 q 221 481 203 538 q 316 525 283 482 q 349 628 349 568 q 288 767 349 721 l 72 767 q -103 892 -103 767 q -96 929 -103 915 l 946 929 q 1121 811 1121 929 q 1111 767 1121 786 l 879 767 q 933 599 933 725 z "},"ह":{"ha":682,"x_min":-97,"x_max":782,"o":"m 267 669 l 389 668 q 442 707 442 668 q 429 740 442 724 q 397 767 417 757 l 78 767 q -97 892 -97 767 q -90 929 -97 915 l 607 929 q 782 811 782 929 q 772 767 782 786 l 519 767 q 586 629 586 706 q 547 542 586 576 q 435 507 508 507 l 311 508 q 221 442 221 508 q 233 393 221 418 q 346 414 285 414 q 554 334 467 414 q 642 167 642 254 q 605 74 642 110 q 517 38 568 38 q 429 65 467 38 q 385 143 392 93 q 463 173 435 150 q 492 223 492 196 q 473 265 492 250 q 419 281 454 281 q 303 237 356 281 q 250 117 250 193 q 326 -8 250 42 q 503 -58 403 -58 q 582 -50 542 -58 q 592 -95 592 -69 q 563 -141 592 -121 q 483 -161 535 -161 q 204 -59 324 -161 q 85 183 85 43 q 149 340 85 279 q 72 514 72 425 q 121 626 72 582 q 267 669 169 669 z "},"़":{"ha":0,"x_min":-403,"x_max":-233,"o":"m -308 -326 q -325 -326 -308 -326 q -373 -297 -343 -326 q -403 -232 -403 -267 q -383 -177 -403 -197 q -329 -157 -364 -157 q -264 -187 -294 -157 q -233 -252 -233 -218 q -253 -306 -233 -286 q -308 -326 -272 -326 z "},"ऽ":{"ha":692,"x_min":47,"x_max":626,"o":"m 160 682 q 143 708 160 682 q 126 785 126 735 q 151 867 126 835 q 223 911 175 899 q 304 926 271 924 q 392 929 338 929 q 478 926 446 929 q 549 914 510 924 q 626 811 626 892 q 618 769 626 786 q 447 771 532 771 q 338 760 363 771 q 314 717 314 749 q 346 649 314 686 q 424 572 378 611 q 515 488 469 532 q 593 388 561 444 q 625 272 625 331 q 563 126 625 181 q 388 71 501 71 q 161 163 275 71 q 47 331 47 256 q 86 382 47 369 q 343 228 217 228 q 424 252 394 228 q 454 320 454 276 q 420 410 454 364 q 338 499 386 456 q 242 585 290 542 q 160 682 194 629 z "},"ा":{"ha":393,"x_min":-115,"x_max":481,"o":"m 101 201 l 108 622 q 88 767 108 735 l 60 767 q -115 892 -115 767 q -108 929 -115 915 l 306 929 q 481 811 481 929 q 471 767 481 786 l 239 767 q 293 599 293 725 l 286 146 q 307 0 286 35 q 249 -10 283 -10 q 101 201 101 -10 z "},"ि":{"ha":393,"x_min":-115,"x_max":967,"o":"m 101 201 l 108 636 q 103 767 108 717 l 60 767 q -115 892 -115 767 q -108 929 -115 915 l 78 929 q 68 969 75 943 q 58 1008 61 994 q 50 1040 54 1021 q 43 1113 43 1072 q 118 1276 43 1217 q 310 1336 193 1336 q 551 1299 426 1336 q 763 1211 675 1263 q 909 1108 851 1160 q 967 1026 967 1057 q 933 979 967 994 q 651 1124 794 1075 q 413 1172 508 1172 q 211 1018 211 1172 q 221 929 211 972 l 306 929 q 481 811 481 929 q 471 767 481 786 l 276 767 q 293 631 293 704 l 286 146 q 307 0 286 35 q 249 -10 283 -10 q 101 201 101 -10 z "},"ी":{"ha":393,"x_min":-343,"x_max":481,"o":"m 101 201 l 108 651 q 106 767 108 694 l 60 767 q -115 892 -115 767 q -108 929 -115 915 l 92 929 q -81 1181 56 1181 q -158 1147 -129 1181 q -186 1070 -186 1114 q -164 992 -186 1026 q -207 981 -181 981 q -304 1034 -265 981 q -343 1161 -343 1088 q -290 1285 -343 1235 q -156 1336 -236 1336 q 86 1222 -19 1336 q 247 929 192 1107 l 306 929 q 481 811 481 929 q 471 767 481 786 l 283 767 q 293 629 293 703 l 286 146 q 307 0 286 35 q 249 -10 283 -10 q 101 201 101 -10 z "},"ु":{"ha":0,"x_min":-599,"x_max":39,"o":"m 39 -192 q 39 -235 39 -192 q -21 -330 39 -278 q -174 -382 -81 -382 q -371 -333 -268 -382 q -536 -221 -474 -283 q -599 -114 -599 -158 q -561 -57 -599 -69 q -400 -188 -487 -142 q -242 -235 -312 -235 q -131 -207 -171 -235 q -92 -140 -92 -179 q -103 -112 -92 -124 q -142 -100 -115 -100 q -197 -122 -169 -100 q -233 -174 -224 -143 q -306 -139 -279 -169 q -332 -67 -332 -108 q -298 5 -332 -26 q -206 36 -264 36 q -39 -35 -117 36 q 39 -192 39 -106 z "},"ू":{"ha":0,"x_min":-407,"x_max":239,"o":"m -162 -382 q -329 -311 -251 -382 q -407 -152 -407 -240 q -345 -14 -407 -64 q -199 36 -283 36 q -34 -1 -115 36 q 106 -92 47 -39 q 201 -201 164 -144 q 239 -292 239 -258 q 222 -340 239 -325 q 190 -357 204 -356 q 48 -187 135 -264 q -144 -111 -39 -111 q -241 -140 -206 -111 q -276 -206 -276 -168 q -265 -234 -276 -222 q -226 -246 -253 -246 q -172 -224 -199 -246 q -135 -172 -144 -203 q -62 -207 -89 -176 q -36 -278 -36 -237 q -70 -351 -36 -319 q -162 -382 -104 -382 z "},"ृ":{"ha":0,"x_min":-446,"x_max":69,"o":"m -446 -81 q -390 61 -446 10 q -262 113 -335 113 q -179 82 -215 113 q -143 -10 -143 51 q -254 -55 -211 -15 q -297 -138 -297 -94 q -274 -204 -297 -182 q -201 -226 -250 -226 q -106 -186 -151 -226 q -49 -85 -61 -146 q 34 -124 -1 -90 q 69 -212 69 -157 q 10 -313 69 -268 q -151 -358 -49 -358 q -349 -276 -253 -358 q -446 -81 -446 -193 z "},"ॄ":{"ha":0,"x_min":-435,"x_max":81,"o":"m -22 -357 q 49 -392 18 -361 q 81 -474 81 -424 q 29 -565 81 -525 q -111 -606 -22 -606 q -285 -533 -200 -606 q -369 -361 -369 -461 q -331 -253 -369 -296 q -435 -58 -435 -172 q -383 67 -435 21 q -273 113 -331 113 q -179 82 -215 113 q -143 -10 -143 51 q -249 -49 -207 -15 q -292 -117 -292 -83 q -274 -166 -292 -150 q -229 -182 -257 -182 q -135 -137 -167 -182 q -88 -165 -108 -143 q -68 -221 -68 -186 q -94 -282 -68 -256 q -152 -321 -121 -308 q -210 -357 -183 -333 q -236 -412 -236 -381 q -216 -460 -236 -443 q -154 -478 -196 -478 q -73 -443 -112 -478 q -22 -357 -33 -408 z "},"ॅ":{"ha":0,"x_min":-482,"x_max":89,"o":"m -218 1181 q -95 1212 -153 1181 q -8 1306 -37 1243 q 58 1273 28 1303 q 89 1201 89 1243 q 10 1081 89 1125 q -154 1038 -69 1038 q -383 1102 -283 1038 q -482 1235 -482 1167 q -443 1296 -482 1275 q -218 1181 -358 1181 z "},"ॆ":{"ha":0,"x_min":-729,"x_max":-115,"o":"m -540 1171 q -446 1196 -507 1171 q -349 1221 -385 1221 q -183 1139 -251 1221 q -115 958 -115 1057 q -158 841 -115 893 q -274 789 -200 789 q -351 819 -319 789 q -382 893 -382 850 q -375 929 -382 911 q -276 953 -317 929 q -236 1008 -236 978 q -304 1068 -236 1068 q -399 1043 -337 1068 q -496 1018 -460 1018 q -661 1100 -593 1018 q -729 1281 -729 1182 q -687 1398 -729 1346 q -571 1450 -644 1450 q -494 1419 -525 1450 q -462 1346 -462 1389 q -469 1310 -462 1328 q -568 1285 -528 1310 q -608 1225 -608 1261 q -540 1171 -608 1171 z "},"े":{"ha":0,"x_min":-637,"x_max":-147,"o":"m -449 1132 q -535 1075 -506 1132 q -610 1124 -583 1088 q -637 1207 -637 1161 q -603 1286 -637 1253 q -504 1319 -569 1319 q -368 1267 -439 1319 q -251 1145 -297 1215 q -176 1013 -204 1075 q -147 924 -147 951 q -165 881 -147 896 q -210 867 -183 867 q -449 1132 -340 1132 z "},"ै":{"ha":0,"x_min":-711,"x_max":-157,"o":"m -515 1319 q -515 1345 -515 1319 q -484 1402 -515 1371 q -398 1433 -453 1433 q -292 1386 -343 1433 q -214 1267 -242 1339 q -157 979 -157 1118 q -160 931 -157 949 q -217 867 -167 882 q -490 1056 -392 1056 q -555 1036 -526 1056 q -592 983 -583 1017 q -675 1017 -639 983 q -711 1103 -711 1051 q -671 1186 -711 1154 q -574 1218 -631 1218 q -402 1163 -489 1218 q -251 1033 -315 1107 q -403 1251 -299 1251 q -469 1231 -436 1251 q -515 1319 -515 1267 z "},"ॉ":{"ha":393,"x_min":-125,"x_max":476,"o":"m 203 1038 q -26 1102 74 1038 q -125 1235 -125 1167 q -86 1296 -125 1275 q 139 1181 -1 1181 q 262 1212 204 1181 q 349 1306 319 1243 q 415 1273 385 1303 q 446 1201 446 1243 q 367 1081 446 1125 q 203 1038 288 1038 m 97 201 l 104 622 q 83 767 104 735 l 56 767 q -119 892 -119 767 q -112 929 -119 915 l 301 929 q 476 811 476 929 q 467 767 476 786 l 235 767 q 289 599 289 725 l 282 146 q 303 0 282 35 q 244 -10 278 -10 q 97 201 97 -10 z "},"ॊ":{"ha":393,"x_min":-321,"x_max":481,"o":"m 101 201 l 108 622 q 88 767 108 735 l 60 767 q -115 892 -115 767 q -108 929 -115 915 l 33 929 q 132 953 92 929 q 172 1008 172 978 q 104 1068 172 1068 q 10 1043 71 1068 q -87 1018 -51 1018 q -253 1100 -185 1018 q -321 1281 -321 1182 q -278 1398 -321 1346 q -162 1450 -236 1450 q -85 1419 -117 1450 q -54 1346 -54 1389 q -61 1310 -54 1328 q -160 1285 -119 1310 q -200 1225 -200 1261 q -132 1171 -200 1171 q -37 1196 -99 1171 q 60 1221 24 1221 q 225 1139 157 1221 q 293 958 293 1057 q 290 929 293 949 l 306 929 q 481 811 481 929 q 471 767 481 786 l 239 767 q 293 599 293 725 l 286 146 q 307 0 286 35 q 249 -10 283 -10 q 101 201 101 -10 z "},"ो":{"ha":393,"x_min":-244,"x_max":476,"o":"m 97 201 l 104 622 q 83 767 104 735 l 56 767 q -119 892 -119 767 q -112 929 -119 915 l 151 929 q -56 1132 42 1132 q -142 1075 -114 1132 q -217 1124 -190 1088 q -244 1207 -244 1161 q -210 1286 -244 1253 q -112 1319 -176 1319 q 22 1269 -47 1319 q 138 1151 92 1219 q 214 1022 185 1083 q 246 929 243 960 l 301 929 q 476 811 476 929 q 467 767 476 786 l 235 767 q 289 599 289 725 l 282 146 q 303 0 282 35 q 244 -10 278 -10 q 97 201 97 -10 z "},"ौ":{"ha":393,"x_min":-294,"x_max":476,"o":"m 97 201 l 104 622 q 83 767 104 735 l 56 767 q -119 892 -119 767 q -112 929 -119 915 l 140 929 q -74 1056 11 1056 q -138 1036 -110 1056 q -175 983 -167 1017 q -258 1017 -222 983 q -294 1103 -294 1051 q -254 1186 -294 1154 q -157 1218 -214 1218 q 15 1163 -72 1218 q 165 1033 101 1107 q 14 1251 118 1251 q -53 1231 -19 1251 q -99 1319 -99 1267 q -67 1402 -99 1371 q 19 1433 -36 1433 q 124 1386 74 1433 q 203 1267 175 1339 q 260 979 260 1118 q 257 929 260 944 l 301 929 q 476 811 476 929 q 467 767 476 786 l 235 767 q 289 599 289 725 l 282 146 q 303 0 282 35 q 244 -10 278 -10 q 97 201 97 -10 z "},"्":{"ha":0,"x_min":-340,"x_max":83,"o":"m -325 -228 q -340 -164 -340 -201 q -308 -96 -340 -126 q -221 -65 -275 -65 q -19 -176 -121 -65 q 83 -356 83 -286 q 51 -397 83 -387 q -236 -211 -86 -211 q -325 -228 -279 -211 z "},"ॐ":{"ha":1274,"x_min":14,"x_max":1218,"o":"m 781 1192 q 781 1169 781 1192 q 754 1120 781 1147 q 682 1093 728 1093 q 597 1132 636 1093 q 558 1217 558 1171 q 584 1289 558 1263 q 656 1315 610 1315 q 741 1276 701 1315 q 781 1192 781 1236 m 736 863 q 508 927 607 863 q 408 1060 408 992 q 447 1121 408 1100 q 672 1006 532 1006 q 795 1037 738 1006 q 882 1131 853 1068 q 949 1098 918 1128 q 979 1026 979 1068 q 900 906 979 950 q 736 863 821 863 m 915 781 q 1124 662 1031 781 q 1218 410 1218 543 q 1147 188 1218 276 q 971 100 1075 100 q 876 134 914 100 q 839 233 839 168 q 1002 319 942 233 q 1063 515 1063 404 q 1044 592 1063 558 q 983 626 1025 626 q 913 576 942 626 q 865 467 883 526 q 799 358 846 408 q 681 308 751 308 q 622 319 649 308 q 636 235 636 274 q 577 93 636 150 q 424 36 518 36 q 253 75 331 36 q 125 167 175 114 q 44 274 75 221 q 14 357 14 326 q 72 425 14 407 q 194 265 119 331 q 361 199 268 199 q 453 228 415 199 q 490 313 490 258 q 476 367 490 343 q 449 396 461 390 q 349 379 406 379 q 243 408 292 379 q 194 486 194 438 q 225 558 194 535 q 303 581 256 581 q 390 563 350 581 q 467 669 467 611 q 441 719 467 703 q 372 736 415 736 q 276 717 329 736 q 189 669 224 699 q 132 765 132 707 q 185 854 132 824 q 307 885 239 885 q 513 801 426 885 q 599 600 599 718 q 540 454 599 513 q 600 439 567 439 q 661 474 633 439 q 708 560 689 510 q 749 660 726 610 q 813 745 771 710 q 915 781 856 781 z "},"क़":{"ha":1089,"x_min":-111,"x_max":1158,"o":"m 161 25 q 161 42 161 25 q 181 80 161 60 q 235 100 200 100 q 300 69 269 100 q 331 5 331 39 q 311 -49 331 -29 q 256 -69 292 -69 q 191 -40 221 -69 q 161 25 161 -10 m 633 396 l 629 146 q 650 0 629 35 q 592 -10 625 -10 q 489 33 521 -10 q 457 126 457 75 q 467 211 457 178 q 342 168 419 168 q 134 263 226 168 q 42 478 42 357 q 94 616 42 557 q 226 675 146 675 q 319 638 283 675 q 356 550 356 601 q 354 535 356 542 q 222 483 272 535 q 186 403 186 447 q 213 333 186 358 q 275 308 239 308 q 449 428 372 308 q 451 635 451 536 q 431 767 451 735 l 64 767 q -111 892 -111 767 q -104 929 -111 915 l 983 929 q 1158 811 1158 929 q 1149 767 1158 786 l 583 767 q 624 658 624 733 q 619 618 624 636 q 739 661 669 661 q 942 565 849 661 q 1036 350 1036 469 q 984 212 1036 271 q 851 153 932 153 q 758 190 794 153 q 722 278 722 226 q 724 293 722 286 q 857 344 807 293 q 892 426 892 381 q 865 495 892 471 q 803 519 839 519 q 633 396 710 519 z "},"ख़":{"ha":1132,"x_min":-76,"x_max":1219,"o":"m 69 -8 q 69 9 69 -8 q 89 47 69 26 q 143 67 108 67 q 208 36 178 67 q 239 -28 239 6 q 219 -83 239 -62 q 165 -103 200 -103 q 99 -73 129 -103 q 69 -8 69 -43 m 465 533 q 410 390 465 447 q 253 325 354 332 q 366 218 293 256 q 522 181 439 181 q 753 264 657 181 q 850 467 850 347 q 833 531 850 504 q 781 557 815 557 q 728 531 746 557 q 710 464 710 504 q 746 361 710 393 q 692 344 724 344 q 584 390 629 344 q 539 511 539 435 q 590 635 539 588 q 718 683 640 683 q 856 635 796 683 q 826 767 853 740 l 367 767 q 465 533 465 658 m 1032 599 l 1025 146 q 1046 0 1025 35 q 988 -10 1021 -10 q 895 25 926 -10 q 864 119 864 60 q 867 161 864 131 q 735 67 817 104 q 558 29 653 29 q 308 114 433 29 q 133 344 182 199 q 53 408 83 368 q 22 488 22 447 q 44 554 22 529 q 104 579 65 579 q 210 464 178 579 q 276 513 251 478 q 301 597 301 547 q 243 767 301 699 l 99 767 q -76 892 -76 767 q -69 929 -76 915 l 1044 929 q 1219 811 1219 929 q 1210 767 1219 786 l 978 767 q 1032 599 1032 725 z "},"ग़":{"ha":850,"x_min":-115,"x_max":938,"o":"m 126 90 q 126 108 126 90 q 146 145 126 125 q 200 165 165 165 q 265 135 235 165 q 296 70 296 104 q 276 16 296 36 q 222 -4 257 -4 q 156 26 186 -4 q 126 90 126 56 m 557 201 l 564 622 q 543 767 564 735 l 281 767 q 363 640 332 717 q 393 479 393 564 q 346 346 393 394 q 228 297 299 297 q 97 351 157 297 q 38 481 38 404 q 61 547 38 524 q 119 569 85 569 q 207 517 172 569 q 224 588 224 539 q 136 767 224 700 l 60 767 q -115 892 -115 767 q -108 929 -115 915 l 763 929 q 938 811 938 929 q 928 767 938 786 l 694 767 q 749 599 749 725 l 742 146 q 763 0 742 35 q 704 -10 739 -10 q 557 201 557 -10 z "},"ज़":{"ha":1007,"x_min":-90,"x_max":1094,"o":"m 478 -21 q 478 -3 478 -21 q 497 34 478 14 q 551 54 517 54 q 617 24 586 54 q 647 -41 647 -7 q 628 -95 647 -75 q 573 -115 608 -115 q 508 -85 538 -115 q 478 -21 478 -56 m 717 201 l 722 465 l 501 465 q 575 299 575 385 q 529 171 575 214 q 407 128 483 128 q 253 181 331 128 q 126 306 175 233 q 48 447 78 378 q 18 553 18 515 q 37 607 18 590 q 82 625 56 624 q 214 377 142 457 q 346 297 286 297 q 408 321 388 297 q 429 383 429 344 q 393 468 429 422 q 271 590 271 483 q 278 628 271 614 l 724 628 q 703 767 724 732 l 85 767 q -90 892 -90 767 q -83 929 -90 915 l 919 929 q 1094 811 1094 929 q 1085 767 1094 786 l 854 767 q 908 599 908 725 l 901 146 q 922 0 901 35 q 864 -10 897 -10 q 717 201 717 -10 z "},"ड़":{"ha":763,"x_min":-97,"x_max":874,"o":"m 347 -182 q 347 -165 347 -182 q 367 -127 347 -147 q 421 -107 386 -107 q 486 -137 456 -107 q 517 -202 517 -168 q 497 -256 517 -236 q 442 -276 478 -276 q 377 -247 407 -276 q 347 -182 347 -217 m 561 269 l 367 260 q 183 338 261 260 q 104 524 104 417 q 156 643 104 600 q 301 686 207 686 q 458 685 396 686 q 521 725 521 685 q 496 767 521 747 l 78 767 q -97 892 -97 767 q -90 929 -97 915 l 699 929 q 874 811 874 929 q 864 767 874 786 l 613 767 q 665 651 665 711 q 626 557 665 592 q 514 522 588 522 l 368 524 q 226 468 226 524 q 288 425 226 425 l 488 438 q 663 363 589 438 q 738 192 738 288 q 673 42 738 97 q 499 -12 608 -12 q 191 70 331 -12 q 51 228 51 153 q 89 276 51 263 q 231 183 144 217 q 408 149 317 149 q 556 173 500 149 q 613 233 613 197 q 561 269 613 269 z "},"ढ़":{"ha":715,"x_min":-122,"x_max":806,"o":"m 294 -132 q 294 -115 294 -132 q 314 -77 294 -97 q 368 -57 333 -57 q 433 -87 403 -57 q 464 -152 464 -118 q 444 -206 464 -186 q 390 -226 425 -226 q 324 -197 354 -226 q 294 -132 294 -167 m 631 929 q 806 811 806 929 q 796 767 806 786 l 517 767 q 569 669 569 722 q 530 583 569 617 q 434 526 490 549 q 322 479 378 504 q 227 410 267 454 q 188 301 188 367 q 243 190 188 235 q 377 146 299 146 q 500 188 456 146 q 544 278 544 231 q 533 313 544 300 q 504 326 521 326 q 446 267 461 326 q 440 218 440 249 q 407 213 428 213 q 328 244 363 213 q 293 331 293 276 q 335 421 293 385 q 439 457 376 457 q 610 385 533 457 q 688 217 688 314 q 615 67 688 121 q 442 13 542 13 q 250 59 342 13 q 95 189 158 106 q 32 367 32 272 q 60 486 32 433 q 130 569 88 539 q 221 624 172 599 q 311 664 269 650 q 410 738 410 699 q 396 767 410 753 l 53 767 q -122 892 -122 767 q -115 929 -122 915 l 631 929 z "},"फ़":{"ha":1096,"x_min":-104,"x_max":1165,"o":"m 82 136 q 82 153 82 136 q 101 191 82 171 q 156 211 121 211 q 221 181 190 211 q 251 116 251 150 q 232 62 251 82 q 177 42 213 42 q 112 72 142 42 q 82 136 82 101 m 457 446 l 458 622 q 438 767 458 735 l 196 767 q 249 599 249 726 l 246 514 q 265 419 246 450 q 342 388 285 388 q 457 446 399 388 m 640 396 l 636 146 q 657 0 636 35 q 599 -10 633 -10 q 488 42 524 -10 q 453 155 453 94 q 464 260 453 215 q 406 251 436 251 q 173 347 279 251 q 67 547 67 443 q 65 696 67 650 q 46 767 64 742 q -104 892 -104 774 q -97 929 -104 915 l 990 929 q 1165 811 1165 929 q 1156 767 1165 786 l 589 767 q 629 657 629 731 q 626 617 629 644 q 746 661 674 661 q 951 566 860 661 q 1043 350 1043 471 q 991 212 1043 271 q 858 153 939 153 q 765 190 801 153 q 729 278 729 226 q 731 293 729 286 q 867 347 817 293 q 899 427 899 383 q 872 495 899 471 q 810 519 846 519 q 640 396 717 519 z "},"य़":{"ha":846,"x_min":-69,"x_max":933,"o":"m 144 36 q 144 53 144 36 q 164 91 144 71 q 218 111 183 111 q 283 81 253 111 q 314 16 314 50 q 294 -38 314 -18 q 240 -58 275 -58 q 174 -28 204 -58 q 144 36 144 1 m 556 463 l 557 622 q 552 721 557 693 q 532 767 547 749 l 364 767 q 406 642 406 707 q 376 534 406 576 q 313 472 347 492 q 219 392 219 419 q 313 344 219 344 q 451 375 381 344 q 556 463 521 406 m 742 599 l 735 146 q 756 0 735 35 q 697 -10 731 -10 q 597 36 628 -10 q 565 137 565 82 q 575 238 565 192 q 403 188 504 188 q 161 288 276 188 q 46 483 46 389 q 153 589 46 533 q 228 648 194 611 q 261 718 261 685 q 250 767 261 751 l 106 767 q -69 892 -69 767 q -62 929 -69 915 l 758 929 q 933 811 933 929 q 924 767 933 786 l 688 767 q 742 599 742 725 z "},"ॠ":{"ha":1085,"x_min":-115,"x_max":1172,"o":"m 603 599 l 601 447 q 756 511 704 456 q 719 604 719 560 q 746 676 719 649 q 816 704 772 704 q 899 660 860 704 q 939 554 939 617 q 897 435 939 492 q 965 314 965 379 q 917 219 965 269 q 868 143 868 169 q 913 106 868 106 q 995 145 957 106 q 1047 233 1033 185 q 1136 129 1136 211 q 1084 34 1136 68 q 957 0 1032 0 q 806 55 882 0 q 729 189 729 110 q 756 257 729 225 q 810 315 783 289 q 838 356 838 340 q 836 375 838 371 q 619 310 746 310 l 599 310 q 596 117 596 199 q 617 0 596 35 q 558 -10 593 -10 q 449 40 482 -10 q 415 153 415 89 q 432 268 415 218 q 149 156 249 156 q 52 185 92 156 q 13 283 13 215 q 350 415 124 283 q 297 453 315 440 q 179 489 242 489 q 126 474 150 489 q 90 433 101 458 q 33 476 57 447 q 10 550 10 506 q 45 624 10 594 q 135 654 81 654 q 237 631 190 654 q 338 558 283 607 q 417 493 393 508 q 418 633 418 531 q 397 767 418 735 l 60 767 q -115 892 -115 767 q -108 929 -115 915 l 997 929 q 1172 811 1172 929 q 1163 767 1172 786 l 549 767 q 603 599 603 725 z "},"ॡ":{"ha":1019,"x_min":-115,"x_max":1107,"o":"m 932 929 q 1107 811 1107 929 q 1097 767 1107 786 l 715 767 q 769 599 769 725 l 769 585 q 888 484 842 547 q 935 355 935 421 q 906 241 935 289 q 843 167 878 193 q 751 58 751 97 q 796 18 751 18 q 876 72 840 18 q 937 35 915 61 q 958 -24 958 8 q 937 -83 958 -56 q 889 -126 915 -110 q 841 -166 863 -142 q 819 -213 819 -190 q 832 -249 819 -236 q 867 -262 844 -262 q 947 -229 911 -262 q 994 -149 982 -196 q 1063 -181 1033 -151 q 1093 -260 1093 -211 q 1045 -349 1093 -308 q 915 -389 997 -389 q 760 -326 833 -389 q 688 -185 688 -264 q 728 -58 688 -106 q 644 16 678 -32 q 610 113 610 64 q 636 199 610 161 q 694 262 663 238 q 751 323 725 286 q 778 399 778 360 q 753 460 778 438 q 691 482 728 482 q 619 459 654 482 q 564 390 583 436 q 571 323 571 358 q 549 252 571 288 q 478 217 526 217 q 403 260 431 217 q 376 361 376 303 q 404 475 376 419 q 336 492 374 492 q 247 451 276 492 q 217 343 217 411 q 322 40 217 197 q 267 8 304 8 q 174 72 229 8 q 76 234 118 136 q 35 428 35 332 q 96 579 35 524 q 260 635 157 635 q 460 556 363 635 q 585 619 515 610 l 585 622 q 564 767 585 735 l 60 767 q -115 892 -115 767 q -108 929 -115 915 l 932 929 z "},"।":{"ha":842,"x_min":344,"x_max":564,"o":"m 550 725 q 543 146 550 725 q 564 0 543 35 q 506 -10 539 -10 q 358 201 358 -10 q 362 417 358 251 q 365 782 365 582 q 344 926 365 894 q 403 936 369 936 q 550 725 550 936 z "},"॥":{"ha":1065,"x_min":344,"x_max":911,"o":"m 550 725 q 543 146 550 725 q 564 0 543 35 q 506 -10 539 -10 q 358 201 358 -10 q 362 417 358 251 q 365 782 365 582 q 344 926 365 894 q 403 936 369 936 q 550 725 550 936 m 897 725 l 890 146 q 911 0 890 35 q 853 -10 886 -10 q 706 201 706 -10 q 709 417 706 251 q 713 782 713 582 q 692 926 713 894 q 750 936 717 936 q 897 725 897 936 z "},"०":{"ha":754,"x_min":81,"x_max":681,"o":"m 81 460 q 81 529 81 460 q 157 688 81 599 q 367 776 233 776 q 590 681 500 776 q 681 444 681 586 q 606 217 681 301 q 401 133 532 133 q 175 227 269 133 q 81 460 81 321 m 354 249 q 462 317 415 249 q 508 503 508 385 q 414 658 508 658 q 308 592 356 658 q 260 411 260 526 q 354 249 260 249 z "},"१":{"ha":675,"x_min":82,"x_max":586,"o":"m 586 613 q 556 506 586 554 q 481 429 525 458 q 394 378 438 400 q 319 337 350 356 q 289 299 289 318 q 317 249 289 281 q 378 191 344 218 q 440 124 413 164 q 468 38 468 85 q 434 -34 468 -8 q 363 -60 400 -60 q 250 8 288 -60 q 285 78 285 38 q 253 160 285 119 q 183 233 221 201 q 114 303 146 264 q 82 378 82 343 q 120 442 82 413 q 212 497 158 472 q 319 547 265 521 q 412 610 374 572 q 450 690 450 649 q 426 764 450 732 q 356 796 403 796 q 279 760 308 796 q 250 671 250 725 q 281 576 250 617 q 251 571 267 571 q 137 624 182 571 q 92 754 92 678 q 149 887 92 831 q 293 943 207 943 q 494 846 403 943 q 586 613 586 749 z "},"२":{"ha":699,"x_min":54,"x_max":628,"o":"m 531 76 q 575 82 557 76 q 589 14 589 51 q 563 -53 589 -24 q 483 -83 536 -83 q 204 276 310 -83 q 97 351 140 301 q 54 464 54 400 q 78 531 54 503 q 142 558 101 558 q 265 435 226 558 q 435 493 368 440 q 501 612 501 546 q 459 718 501 678 q 338 758 417 758 q 189 704 260 758 q 150 749 168 718 q 132 817 132 779 q 179 910 132 875 q 292 944 226 944 q 527 822 426 944 q 628 547 628 700 q 536 347 628 428 q 317 260 444 267 q 394 125 346 174 q 531 76 443 76 z "},"३":{"ha":683,"x_min":69,"x_max":610,"o":"m 525 521 q 610 329 610 425 q 538 177 610 233 q 363 121 465 121 q 310 124 346 121 q 429 40 356 40 q 488 63 468 40 q 526 -20 526 28 q 495 -99 526 -68 q 406 -131 464 -131 q 301 -83 347 -131 q 235 22 254 -36 q 210 149 217 81 q 108 215 146 172 q 69 301 69 257 q 93 372 69 346 q 156 397 117 397 q 272 275 243 397 q 315 271 293 271 q 419 303 375 271 q 464 384 464 336 q 439 460 464 432 q 339 442 399 442 q 231 471 279 442 q 182 549 182 500 q 213 620 182 597 q 286 643 243 643 q 379 626 329 643 q 446 725 446 671 q 420 775 446 758 q 351 792 394 792 q 256 773 308 792 q 168 725 203 754 q 111 821 111 763 q 165 910 111 879 q 286 940 218 940 q 492 857 406 940 q 578 656 578 774 q 525 521 578 579 z "},"४":{"ha":746,"x_min":14,"x_max":674,"o":"m 246 254 q 274 182 246 208 q 342 156 301 156 q 413 184 382 156 q 443 256 443 213 q 365 413 443 332 q 246 254 246 315 m 543 896 q 638 858 603 896 q 674 767 674 819 q 638 662 674 715 q 563 572 603 608 q 456 483 524 536 q 621 236 621 350 q 554 92 621 150 q 397 35 488 35 q 179 121 268 35 q 90 313 90 207 q 221 533 90 419 q 29 722 60 657 q 14 801 14 756 q 49 881 14 847 q 133 914 83 914 q 217 878 182 914 q 253 790 253 843 q 203 727 203 775 q 304 600 203 679 q 465 735 431 696 q 524 860 524 799 q 519 894 524 875 l 543 896 z "},"५":{"ha":789,"x_min":42,"x_max":788,"o":"m 772 92 q 788 22 788 61 q 761 -48 788 -18 q 682 -78 735 -78 q 461 207 542 -78 q 406 203 433 203 q 151 298 261 203 q 42 534 42 393 q 163 803 42 675 q 390 931 285 931 q 490 895 458 931 q 521 829 521 860 q 303 680 404 792 q 201 451 201 568 q 235 367 201 400 q 323 333 268 333 q 419 353 378 333 q 407 429 407 382 q 438 508 407 476 q 516 540 469 540 q 599 497 563 540 q 636 388 636 454 q 557 244 636 296 q 619 128 581 169 q 728 86 658 86 q 772 92 754 86 z "},"६":{"ha":703,"x_min":42,"x_max":675,"o":"m 675 3 q 642 -86 675 -50 q 558 -122 608 -122 q 472 -93 507 -122 q 432 -19 438 -64 q 510 18 485 -10 q 536 73 536 46 q 529 125 536 100 q 406 103 475 103 q 168 195 268 103 q 68 392 68 288 q 119 528 68 469 q 42 705 42 606 q 120 867 42 804 q 299 929 199 929 q 462 894 400 929 q 524 790 524 860 q 503 732 524 754 q 364 768 433 768 q 244 738 294 768 q 193 640 193 707 q 204 592 193 617 q 324 621 261 621 q 428 592 388 621 q 468 520 468 563 q 429 456 468 478 q 348 433 390 433 q 272 442 306 433 q 217 338 217 393 q 249 256 217 283 q 338 229 281 229 q 453 263 396 229 q 446 311 446 281 q 472 365 446 342 q 540 389 499 389 q 613 351 581 389 q 646 263 646 313 q 606 172 646 213 q 675 3 675 82 z "},"७":{"ha":917,"x_min":14,"x_max":869,"o":"m 508 633 q 649 460 508 510 q 553 400 629 400 q 401 476 478 400 q 324 667 324 551 q 385 815 324 757 q 531 872 447 872 q 765 755 661 872 q 869 456 869 638 q 776 169 869 274 q 532 65 683 65 q 337 122 426 65 q 190 264 247 178 q 92 458 132 350 q 14 850 14 660 q 103 933 14 933 q 249 413 142 599 q 503 226 356 226 q 665 309 613 226 q 717 508 717 392 q 681 683 717 624 q 603 742 646 742 q 535 714 561 742 q 508 633 508 686 z "},"८":{"ha":714,"x_min":42,"x_max":647,"o":"m 558 361 q 647 243 647 325 q 581 103 647 161 q 392 46 515 46 q 141 142 240 46 q 42 369 42 239 q 139 608 42 499 q 418 931 342 835 l 446 965 q 516 923 490 954 q 542 854 542 892 q 522 779 542 817 q 481 715 503 742 q 404 625 460 688 q 314 521 349 563 q 196 297 196 382 q 230 217 196 247 q 320 186 264 186 q 442 228 376 186 q 558 361 507 269 z "},"९":{"ha":676,"x_min":14,"x_max":622,"o":"m 351 785 q 241 733 286 785 q 196 619 196 681 q 227 502 196 558 q 306 401 258 446 q 409 308 354 357 q 512 217 464 260 q 591 124 560 175 q 622 17 622 72 q 585 -74 622 -37 q 499 -111 549 -111 q 372 -28 419 -111 q 444 67 444 10 q 400 163 444 108 q 292 275 356 217 q 166 397 229 333 q 58 542 103 461 q 14 714 14 624 q 86 872 14 804 q 288 940 158 940 q 515 845 418 940 q 613 644 613 750 q 564 506 613 558 q 447 453 515 453 q 332 533 364 453 q 410 599 378 557 q 442 688 442 642 q 416 759 442 733 q 351 785 390 785 z "},"॰":{"ha":542,"x_min":69,"x_max":507,"o":"m 507 448 q 507 405 507 448 q 447 294 507 361 q 284 228 388 228 q 125 288 181 228 q 69 435 69 349 q 129 589 69 522 q 292 656 189 656 q 451 595 396 656 q 507 448 507 535 m 368 439 q 368 459 368 439 q 347 510 368 479 q 287 542 325 542 q 229 515 249 542 q 210 447 210 488 q 231 374 210 406 q 291 343 253 343 q 349 371 329 343 q 368 439 368 399 z "},"ॲ":{"ha":1104,"x_min":42,"x_max":1192,"o":"m 906 1038 q 677 1102 776 1038 q 578 1235 578 1167 q 617 1296 578 1275 q 842 1181 701 1181 q 965 1212 907 1181 q 1051 1306 1022 1243 q 1118 1273 1088 1303 q 1149 1201 1149 1243 q 1069 1081 1149 1125 q 906 1038 990 1038 m 992 599 l 985 146 q 1006 0 985 35 q 947 -10 981 -10 q 800 190 800 -10 q 814 342 800 254 q 751 336 792 336 q 654 358 710 336 q 664 290 664 319 q 605 149 664 206 q 452 92 546 92 q 281 131 358 92 q 153 223 203 169 q 72 329 103 276 q 42 413 42 382 q 100 481 42 463 q 222 320 147 386 q 389 254 296 254 q 481 284 443 254 q 518 368 518 314 q 503 422 518 399 q 476 451 489 446 q 376 435 433 435 q 271 464 319 435 q 222 542 222 493 q 253 613 222 590 q 328 636 283 636 q 417 617 372 636 q 494 725 494 664 q 469 775 494 758 q 400 792 443 792 q 304 773 357 792 q 217 725 251 754 q 160 821 160 763 q 213 910 160 879 q 335 940 267 940 q 540 857 454 940 q 626 656 626 774 q 568 511 626 569 q 688 478 622 478 q 806 517 754 478 q 807 639 807 547 q 783 767 807 731 l 785 768 q 651 892 651 778 q 658 929 651 915 l 1017 929 q 1192 811 1192 929 q 1182 767 1192 786 l 935 767 q 992 599 992 725 z "},"ॽ":{"ha":822,"x_min":188,"x_max":690,"o":"m 438 281 l 435 110 q 450 1 435 28 q 407 -6 431 -6 q 297 151 297 -6 l 297 275 q 312 478 297 425 q 333 541 326 531 q 360 578 340 551 q 397 620 381 606 q 449 669 413 635 q 506 722 486 703 q 557 808 557 776 q 471 876 557 876 q 254 789 360 876 q 188 899 188 836 q 242 997 188 961 q 367 1033 296 1033 q 591 951 492 1033 q 690 747 690 869 q 674 672 690 708 q 640 616 657 636 q 599 569 624 596 q 542 509 575 543 q 501 467 508 475 q 476 437 494 460 q 456 405 458 414 q 446 374 453 396 q 438 281 438 347 z "},"​":{"ha":0,"x_min":0,"x_max":0,"o":""},"‌":{"ha":15,"x_min":-33,"x_max":53,"o":"m -26 -418 l -28 1017 q 31 1101 -28 1101 q 53 1096 43 1101 q 46 1039 46 1083 l 47 -396 q -11 -481 47 -481 q -33 -475 -24 -481 q -26 -418 -26 -462 z "},"‍":{"ha":0,"x_min":-207,"x_max":185,"o":"m 25 849 l 26 -396 q -32 -481 26 -481 q -54 -475 -44 -481 q -47 -377 -47 -462 q -48 197 -47 -292 q -49 847 -49 686 l -103 797 q -166 764 -136 764 q -207 799 -196 764 l -64 932 l -207 1067 q -163 1100 -193 1100 q -101 1068 -133 1100 l -11 983 l 79 1068 q 141 1100 111 1100 q 185 1067 171 1100 l 42 932 l 185 799 q 144 764 174 764 q 81 797 114 764 l 25 849 z "},"–":{"ha":1103,"x_min":83,"x_max":1019,"o":"m 285 578 l 1011 578 q 1019 528 1019 563 q 1003 465 1019 494 q 966 422 986 436 q 914 400 946 408 q 818 392 875 392 l 94 392 q 83 449 83 418 q 100 508 83 481 q 137 549 117 536 q 189 569 157 561 q 285 578 228 578 z "},"—":{"ha":1442,"x_min":83,"x_max":1358,"o":"m 285 578 l 1350 578 q 1358 529 1358 564 q 1342 465 1358 494 q 1305 422 1325 436 q 1253 400 1285 408 q 1157 392 1214 392 l 94 392 q 83 449 83 418 q 100 508 83 481 q 137 549 117 536 q 189 569 157 561 q 285 578 228 578 z "},"‘":{"ha":485,"x_min":100,"x_max":385,"o":"m 292 1086 q 315 994 292 1036 q 385 935 339 953 q 337 867 371 894 q 244 840 303 840 q 143 883 186 840 q 100 994 100 925 q 181 1203 100 1114 q 332 1292 263 1292 q 378 1251 369 1292 q 292 1086 292 1186 z "},"’":{"ha":485,"x_min":100,"x_max":385,"o":"m 107 881 q 193 1050 193 943 q 100 1197 193 1157 q 148 1265 114 1238 q 240 1292 182 1292 q 342 1249 299 1292 q 385 1136 385 1207 q 303 929 385 1018 q 153 840 222 840 q 107 881 117 840 z "},"‚":{"ha":1000,"x_min":114,"x_max":415,"o":"m 114 -272 q 217 -76 217 -193 q 119 100 217 42 q 174 181 136 147 q 269 214 211 214 q 371 159 326 214 q 415 11 415 104 q 332 -217 415 -115 q 168 -318 249 -318 q 114 -272 125 -318 z "},"“":{"ha":819,"x_min":100,"x_max":719,"o":"m 626 1086 q 650 996 626 1038 q 719 935 674 954 q 672 867 706 894 q 579 840 638 840 q 478 883 521 840 q 435 994 435 925 q 517 1203 435 1114 q 667 1292 599 1292 q 714 1251 704 1292 q 626 1086 626 1188 m 292 1086 q 315 994 292 1036 q 385 935 339 953 q 337 867 371 894 q 244 840 303 840 q 143 883 186 840 q 100 994 100 925 q 181 1203 100 1114 q 332 1292 263 1292 q 378 1251 369 1292 q 292 1086 292 1186 z "},"”":{"ha":819,"x_min":100,"x_max":719,"o":"m 107 881 q 193 1050 193 943 q 100 1197 193 1157 q 148 1265 114 1238 q 240 1292 182 1292 q 342 1249 299 1292 q 385 1136 385 1207 q 303 929 385 1018 q 153 840 222 840 q 107 881 117 840 m 442 881 q 528 1050 528 943 q 435 1197 528 1157 q 483 1265 449 1238 q 575 1292 517 1292 q 676 1249 633 1292 q 719 1136 719 1207 q 638 929 719 1018 q 489 840 557 840 q 442 881 451 840 z "},"„":{"ha":1000,"x_min":114,"x_max":415,"o":"m 114 -272 q 217 -76 217 -193 q 119 100 217 42 q 174 181 136 147 q 269 214 211 214 q 371 159 326 214 q 415 11 415 104 q 332 -217 415 -115 q 168 -318 249 -318 q 114 -272 125 -318 z "},"†":{"ha":914,"x_min":14,"x_max":900,"o":"m 364 -149 l 358 475 q 367 749 358 682 q 25 740 256 740 q 14 794 14 760 q 31 857 14 829 q 67 897 47 885 q 119 917 88 910 q 212 926 158 926 q 365 922 265 926 q 356 1067 356 994 q 508 1285 356 1285 q 569 1275 543 1285 q 547 1112 547 1242 q 542 917 547 982 q 892 926 635 926 q 900 877 900 911 q 883 814 900 843 q 847 771 867 785 q 794 750 826 757 q 676 740 756 740 q 536 747 596 740 q 556 -90 556 583 q 401 -308 556 -308 q 340 -299 368 -308 q 364 -149 364 -262 z "},"‡":{"ha":914,"x_min":14,"x_max":906,"o":"m 569 1275 q 547 1112 547 1242 q 542 917 547 982 q 892 926 635 926 q 900 877 900 911 q 883 814 900 843 q 847 771 867 785 q 794 750 826 757 q 676 740 756 740 q 536 747 596 740 q 550 469 549 642 q 543 217 551 297 q 897 226 638 226 q 906 170 906 207 q 884 101 906 133 q 824 58 863 69 q 543 44 731 29 q 556 -90 556 -31 q 401 -308 556 -308 q 340 -299 368 -308 q 364 -140 364 -262 q 372 49 364 -17 q 31 40 261 40 q 18 96 18 63 q 35 157 18 129 q 72 197 51 185 q 125 217 92 210 q 240 226 163 226 q 368 222 318 226 q 358 481 358 297 q 368 749 358 664 q 25 740 288 740 q 14 794 14 760 q 31 857 14 829 q 67 897 47 885 q 119 917 88 910 q 212 926 158 926 q 365 922 265 926 q 356 1067 356 994 q 508 1285 356 1285 q 569 1275 543 1285 z "},"•":{"ha":772,"x_min":160,"x_max":607,"o":"m 607 614 q 528 432 607 511 q 357 353 450 353 q 212 407 264 353 q 160 540 160 461 q 240 721 160 642 q 412 800 321 800 q 555 747 503 800 q 607 614 607 693 z "},"…":{"ha":1457,"x_min":94,"x_max":1361,"o":"m 244 250 q 272 250 244 250 q 330 218 299 250 q 361 132 361 186 q 315 31 361 78 q 213 -17 268 -17 q 126 15 158 -17 q 94 101 94 47 q 142 203 94 156 q 244 250 190 250 m 744 250 q 772 250 744 250 q 830 218 799 250 q 861 132 861 186 q 815 31 861 78 q 713 -17 768 -17 q 626 15 658 -17 q 594 101 594 47 q 642 203 594 156 q 744 250 690 250 m 1244 250 q 1272 250 1244 250 q 1330 218 1299 250 q 1361 132 1361 186 q 1315 31 1361 78 q 1213 -17 1268 -17 q 1126 15 1158 -17 q 1094 101 1094 47 q 1142 203 1094 156 q 1244 250 1190 250 z "},"‰":{"ha":1865,"x_min":83,"x_max":1782,"o":"m 1782 291 q 1782 232 1782 291 q 1705 79 1782 174 q 1517 -15 1628 -15 q 1345 63 1406 -15 q 1285 260 1285 142 q 1358 472 1285 378 q 1543 567 1431 567 q 1719 488 1656 567 q 1782 291 1782 408 m 1599 260 q 1599 293 1599 260 q 1579 376 1599 326 q 1528 426 1560 426 q 1478 388 1497 426 q 1458 285 1458 350 q 1478 172 1458 221 q 1527 122 1497 122 q 1578 158 1557 122 q 1599 260 1599 194 m 581 760 q 581 702 581 760 q 503 549 581 643 q 315 456 426 456 q 144 534 204 456 q 83 730 83 613 q 156 942 83 847 q 342 1036 229 1036 q 517 957 454 1036 q 581 760 581 878 m 397 731 q 397 764 397 731 q 378 847 397 797 q 327 897 358 897 q 276 858 296 897 q 257 755 257 819 q 276 641 257 690 q 326 592 296 592 q 376 628 356 592 q 397 731 397 664 m 889 949 q 1007 1036 950 1036 q 1093 982 1064 1036 q 1017 900 1069 974 l 428 75 q 309 -17 365 -17 q 225 40 253 -17 q 262 72 238 46 q 303 124 286 99 l 889 949 m 1232 291 q 1232 232 1232 291 q 1155 79 1232 174 q 967 -15 1078 -15 q 795 63 856 -15 q 735 260 735 142 q 808 472 735 378 q 993 567 881 567 q 1169 488 1106 567 q 1232 291 1232 408 m 1049 260 q 1049 293 1049 260 q 1029 376 1049 326 q 978 426 1010 426 q 928 388 947 426 q 908 285 908 350 q 928 172 908 221 q 977 122 947 122 q 1028 158 1007 122 q 1049 260 1049 194 z "},"‹":{"ha":481,"x_min":50,"x_max":431,"o":"m 431 881 q 288 676 325 740 q 251 562 251 613 q 289 446 251 511 q 431 243 326 381 q 413 224 426 233 q 383 214 400 214 q 256 278 336 214 q 113 428 175 343 q 50 562 50 513 q 113 696 50 611 q 256 845 175 781 q 383 910 336 910 q 413 900 400 910 q 431 881 426 890 z "},"›":{"ha":481,"x_min":50,"x_max":431,"o":"m 224 845 q 264 813 224 845 q 367 696 304 781 q 431 562 431 611 q 367 428 431 513 q 224 278 304 343 q 97 214 143 214 q 67 224 81 214 q 50 243 53 235 q 190 445 153 379 q 228 562 228 511 q 191 677 228 613 q 50 881 154 742 q 67 899 53 889 q 97 910 81 910 q 224 845 143 910 z "},"⁄":{"ha":1001,"x_min":67,"x_max":935,"o":"m 731 949 q 849 1036 792 1036 q 935 982 906 1036 q 858 900 911 974 l 269 75 q 151 -17 207 -17 q 67 40 94 -17 q 103 72 79 46 q 144 124 128 99 l 731 949 z "},"€":{"ha":1082,"x_min":67,"x_max":1032,"o":"m 424 524 l 425 464 l 736 464 q 743 439 743 457 q 618 350 743 350 l 446 350 q 690 172 499 172 q 853 216 774 172 q 978 314 932 260 q 1014 281 1001 306 q 1026 228 1026 256 q 913 64 1026 143 q 635 -15 799 -15 q 361 80 471 -15 q 218 350 251 175 l 74 350 q 67 381 67 360 q 192 464 67 464 l 207 464 q 206 500 206 476 q 208 568 206 524 l 74 568 q 67 599 67 578 q 192 682 67 682 l 226 682 q 383 942 267 849 q 663 1036 500 1036 q 929 986 826 1036 q 1032 856 1032 936 q 988 771 1032 799 q 881 743 943 743 q 772 772 819 743 q 774 799 774 786 q 749 878 774 843 q 654 914 724 914 q 526 852 585 914 q 442 682 467 790 l 736 682 q 743 657 743 675 q 618 568 743 568 l 425 568 q 424 524 424 554 z "},"₹":{"ha":738,"x_min":53,"x_max":776,"o":"m 776 675 q 642 581 776 581 l 632 581 l 632 564 q 573 376 632 453 q 413 276 514 299 q 590 106 467 106 q 614 107 603 106 q 615 93 615 100 q 583 21 615 51 q 499 -10 551 -10 q 242 288 328 -10 q 136 418 136 332 q 163 481 136 457 q 229 506 189 506 q 381 385 329 506 q 474 543 474 425 q 471 581 474 556 l 60 581 q 53 615 53 597 q 188 706 53 706 l 432 706 q 360 804 401 767 l 60 804 q 53 839 53 822 q 188 929 53 929 l 771 929 q 776 899 776 918 q 642 804 776 804 l 544 804 q 606 706 583 761 l 771 706 q 776 675 776 694 z "},"™":{"ha":1481,"x_min":17,"x_max":1397,"o":"m 150 1031 l 443 1031 q 535 957 535 1031 q 510 900 535 931 q 401 918 468 918 l 347 918 l 347 493 q 376 433 347 449 q 285 397 344 397 q 194 497 194 397 l 194 918 l 106 918 q 17 992 17 918 q 40 1050 17 1022 q 150 1031 78 1031 m 1324 400 q 1222 486 1228 400 l 1196 915 l 1033 444 q 983 408 1018 407 q 937 418 947 408 q 922 447 926 428 l 751 918 l 724 490 q 703 419 721 442 q 642 397 686 397 q 565 431 599 397 q 594 497 590 454 l 632 931 q 632 944 632 938 q 614 1003 632 981 q 751 1036 671 1036 q 866 1003 832 1036 q 926 893 900 971 l 1000 675 l 1065 889 q 1135 1006 1094 976 q 1249 1036 1176 1036 q 1365 1017 1322 1036 q 1350 953 1350 994 q 1350 939 1350 946 l 1376 501 q 1397 415 1379 442 q 1324 400 1357 400 z "},"−":{"ha":1017,"x_min":50,"x_max":967,"o":"m 251 667 l 958 667 q 967 617 967 651 q 950 554 967 583 q 913 511 933 525 q 861 489 893 497 q 765 481 822 481 l 61 481 q 50 538 50 507 q 67 597 50 569 q 103 638 83 625 q 156 658 124 650 q 251 667 194 667 z "},"◌":{"ha":1146,"x_min":178,"x_max":1010,"o":"m 186 375 l 340 408 q 367 332 349 369 l 233 254 q 186 375 201 307 m 336 463 l 178 463 q 197 590 178 528 l 347 540 q 336 463 336 503 m 286 183 l 399 286 q 463 233 425 257 l 389 106 q 286 183 326 139 m 317 769 l 419 656 q 368 593 390 629 l 233 671 q 317 769 268 728 m 594 200 l 594 56 q 468 72 528 56 l 514 211 q 594 200 554 200 m 850 463 l 1010 463 q 989 335 1010 393 l 839 383 q 850 463 850 424 m 508 861 l 540 714 q 464 688 494 704 l 389 819 q 508 861 449 851 m 679 64 l 649 206 q 725 235 693 217 l 799 106 q 679 64 742 74 m 594 719 l 594 869 q 719 851 656 869 l 672 707 q 594 719 629 719 m 872 156 l 769 268 q 818 332 799 296 l 953 254 q 872 156 922 199 m 901 740 l 786 635 q 724 686 760 664 l 800 819 q 901 740 857 788 m 954 669 q 1000 549 988 615 l 844 515 q 818 592 836 554 l 954 669 z "},"ﬁ":{"ha":917,"x_min":8,"x_max":861,"o":"m 817 561 l 817 143 q 861 44 817 68 q 735 -15 811 -15 q 599 150 599 -15 l 599 593 l 374 593 l 374 -125 q 318 -311 374 -250 q 176 -372 263 -372 q 8 -247 43 -372 q 125 -211 94 -247 q 156 -89 156 -175 l 156 597 q 60 622 85 604 q 35 674 35 640 q 65 731 35 707 q 156 726 110 726 l 156 782 q 257 1013 156 938 q 503 1089 358 1089 q 728 1042 649 1089 q 808 926 808 994 q 758 851 808 879 q 697 833 728 833 q 642 840 667 833 q 588 915 624 885 q 508 944 551 944 q 374 792 374 944 l 374 726 l 694 726 q 790 688 764 726 q 817 561 817 649 z "},"ﬂ":{"ha":1000,"x_min":8,"x_max":861,"o":"m 817 907 l 817 143 q 861 44 817 68 q 735 -15 811 -15 q 599 150 599 -15 l 599 932 q 496 953 550 953 q 408 922 442 953 q 374 842 374 892 l 374 674 l 499 674 q 508 644 508 663 q 476 576 508 607 q 374 542 443 546 l 374 -125 q 318 -311 374 -250 q 176 -372 263 -372 q 8 -247 43 -372 q 125 -211 94 -247 q 156 -89 156 -175 l 156 542 q 35 615 35 550 q 65 676 35 656 q 156 674 124 674 l 156 847 q 485 1089 156 1089 q 724 1036 631 1089 q 817 907 817 983 z "}," ":{"ha":389,"x_min":0,"x_max":0,"o":""}}}
